<?xml version="1.0" encoding="utf-8" standalone="no"?>
<!DOCTYPE svg PUBLIC "-//W3C//DTD SVG 1.1//EN"
  "http://www.w3.org/Graphics/SVG/1.1/DTD/svg11.dtd">
<!-- Created with matplotlib (http://matplotlib.sourceforge.net/) -->
<svg height="288pt" version="1.1" viewBox="0 0 432 288" width="432pt" xmlns="http://www.w3.org/2000/svg" xmlns:xlink="http://www.w3.org/1999/xlink">
 <defs>
  <style type="text/css">
*{stroke-linecap:square;stroke-linejoin:round;}
  </style>
 </defs>
 <g id="figure_1">
  <g id="patch_1">
   <path d="
M0 288
L432 288
L432 0
L0 0
z
" style="fill:#ffffff;"/>
  </g>
  <g id="axes_1">
   <g id="patch_2">
    <path d="
M54 252
L388.8 252
L388.8 28.8
L54 28.8
z
" style="fill:#ffffff;"/>
   </g>
   <g id="PolyCollection_1">
    <defs>
     <path d="
M108.35 -57.7881
L87.48 -57.7881
L87.48 -58.1336
L87.48 -58.479
L87.48 -58.8245
L87.48 -59.1699
L87.48 -59.5154
L87.48 -59.8608
L87.48 -60.2063
L87.48 -60.5517
L87.48 -60.8972
L87.48 -61.2426
L87.48 -61.5881
L87.48 -61.9335
L87.48 -62.279
L87.48 -62.6244
L87.48 -62.9699
L87.48 -63.3153
L87.48 -63.6608
L87.48 -64.0062
L87.48 -64.3517
L87.48 -64.6971
L87.48 -65.0426
L87.48 -65.388
L87.48 -65.7335
L87.48 -66.0789
L87.48 -66.4244
L87.48 -66.7698
L87.48 -67.1153
L87.48 -67.4607
L87.48 -67.8062
L87.48 -68.1516
L87.48 -68.4971
L87.48 -68.8425
L87.48 -69.188
L87.48 -69.5334
L87.48 -69.8789
L87.48 -70.2243
L87.48 -70.5698
L87.48 -70.9152
L87.48 -71.2606
L87.48 -71.6061
L87.48 -71.9515
L87.48 -72.297
L87.48 -72.6424
L87.48 -72.9879
L87.48 -73.3333
L87.48 -73.6788
L87.48 -74.0242
L87.48 -74.3697
L87.48 -74.7151
L87.48 -75.0606
L87.48 -75.406
L87.48 -75.7515
L87.48 -76.0969
L87.48 -76.4424
L87.48 -76.7878
L87.48 -77.1333
L87.48 -77.4787
L87.48 -77.8242
L87.48 -78.1696
L87.48 -78.5151
L87.48 -78.8605
L87.48 -79.206
L87.48 -79.5514
L87.48 -79.8969
L87.48 -80.2423
L87.48 -80.5878
L87.48 -80.9332
L87.48 -81.2787
L87.48 -81.6241
L87.48 -81.9696
L87.48 -82.315
L87.48 -82.6605
L87.48 -83.0059
L87.48 -83.3514
L87.48 -83.6968
L87.48 -84.0423
L87.48 -84.3877
L87.48 -84.7332
L87.48 -85.0786
L87.48 -85.4241
L87.48 -85.7695
L87.48 -86.115
L87.48 -86.4604
L87.48 -86.8059
L87.48 -87.1513
L87.48 -87.4968
L87.48 -87.8422
L87.48 -88.1877
L87.48 -88.5331
L87.48 -88.8785
L87.48 -89.224
L87.48 -89.5694
L87.48 -89.9149
L87.48 -90.2603
L87.48 -90.6058
L87.48 -90.9512
L87.48 -91.2967
L87.48 -91.6421
L87.48 -91.9876
L107.315 -91.9876
L107.315 -91.9876
L107.745 -91.6421
L108.174 -91.2967
L108.6 -90.9512
L109.024 -90.6058
L109.446 -90.2603
L109.865 -89.9149
L110.281 -89.5694
L110.695 -89.224
L111.104 -88.8785
L111.51 -88.5331
L111.913 -88.1877
L112.311 -87.8422
L112.704 -87.4968
L113.093 -87.1513
L113.476 -86.8059
L113.855 -86.4604
L114.227 -86.115
L114.593 -85.7695
L114.953 -85.4241
L115.306 -85.0786
L115.652 -84.7332
L115.99 -84.3877
L116.321 -84.0423
L116.643 -83.6968
L116.956 -83.3514
L117.26 -83.0059
L117.554 -82.6605
L117.839 -82.315
L118.113 -81.9696
L118.376 -81.6241
L118.629 -81.2787
L118.869 -80.9332
L119.098 -80.5878
L119.315 -80.2423
L119.52 -79.8969
L119.711 -79.5514
L119.89 -79.206
L120.055 -78.8605
L120.207 -78.5151
L120.345 -78.1696
L120.47 -77.8242
L120.58 -77.4787
L120.677 -77.1333
L120.759 -76.7878
L120.827 -76.4424
L120.882 -76.0969
L120.922 -75.7515
L120.948 -75.406
L120.96 -75.0606
L120.958 -74.7151
L120.943 -74.3697
L120.914 -74.0242
L120.872 -73.6788
L120.816 -73.3333
L120.748 -72.9879
L120.667 -72.6424
L120.574 -72.297
L120.468 -71.9515
L120.351 -71.6061
L120.222 -71.2606
L120.081 -70.9152
L119.93 -70.5698
L119.768 -70.2243
L119.595 -69.8789
L119.412 -69.5334
L119.219 -69.188
L119.016 -68.8425
L118.804 -68.4971
L118.583 -68.1516
L118.352 -67.8062
L118.113 -67.4607
L117.865 -67.1153
L117.608 -66.7698
L117.344 -66.4244
L117.071 -66.0789
L116.79 -65.7335
L116.501 -65.388
L116.204 -65.0426
L115.9 -64.6971
L115.588 -64.3517
L115.269 -64.0062
L114.942 -63.6608
L114.607 -63.3153
L114.266 -62.9699
L113.917 -62.6244
L113.562 -62.279
L113.199 -61.9335
L112.829 -61.5881
L112.453 -61.2426
L112.07 -60.8972
L111.68 -60.5517
L111.285 -60.2063
L110.882 -59.8608
L110.474 -59.5154
L110.06 -59.1699
L109.64 -58.8245
L109.215 -58.479
L108.785 -58.1336
L108.35 -57.7881
z
" id="C0_0_2d950417d3"/>
    </defs>
    <g clip-path="url(#p124b8dd147)">
     <use style="fill:#bfbf00;opacity:0.1;stroke:#000000;stroke-linecap:butt;" x="0" xlink:href="#C0_0_2d950417d3" y="288.0"/>
    </g>
   </g>
   <g id="PolyCollection_2">
    <defs>
     <path d="
M66.6098 -57.7881
L87.48 -57.7881
L87.48 -58.1336
L87.48 -58.479
L87.48 -58.8245
L87.48 -59.1699
L87.48 -59.5154
L87.48 -59.8608
L87.48 -60.2063
L87.48 -60.5517
L87.48 -60.8972
L87.48 -61.2426
L87.48 -61.5881
L87.48 -61.9335
L87.48 -62.279
L87.48 -62.6244
L87.48 -62.9699
L87.48 -63.3153
L87.48 -63.6608
L87.48 -64.0062
L87.48 -64.3517
L87.48 -64.6971
L87.48 -65.0426
L87.48 -65.388
L87.48 -65.7335
L87.48 -66.0789
L87.48 -66.4244
L87.48 -66.7698
L87.48 -67.1153
L87.48 -67.4607
L87.48 -67.8062
L87.48 -68.1516
L87.48 -68.4971
L87.48 -68.8425
L87.48 -69.188
L87.48 -69.5334
L87.48 -69.8789
L87.48 -70.2243
L87.48 -70.5698
L87.48 -70.9152
L87.48 -71.2606
L87.48 -71.6061
L87.48 -71.9515
L87.48 -72.297
L87.48 -72.6424
L87.48 -72.9879
L87.48 -73.3333
L87.48 -73.6788
L87.48 -74.0242
L87.48 -74.3697
L87.48 -74.7151
L87.48 -75.0606
L87.48 -75.406
L87.48 -75.7515
L87.48 -76.0969
L87.48 -76.4424
L87.48 -76.7878
L87.48 -77.1333
L87.48 -77.4787
L87.48 -77.8242
L87.48 -78.1696
L87.48 -78.5151
L87.48 -78.8605
L87.48 -79.206
L87.48 -79.5514
L87.48 -79.8969
L87.48 -80.2423
L87.48 -80.5878
L87.48 -80.9332
L87.48 -81.2787
L87.48 -81.6241
L87.48 -81.9696
L87.48 -82.315
L87.48 -82.6605
L87.48 -83.0059
L87.48 -83.3514
L87.48 -83.6968
L87.48 -84.0423
L87.48 -84.3877
L87.48 -84.7332
L87.48 -85.0786
L87.48 -85.4241
L87.48 -85.7695
L87.48 -86.115
L87.48 -86.4604
L87.48 -86.8059
L87.48 -87.1513
L87.48 -87.4968
L87.48 -87.8422
L87.48 -88.1877
L87.48 -88.5331
L87.48 -88.8785
L87.48 -89.224
L87.48 -89.5694
L87.48 -89.9149
L87.48 -90.2603
L87.48 -90.6058
L87.48 -90.9512
L87.48 -91.2967
L87.48 -91.6421
L87.48 -91.9876
L67.6449 -91.9876
L67.6449 -91.9876
L67.2149 -91.6421
L66.7865 -91.2967
L66.3601 -90.9512
L65.9358 -90.6058
L65.514 -90.2603
L65.0949 -89.9149
L64.6786 -89.5694
L64.2654 -89.224
L63.8557 -88.8785
L63.4496 -88.5331
L63.0474 -88.1877
L62.6495 -87.8422
L62.256 -87.4968
L61.8673 -87.1513
L61.4837 -86.8059
L61.1055 -86.4604
L60.733 -86.115
L60.3667 -85.7695
L60.0068 -85.4241
L59.6537 -85.0786
L59.3079 -84.7332
L58.9696 -84.3877
L58.6393 -84.0423
L58.3173 -83.6968
L58.0041 -83.3514
L57.7001 -83.0059
L57.4057 -82.6605
L57.1212 -82.315
L56.8471 -81.9696
L56.5837 -81.6241
L56.3315 -81.2787
L56.0907 -80.9332
L55.8617 -80.5878
L55.6449 -80.2423
L55.4405 -79.8969
L55.2489 -79.5514
L55.0703 -79.206
L54.9049 -78.8605
L54.753 -78.5151
L54.6147 -78.1696
L54.4903 -77.8242
L54.3798 -77.4787
L54.2833 -77.1333
L54.2008 -76.7878
L54.1325 -76.4424
L54.0783 -76.0969
L54.0382 -75.7515
L54.0121 -75.406
L54 -75.0606
L54.0017 -74.7151
L54.0171 -74.3697
L54.046 -74.0242
L54.0882 -73.6788
L54.1436 -73.3333
L54.2119 -72.9879
L54.2928 -72.6424
L54.3862 -72.297
L54.4918 -71.9515
L54.6092 -71.6061
L54.7382 -71.2606
L54.8786 -70.9152
L55.0301 -70.5698
L55.1923 -70.2243
L55.365 -69.8789
L55.548 -69.5334
L55.741 -69.188
L55.9437 -68.8425
L56.1559 -68.4971
L56.3773 -68.1516
L56.6078 -67.8062
L56.8471 -67.4607
L57.0951 -67.1153
L57.3516 -66.7698
L57.6163 -66.4244
L57.8893 -66.0789
L58.1702 -65.7335
L58.4591 -65.388
L58.7558 -65.0426
L59.0601 -64.6971
L59.3721 -64.3517
L59.6915 -64.0062
L60.0184 -63.6608
L60.3525 -63.3153
L60.694 -62.9699
L61.0426 -62.6244
L61.3983 -62.279
L61.761 -61.9335
L62.1306 -61.5881
L62.5069 -61.2426
L62.89 -60.8972
L63.2795 -60.5517
L63.6755 -60.2063
L64.0777 -59.8608
L64.4859 -59.5154
L64.9 -59.1699
L65.3196 -58.8245
L65.7447 -58.479
L66.1748 -58.1336
L66.6098 -57.7881
z
" id="C1_0_3642f15acf"/>
    </defs>
    <g clip-path="url(#p124b8dd147)">
     <use style="fill:#bfbf00;opacity:0.1;stroke:#000000;stroke-linecap:butt;" x="0" xlink:href="#C1_0_3642f15acf" y="288.0"/>
    </g>
   </g>
   <g id="PolyCollection_3">
    <defs>
     <path d="
M163.171 -46.7734
L154.44 -46.7734
L154.44 -48.7233
L154.44 -50.6732
L154.44 -52.6231
L154.44 -54.573
L154.44 -56.5229
L154.44 -58.4727
L154.44 -60.4226
L154.44 -62.3725
L154.44 -64.3224
L154.44 -66.2723
L154.44 -68.2222
L154.44 -70.172
L154.44 -72.1219
L154.44 -74.0718
L154.44 -76.0217
L154.44 -77.9716
L154.44 -79.9215
L154.44 -81.8713
L154.44 -83.8212
L154.44 -85.7711
L154.44 -87.721
L154.44 -89.6709
L154.44 -91.6208
L154.44 -93.5706
L154.44 -95.5205
L154.44 -97.4704
L154.44 -99.4203
L154.44 -101.37
L154.44 -103.32
L154.44 -105.27
L154.44 -107.22
L154.44 -109.17
L154.44 -111.12
L154.44 -113.069
L154.44 -115.019
L154.44 -116.969
L154.44 -118.919
L154.44 -120.869
L154.44 -122.819
L154.44 -124.769
L154.44 -126.719
L154.44 -128.669
L154.44 -130.618
L154.44 -132.568
L154.44 -134.518
L154.44 -136.468
L154.44 -138.418
L154.44 -140.368
L154.44 -142.318
L154.44 -144.268
L154.44 -146.217
L154.44 -148.167
L154.44 -150.117
L154.44 -152.067
L154.44 -154.017
L154.44 -155.967
L154.44 -157.917
L154.44 -159.867
L154.44 -161.817
L154.44 -163.766
L154.44 -165.716
L154.44 -167.666
L154.44 -169.616
L154.44 -171.566
L154.44 -173.516
L154.44 -175.466
L154.44 -177.416
L154.44 -179.366
L154.44 -181.315
L154.44 -183.265
L154.44 -185.215
L154.44 -187.165
L154.44 -189.115
L154.44 -191.065
L154.44 -193.015
L154.44 -194.965
L154.44 -196.914
L154.44 -198.864
L154.44 -200.814
L154.44 -202.764
L154.44 -204.714
L154.44 -206.664
L154.44 -208.614
L154.44 -210.564
L154.44 -212.514
L154.44 -214.463
L154.44 -216.413
L154.44 -218.363
L154.44 -220.313
L154.44 -222.263
L154.44 -224.213
L154.44 -226.163
L154.44 -228.113
L154.44 -230.062
L154.44 -232.012
L154.44 -233.962
L154.44 -235.912
L154.44 -237.862
L154.44 -239.812
L155.102 -239.812
L155.102 -239.812
L155.092 -237.862
L155.073 -235.912
L155.049 -233.962
L155.024 -232.012
L155.003 -230.062
L154.989 -228.113
L154.985 -226.163
L154.992 -224.213
L155.008 -222.263
L155.03 -220.313
L155.057 -218.363
L155.082 -216.413
L155.102 -214.463
L155.114 -212.514
L155.116 -210.564
L155.107 -208.614
L155.088 -206.664
L155.061 -204.714
L155.032 -202.764
L155.005 -200.814
L154.983 -198.864
L154.972 -196.914
L154.973 -194.965
L154.989 -193.015
L155.02 -191.065
L155.064 -189.115
L155.119 -187.165
L155.182 -185.215
L155.249 -183.265
L155.319 -181.315
L155.388 -179.366
L155.454 -177.416
L155.518 -175.466
L155.579 -173.516
L155.64 -171.566
L155.701 -169.616
L155.766 -167.666
L155.839 -165.716
L155.924 -163.766
L156.028 -161.817
L156.156 -159.867
L156.318 -157.917
L156.522 -155.967
L156.78 -154.017
L157.099 -152.067
L157.487 -150.117
L157.95 -148.167
L158.488 -146.217
L159.099 -144.268
L159.776 -142.318
L160.506 -140.368
L161.277 -138.418
L162.071 -136.468
L162.875 -134.518
L163.674 -132.568
L164.461 -130.618
L165.232 -128.669
L165.987 -126.719
L166.737 -124.769
L167.495 -122.819
L168.279 -120.869
L169.114 -118.919
L170.024 -116.969
L171.033 -115.019
L172.16 -113.069
L173.419 -111.12
L174.808 -109.17
L176.317 -107.22
L177.915 -105.27
L179.56 -103.32
L181.197 -101.37
L182.765 -99.4203
L184.201 -97.4704
L185.449 -95.5205
L186.465 -93.5706
L187.22 -91.6208
L187.703 -89.6709
L187.92 -87.721
L187.89 -85.7711
L187.64 -83.8212
L187.2 -81.8713
L186.596 -79.9215
L185.852 -77.9716
L184.984 -76.0217
L184 -74.0718
L182.906 -72.1219
L181.706 -70.172
L180.404 -68.2222
L179.007 -66.2723
L177.524 -64.3224
L175.969 -62.3725
L174.359 -60.4226
L172.711 -58.4727
L171.046 -56.5229
L169.383 -54.573
L167.745 -52.6231
L166.15 -50.6732
L164.619 -48.7233
L163.171 -46.7734
z
" id="C2_0_c3d4a0214a"/>
    </defs>
    <g clip-path="url(#p124b8dd147)">
     <use style="fill:#bfbf00;opacity:0.1;stroke:#000000;stroke-linecap:butt;" x="0" xlink:href="#C2_0_c3d4a0214a" y="288.0"/>
    </g>
   </g>
   <g id="PolyCollection_4">
    <defs>
     <path d="
M145.709 -46.7734
L154.44 -46.7734
L154.44 -48.7233
L154.44 -50.6732
L154.44 -52.6231
L154.44 -54.573
L154.44 -56.5229
L154.44 -58.4727
L154.44 -60.4226
L154.44 -62.3725
L154.44 -64.3224
L154.44 -66.2723
L154.44 -68.2222
L154.44 -70.172
L154.44 -72.1219
L154.44 -74.0718
L154.44 -76.0217
L154.44 -77.9716
L154.44 -79.9215
L154.44 -81.8713
L154.44 -83.8212
L154.44 -85.7711
L154.44 -87.721
L154.44 -89.6709
L154.44 -91.6208
L154.44 -93.5706
L154.44 -95.5205
L154.44 -97.4704
L154.44 -99.4203
L154.44 -101.37
L154.44 -103.32
L154.44 -105.27
L154.44 -107.22
L154.44 -109.17
L154.44 -111.12
L154.44 -113.069
L154.44 -115.019
L154.44 -116.969
L154.44 -118.919
L154.44 -120.869
L154.44 -122.819
L154.44 -124.769
L154.44 -126.719
L154.44 -128.669
L154.44 -130.618
L154.44 -132.568
L154.44 -134.518
L154.44 -136.468
L154.44 -138.418
L154.44 -140.368
L154.44 -142.318
L154.44 -144.268
L154.44 -146.217
L154.44 -148.167
L154.44 -150.117
L154.44 -152.067
L154.44 -154.017
L154.44 -155.967
L154.44 -157.917
L154.44 -159.867
L154.44 -161.817
L154.44 -163.766
L154.44 -165.716
L154.44 -167.666
L154.44 -169.616
L154.44 -171.566
L154.44 -173.516
L154.44 -175.466
L154.44 -177.416
L154.44 -179.366
L154.44 -181.315
L154.44 -183.265
L154.44 -185.215
L154.44 -187.165
L154.44 -189.115
L154.44 -191.065
L154.44 -193.015
L154.44 -194.965
L154.44 -196.914
L154.44 -198.864
L154.44 -200.814
L154.44 -202.764
L154.44 -204.714
L154.44 -206.664
L154.44 -208.614
L154.44 -210.564
L154.44 -212.514
L154.44 -214.463
L154.44 -216.413
L154.44 -218.363
L154.44 -220.313
L154.44 -222.263
L154.44 -224.213
L154.44 -226.163
L154.44 -228.113
L154.44 -230.062
L154.44 -232.012
L154.44 -233.962
L154.44 -235.912
L154.44 -237.862
L154.44 -239.812
L153.778 -239.812
L153.778 -239.812
L153.788 -237.862
L153.807 -235.912
L153.831 -233.962
L153.856 -232.012
L153.877 -230.062
L153.891 -228.113
L153.895 -226.163
L153.888 -224.213
L153.872 -222.263
L153.85 -220.313
L153.823 -218.363
L153.798 -216.413
L153.778 -214.463
L153.766 -212.514
L153.764 -210.564
L153.773 -208.614
L153.792 -206.664
L153.819 -204.714
L153.848 -202.764
L153.875 -200.814
L153.897 -198.864
L153.908 -196.914
L153.907 -194.965
L153.891 -193.015
L153.86 -191.065
L153.816 -189.115
L153.761 -187.165
L153.698 -185.215
L153.631 -183.265
L153.561 -181.315
L153.492 -179.366
L153.426 -177.416
L153.362 -175.466
L153.301 -173.516
L153.24 -171.566
L153.179 -169.616
L153.114 -167.666
L153.041 -165.716
L152.956 -163.766
L152.852 -161.817
L152.724 -159.867
L152.562 -157.917
L152.358 -155.967
L152.1 -154.017
L151.781 -152.067
L151.393 -150.117
L150.93 -148.167
L150.392 -146.217
L149.781 -144.268
L149.104 -142.318
L148.374 -140.368
L147.603 -138.418
L146.809 -136.468
L146.005 -134.518
L145.206 -132.568
L144.419 -130.618
L143.648 -128.669
L142.893 -126.719
L142.143 -124.769
L141.385 -122.819
L140.601 -120.869
L139.766 -118.919
L138.856 -116.969
L137.847 -115.019
L136.72 -113.069
L135.461 -111.12
L134.072 -109.17
L132.563 -107.22
L130.965 -105.27
L129.32 -103.32
L127.683 -101.37
L126.115 -99.4203
L124.679 -97.4704
L123.431 -95.5205
L122.415 -93.5706
L121.66 -91.6208
L121.177 -89.6709
L120.96 -87.721
L120.99 -85.7711
L121.24 -83.8212
L121.68 -81.8713
L122.284 -79.9215
L123.028 -77.9716
L123.896 -76.0217
L124.88 -74.0718
L125.974 -72.1219
L127.174 -70.172
L128.476 -68.2222
L129.873 -66.2723
L131.356 -64.3224
L132.911 -62.3725
L134.521 -60.4226
L136.169 -58.4727
L137.834 -56.5229
L139.497 -54.573
L141.135 -52.6231
L142.73 -50.6732
L144.261 -48.7233
L145.709 -46.7734
z
" id="C3_0_b441f4c8ac"/>
    </defs>
    <g clip-path="url(#p124b8dd147)">
     <use style="fill:#bfbf00;opacity:0.1;stroke:#000000;stroke-linecap:butt;" x="0" xlink:href="#C3_0_b441f4c8ac" y="288.0"/>
    </g>
   </g>
   <g id="PolyCollection_5">
    <defs>
     <path d="
M231.282 -59.2732
L221.4 -59.2732
L221.4 -61.254
L221.4 -63.2347
L221.4 -65.2155
L221.4 -67.1962
L221.4 -69.177
L221.4 -71.1578
L221.4 -73.1385
L221.4 -75.1193
L221.4 -77.1001
L221.4 -79.0808
L221.4 -81.0616
L221.4 -83.0423
L221.4 -85.0231
L221.4 -87.0039
L221.4 -88.9846
L221.4 -90.9654
L221.4 -92.9462
L221.4 -94.9269
L221.4 -96.9077
L221.4 -98.8884
L221.4 -100.869
L221.4 -102.85
L221.4 -104.831
L221.4 -106.811
L221.4 -108.792
L221.4 -110.773
L221.4 -112.754
L221.4 -114.735
L221.4 -116.715
L221.4 -118.696
L221.4 -120.677
L221.4 -122.658
L221.4 -124.638
L221.4 -126.619
L221.4 -128.6
L221.4 -130.581
L221.4 -132.561
L221.4 -134.542
L221.4 -136.523
L221.4 -138.504
L221.4 -140.484
L221.4 -142.465
L221.4 -144.446
L221.4 -146.427
L221.4 -148.408
L221.4 -150.388
L221.4 -152.369
L221.4 -154.35
L221.4 -156.331
L221.4 -158.311
L221.4 -160.292
L221.4 -162.273
L221.4 -164.254
L221.4 -166.234
L221.4 -168.215
L221.4 -170.196
L221.4 -172.177
L221.4 -174.157
L221.4 -176.138
L221.4 -178.119
L221.4 -180.1
L221.4 -182.08
L221.4 -184.061
L221.4 -186.042
L221.4 -188.023
L221.4 -190.004
L221.4 -191.984
L221.4 -193.965
L221.4 -195.946
L221.4 -197.927
L221.4 -199.907
L221.4 -201.888
L221.4 -203.869
L221.4 -205.85
L221.4 -207.83
L221.4 -209.811
L221.4 -211.792
L221.4 -213.773
L221.4 -215.753
L221.4 -217.734
L221.4 -219.715
L221.4 -221.696
L221.4 -223.677
L221.4 -225.657
L221.4 -227.638
L221.4 -229.619
L221.4 -231.6
L221.4 -233.58
L221.4 -235.561
L221.4 -237.542
L221.4 -239.523
L221.4 -241.503
L221.4 -243.484
L221.4 -245.465
L221.4 -247.446
L221.4 -249.426
L221.4 -251.407
L221.4 -253.388
L221.4 -255.369
L222.153 -255.369
L222.153 -255.369
L222.132 -253.388
L222.098 -251.407
L222.053 -249.426
L222.001 -247.446
L221.946 -245.465
L221.89 -243.484
L221.838 -241.503
L221.794 -239.523
L221.762 -237.542
L221.746 -235.561
L221.749 -233.58
L221.776 -231.6
L221.828 -229.619
L221.911 -227.638
L222.026 -225.657
L222.176 -223.677
L222.362 -221.696
L222.586 -219.715
L222.846 -217.734
L223.14 -215.753
L223.464 -213.773
L223.813 -211.792
L224.182 -209.811
L224.561 -207.83
L224.943 -205.85
L225.32 -203.869
L225.685 -201.888
L226.031 -199.907
L226.355 -197.927
L226.653 -195.946
L226.926 -193.965
L227.176 -191.984
L227.405 -190.004
L227.621 -188.023
L227.829 -186.042
L228.038 -184.061
L228.255 -182.08
L228.489 -180.1
L228.747 -178.119
L229.038 -176.138
L229.369 -174.157
L229.746 -172.177
L230.176 -170.196
L230.664 -168.215
L231.213 -166.234
L231.828 -164.254
L232.508 -162.273
L233.257 -160.292
L234.071 -158.311
L234.951 -156.331
L235.891 -154.35
L236.888 -152.369
L237.934 -150.388
L239.021 -148.408
L240.141 -146.427
L241.283 -144.446
L242.435 -142.465
L243.585 -140.484
L244.719 -138.504
L245.825 -136.523
L246.891 -134.542
L247.905 -132.561
L248.858 -130.581
L249.743 -128.6
L250.556 -126.619
L251.294 -124.638
L251.958 -122.658
L252.55 -120.677
L253.074 -118.696
L253.531 -116.715
L253.925 -114.735
L254.256 -112.754
L254.523 -110.773
L254.721 -108.792
L254.843 -106.811
L254.88 -104.831
L254.82 -102.85
L254.651 -100.869
L254.362 -98.8884
L253.943 -96.9077
L253.387 -94.9269
L252.693 -92.9462
L251.861 -90.9654
L250.9 -88.9846
L249.82 -87.0039
L248.638 -85.0231
L247.372 -83.0423
L246.041 -81.0616
L244.666 -79.0808
L243.265 -77.1001
L241.854 -75.1193
L240.447 -73.1385
L239.054 -71.1578
L237.681 -69.177
L236.335 -67.1962
L235.018 -65.2155
L233.734 -63.2347
L232.487 -61.254
L231.282 -59.2732
z
" id="C4_0_ca01cad449"/>
    </defs>
    <g clip-path="url(#p124b8dd147)">
     <use style="fill:#bfbf00;opacity:0.1;stroke:#000000;stroke-linecap:butt;" x="0" xlink:href="#C4_0_ca01cad449" y="288.0"/>
    </g>
   </g>
   <g id="PolyCollection_6">
    <defs>
     <path d="
M211.518 -59.2732
L221.4 -59.2732
L221.4 -61.254
L221.4 -63.2347
L221.4 -65.2155
L221.4 -67.1962
L221.4 -69.177
L221.4 -71.1578
L221.4 -73.1385
L221.4 -75.1193
L221.4 -77.1001
L221.4 -79.0808
L221.4 -81.0616
L221.4 -83.0423
L221.4 -85.0231
L221.4 -87.0039
L221.4 -88.9846
L221.4 -90.9654
L221.4 -92.9462
L221.4 -94.9269
L221.4 -96.9077
L221.4 -98.8884
L221.4 -100.869
L221.4 -102.85
L221.4 -104.831
L221.4 -106.811
L221.4 -108.792
L221.4 -110.773
L221.4 -112.754
L221.4 -114.735
L221.4 -116.715
L221.4 -118.696
L221.4 -120.677
L221.4 -122.658
L221.4 -124.638
L221.4 -126.619
L221.4 -128.6
L221.4 -130.581
L221.4 -132.561
L221.4 -134.542
L221.4 -136.523
L221.4 -138.504
L221.4 -140.484
L221.4 -142.465
L221.4 -144.446
L221.4 -146.427
L221.4 -148.408
L221.4 -150.388
L221.4 -152.369
L221.4 -154.35
L221.4 -156.331
L221.4 -158.311
L221.4 -160.292
L221.4 -162.273
L221.4 -164.254
L221.4 -166.234
L221.4 -168.215
L221.4 -170.196
L221.4 -172.177
L221.4 -174.157
L221.4 -176.138
L221.4 -178.119
L221.4 -180.1
L221.4 -182.08
L221.4 -184.061
L221.4 -186.042
L221.4 -188.023
L221.4 -190.004
L221.4 -191.984
L221.4 -193.965
L221.4 -195.946
L221.4 -197.927
L221.4 -199.907
L221.4 -201.888
L221.4 -203.869
L221.4 -205.85
L221.4 -207.83
L221.4 -209.811
L221.4 -211.792
L221.4 -213.773
L221.4 -215.753
L221.4 -217.734
L221.4 -219.715
L221.4 -221.696
L221.4 -223.677
L221.4 -225.657
L221.4 -227.638
L221.4 -229.619
L221.4 -231.6
L221.4 -233.58
L221.4 -235.561
L221.4 -237.542
L221.4 -239.523
L221.4 -241.503
L221.4 -243.484
L221.4 -245.465
L221.4 -247.446
L221.4 -249.426
L221.4 -251.407
L221.4 -253.388
L221.4 -255.369
L220.647 -255.369
L220.647 -255.369
L220.668 -253.388
L220.702 -251.407
L220.747 -249.426
L220.799 -247.446
L220.854 -245.465
L220.91 -243.484
L220.962 -241.503
L221.006 -239.523
L221.038 -237.542
L221.054 -235.561
L221.051 -233.58
L221.024 -231.6
L220.972 -229.619
L220.889 -227.638
L220.774 -225.657
L220.624 -223.677
L220.438 -221.696
L220.214 -219.715
L219.954 -217.734
L219.66 -215.753
L219.336 -213.773
L218.987 -211.792
L218.618 -209.811
L218.239 -207.83
L217.857 -205.85
L217.48 -203.869
L217.115 -201.888
L216.769 -199.907
L216.445 -197.927
L216.147 -195.946
L215.874 -193.965
L215.624 -191.984
L215.395 -190.004
L215.179 -188.023
L214.971 -186.042
L214.762 -184.061
L214.545 -182.08
L214.311 -180.1
L214.053 -178.119
L213.762 -176.138
L213.431 -174.157
L213.054 -172.177
L212.624 -170.196
L212.136 -168.215
L211.587 -166.234
L210.972 -164.254
L210.292 -162.273
L209.543 -160.292
L208.729 -158.311
L207.849 -156.331
L206.909 -154.35
L205.912 -152.369
L204.866 -150.388
L203.779 -148.408
L202.659 -146.427
L201.517 -144.446
L200.365 -142.465
L199.215 -140.484
L198.081 -138.504
L196.975 -136.523
L195.909 -134.542
L194.895 -132.561
L193.942 -130.581
L193.057 -128.6
L192.244 -126.619
L191.506 -124.638
L190.842 -122.658
L190.25 -120.677
L189.726 -118.696
L189.269 -116.715
L188.875 -114.735
L188.544 -112.754
L188.277 -110.773
L188.079 -108.792
L187.957 -106.811
L187.92 -104.831
L187.98 -102.85
L188.149 -100.869
L188.438 -98.8884
L188.857 -96.9077
L189.413 -94.9269
L190.107 -92.9462
L190.939 -90.9654
L191.9 -88.9846
L192.98 -87.0039
L194.162 -85.0231
L195.428 -83.0423
L196.759 -81.0616
L198.134 -79.0808
L199.535 -77.1001
L200.946 -75.1193
L202.353 -73.1385
L203.746 -71.1578
L205.119 -69.177
L206.465 -67.1962
L207.782 -65.2155
L209.066 -63.2347
L210.313 -61.254
L211.518 -59.2732
z
" id="C5_0_8479133152"/>
    </defs>
    <g clip-path="url(#p124b8dd147)">
     <use style="fill:#bfbf00;opacity:0.1;stroke:#000000;stroke-linecap:butt;" x="0" xlink:href="#C5_0_8479133152" y="288.0"/>
    </g>
   </g>
   <g id="PolyCollection_7">
    <defs>
     <path d="
M294.296 -77.561
L288.36 -77.561
L288.36 -79.0653
L288.36 -80.5697
L288.36 -82.0741
L288.36 -83.5785
L288.36 -85.0828
L288.36 -86.5872
L288.36 -88.0916
L288.36 -89.596
L288.36 -91.1004
L288.36 -92.6047
L288.36 -94.1091
L288.36 -95.6135
L288.36 -97.1179
L288.36 -98.6222
L288.36 -100.127
L288.36 -101.631
L288.36 -103.135
L288.36 -104.64
L288.36 -106.144
L288.36 -107.648
L288.36 -109.153
L288.36 -110.657
L288.36 -112.162
L288.36 -113.666
L288.36 -115.17
L288.36 -116.675
L288.36 -118.179
L288.36 -119.683
L288.36 -121.188
L288.36 -122.692
L288.36 -124.197
L288.36 -125.701
L288.36 -127.205
L288.36 -128.71
L288.36 -130.214
L288.36 -131.719
L288.36 -133.223
L288.36 -134.727
L288.36 -136.232
L288.36 -137.736
L288.36 -139.24
L288.36 -140.745
L288.36 -142.249
L288.36 -143.754
L288.36 -145.258
L288.36 -146.762
L288.36 -148.267
L288.36 -149.771
L288.36 -151.275
L288.36 -152.78
L288.36 -154.284
L288.36 -155.789
L288.36 -157.293
L288.36 -158.797
L288.36 -160.302
L288.36 -161.806
L288.36 -163.31
L288.36 -164.815
L288.36 -166.319
L288.36 -167.824
L288.36 -169.328
L288.36 -170.832
L288.36 -172.337
L288.36 -173.841
L288.36 -175.345
L288.36 -176.85
L288.36 -178.354
L288.36 -179.859
L288.36 -181.363
L288.36 -182.867
L288.36 -184.372
L288.36 -185.876
L288.36 -187.38
L288.36 -188.885
L288.36 -190.389
L288.36 -191.894
L288.36 -193.398
L288.36 -194.902
L288.36 -196.407
L288.36 -197.911
L288.36 -199.415
L288.36 -200.92
L288.36 -202.424
L288.36 -203.929
L288.36 -205.433
L288.36 -206.937
L288.36 -208.442
L288.36 -209.946
L288.36 -211.45
L288.36 -212.955
L288.36 -214.459
L288.36 -215.964
L288.36 -217.468
L288.36 -218.972
L288.36 -220.477
L288.36 -221.981
L288.36 -223.485
L288.36 -224.99
L288.36 -226.494
L291.205 -226.494
L291.205 -226.494
L291.39 -224.99
L291.581 -223.485
L291.778 -221.981
L291.984 -220.477
L292.199 -218.972
L292.425 -217.468
L292.664 -215.964
L292.916 -214.459
L293.185 -212.955
L293.47 -211.45
L293.774 -209.946
L294.096 -208.442
L294.437 -206.937
L294.798 -205.433
L295.178 -203.929
L295.576 -202.424
L295.99 -200.92
L296.42 -199.415
L296.863 -197.911
L297.316 -196.407
L297.776 -194.902
L298.24 -193.398
L298.706 -191.894
L299.169 -190.389
L299.626 -188.885
L300.074 -187.38
L300.511 -185.876
L300.935 -184.372
L301.344 -182.867
L301.738 -181.363
L302.116 -179.859
L302.479 -178.354
L302.829 -176.85
L303.168 -175.345
L303.499 -173.841
L303.824 -172.337
L304.148 -170.832
L304.474 -169.328
L304.807 -167.824
L305.149 -166.319
L305.506 -164.815
L305.879 -163.31
L306.273 -161.806
L306.689 -160.302
L307.13 -158.797
L307.598 -157.293
L308.093 -155.789
L308.616 -154.284
L309.169 -152.78
L309.751 -151.275
L310.362 -149.771
L311.003 -148.267
L311.671 -146.762
L312.366 -145.258
L313.086 -143.754
L313.828 -142.249
L314.588 -140.745
L315.362 -139.24
L316.142 -137.736
L316.92 -136.232
L317.686 -134.727
L318.43 -133.223
L319.138 -131.719
L319.795 -130.214
L320.387 -128.71
L320.899 -127.205
L321.314 -125.701
L321.618 -124.197
L321.797 -122.692
L321.84 -121.188
L321.738 -119.683
L321.486 -118.179
L321.081 -116.675
L320.525 -115.17
L319.822 -113.666
L318.981 -112.162
L318.014 -110.657
L316.935 -109.153
L315.761 -107.648
L314.511 -106.144
L313.203 -104.64
L311.857 -103.135
L310.493 -101.631
L309.126 -100.127
L307.774 -98.6222
L306.451 -97.1179
L305.168 -95.6135
L303.934 -94.1091
L302.756 -92.6047
L301.64 -91.1004
L300.587 -89.596
L299.598 -88.0916
L298.672 -86.5872
L297.807 -85.0828
L297.002 -83.5785
L296.251 -82.0741
L295.552 -80.5697
L294.902 -79.0653
L294.296 -77.561
z
" id="C6_0_5983712b3c"/>
    </defs>
    <g clip-path="url(#p124b8dd147)">
     <use style="fill:#bfbf00;opacity:0.1;stroke:#000000;stroke-linecap:butt;" x="0" xlink:href="#C6_0_5983712b3c" y="288.0"/>
    </g>
   </g>
   <g id="PolyCollection_8">
    <defs>
     <path d="
M282.424 -77.561
L288.36 -77.561
L288.36 -79.0653
L288.36 -80.5697
L288.36 -82.0741
L288.36 -83.5785
L288.36 -85.0828
L288.36 -86.5872
L288.36 -88.0916
L288.36 -89.596
L288.36 -91.1004
L288.36 -92.6047
L288.36 -94.1091
L288.36 -95.6135
L288.36 -97.1179
L288.36 -98.6222
L288.36 -100.127
L288.36 -101.631
L288.36 -103.135
L288.36 -104.64
L288.36 -106.144
L288.36 -107.648
L288.36 -109.153
L288.36 -110.657
L288.36 -112.162
L288.36 -113.666
L288.36 -115.17
L288.36 -116.675
L288.36 -118.179
L288.36 -119.683
L288.36 -121.188
L288.36 -122.692
L288.36 -124.197
L288.36 -125.701
L288.36 -127.205
L288.36 -128.71
L288.36 -130.214
L288.36 -131.719
L288.36 -133.223
L288.36 -134.727
L288.36 -136.232
L288.36 -137.736
L288.36 -139.24
L288.36 -140.745
L288.36 -142.249
L288.36 -143.754
L288.36 -145.258
L288.36 -146.762
L288.36 -148.267
L288.36 -149.771
L288.36 -151.275
L288.36 -152.78
L288.36 -154.284
L288.36 -155.789
L288.36 -157.293
L288.36 -158.797
L288.36 -160.302
L288.36 -161.806
L288.36 -163.31
L288.36 -164.815
L288.36 -166.319
L288.36 -167.824
L288.36 -169.328
L288.36 -170.832
L288.36 -172.337
L288.36 -173.841
L288.36 -175.345
L288.36 -176.85
L288.36 -178.354
L288.36 -179.859
L288.36 -181.363
L288.36 -182.867
L288.36 -184.372
L288.36 -185.876
L288.36 -187.38
L288.36 -188.885
L288.36 -190.389
L288.36 -191.894
L288.36 -193.398
L288.36 -194.902
L288.36 -196.407
L288.36 -197.911
L288.36 -199.415
L288.36 -200.92
L288.36 -202.424
L288.36 -203.929
L288.36 -205.433
L288.36 -206.937
L288.36 -208.442
L288.36 -209.946
L288.36 -211.45
L288.36 -212.955
L288.36 -214.459
L288.36 -215.964
L288.36 -217.468
L288.36 -218.972
L288.36 -220.477
L288.36 -221.981
L288.36 -223.485
L288.36 -224.99
L288.36 -226.494
L285.515 -226.494
L285.515 -226.494
L285.33 -224.99
L285.139 -223.485
L284.942 -221.981
L284.736 -220.477
L284.521 -218.972
L284.295 -217.468
L284.056 -215.964
L283.804 -214.459
L283.535 -212.955
L283.25 -211.45
L282.946 -209.946
L282.624 -208.442
L282.283 -206.937
L281.922 -205.433
L281.542 -203.929
L281.144 -202.424
L280.73 -200.92
L280.3 -199.415
L279.857 -197.911
L279.404 -196.407
L278.944 -194.902
L278.48 -193.398
L278.014 -191.894
L277.551 -190.389
L277.094 -188.885
L276.646 -187.38
L276.209 -185.876
L275.785 -184.372
L275.376 -182.867
L274.982 -181.363
L274.604 -179.859
L274.241 -178.354
L273.891 -176.85
L273.552 -175.345
L273.221 -173.841
L272.896 -172.337
L272.572 -170.832
L272.246 -169.328
L271.913 -167.824
L271.571 -166.319
L271.214 -164.815
L270.841 -163.31
L270.447 -161.806
L270.031 -160.302
L269.59 -158.797
L269.122 -157.293
L268.627 -155.789
L268.104 -154.284
L267.551 -152.78
L266.969 -151.275
L266.358 -149.771
L265.717 -148.267
L265.049 -146.762
L264.354 -145.258
L263.634 -143.754
L262.892 -142.249
L262.132 -140.745
L261.358 -139.24
L260.578 -137.736
L259.8 -136.232
L259.034 -134.727
L258.29 -133.223
L257.582 -131.719
L256.925 -130.214
L256.333 -128.71
L255.821 -127.205
L255.406 -125.701
L255.102 -124.197
L254.923 -122.692
L254.88 -121.188
L254.982 -119.683
L255.234 -118.179
L255.639 -116.675
L256.195 -115.17
L256.898 -113.666
L257.739 -112.162
L258.706 -110.657
L259.785 -109.153
L260.959 -107.648
L262.209 -106.144
L263.517 -104.64
L264.863 -103.135
L266.227 -101.631
L267.594 -100.127
L268.946 -98.6222
L270.269 -97.1179
L271.552 -95.6135
L272.786 -94.1091
L273.964 -92.6047
L275.08 -91.1004
L276.133 -89.596
L277.122 -88.0916
L278.048 -86.5872
L278.913 -85.0828
L279.718 -83.5785
L280.469 -82.0741
L281.168 -80.5697
L281.818 -79.0653
L282.424 -77.561
z
" id="C7_0_56fb05496f"/>
    </defs>
    <g clip-path="url(#p124b8dd147)">
     <use style="fill:#bfbf00;opacity:0.1;stroke:#000000;stroke-linecap:butt;" x="0" xlink:href="#C7_0_56fb05496f" y="288.0"/>
    </g>
   </g>
   <g id="PolyCollection_9">
    <defs>
     <path d="
M384.824 -98.7174
L355.32 -98.7174
L355.32 -99.2039
L355.32 -99.6904
L355.32 -100.177
L355.32 -100.663
L355.32 -101.15
L355.32 -101.637
L355.32 -102.123
L355.32 -102.61
L355.32 -103.096
L355.32 -103.583
L355.32 -104.069
L355.32 -104.556
L355.32 -105.042
L355.32 -105.529
L355.32 -106.015
L355.32 -106.502
L355.32 -106.988
L355.32 -107.475
L355.32 -107.961
L355.32 -108.448
L355.32 -108.934
L355.32 -109.421
L355.32 -109.907
L355.32 -110.394
L355.32 -110.88
L355.32 -111.367
L355.32 -111.854
L355.32 -112.34
L355.32 -112.827
L355.32 -113.313
L355.32 -113.8
L355.32 -114.286
L355.32 -114.773
L355.32 -115.259
L355.32 -115.746
L355.32 -116.232
L355.32 -116.719
L355.32 -117.205
L355.32 -117.692
L355.32 -118.178
L355.32 -118.665
L355.32 -119.151
L355.32 -119.638
L355.32 -120.124
L355.32 -120.611
L355.32 -121.097
L355.32 -121.584
L355.32 -122.071
L355.32 -122.557
L355.32 -123.044
L355.32 -123.53
L355.32 -124.017
L355.32 -124.503
L355.32 -124.99
L355.32 -125.476
L355.32 -125.963
L355.32 -126.449
L355.32 -126.936
L355.32 -127.422
L355.32 -127.909
L355.32 -128.395
L355.32 -128.882
L355.32 -129.368
L355.32 -129.855
L355.32 -130.341
L355.32 -130.828
L355.32 -131.314
L355.32 -131.801
L355.32 -132.288
L355.32 -132.774
L355.32 -133.261
L355.32 -133.747
L355.32 -134.234
L355.32 -134.72
L355.32 -135.207
L355.32 -135.693
L355.32 -136.18
L355.32 -136.666
L355.32 -137.153
L355.32 -137.639
L355.32 -138.126
L355.32 -138.612
L355.32 -139.099
L355.32 -139.585
L355.32 -140.072
L355.32 -140.558
L355.32 -141.045
L355.32 -141.531
L355.32 -142.018
L355.32 -142.505
L355.32 -142.991
L355.32 -143.478
L355.32 -143.964
L355.32 -144.451
L355.32 -144.937
L355.32 -145.424
L355.32 -145.91
L355.32 -146.397
L355.32 -146.883
L384.987 -146.883
L384.987 -146.883
L385.146 -146.397
L385.301 -145.91
L385.454 -145.424
L385.602 -144.937
L385.747 -144.451
L385.889 -143.964
L386.027 -143.478
L386.161 -142.991
L386.292 -142.505
L386.42 -142.018
L386.544 -141.531
L386.664 -141.045
L386.781 -140.558
L386.895 -140.072
L387.005 -139.585
L387.112 -139.099
L387.215 -138.612
L387.315 -138.126
L387.411 -137.639
L387.504 -137.153
L387.594 -136.666
L387.68 -136.18
L387.763 -135.693
L387.842 -135.207
L387.919 -134.72
L387.992 -134.234
L388.061 -133.747
L388.128 -133.261
L388.191 -132.774
L388.251 -132.288
L388.308 -131.801
L388.362 -131.314
L388.412 -130.828
L388.459 -130.341
L388.503 -129.855
L388.545 -129.368
L388.583 -128.882
L388.617 -128.395
L388.649 -127.909
L388.678 -127.422
L388.704 -126.936
L388.726 -126.449
L388.746 -125.963
L388.762 -125.476
L388.776 -124.99
L388.786 -124.503
L388.794 -124.017
L388.798 -123.53
L388.8 -123.044
L388.798 -122.557
L388.794 -122.071
L388.786 -121.584
L388.776 -121.097
L388.762 -120.611
L388.746 -120.124
L388.726 -119.638
L388.704 -119.151
L388.678 -118.665
L388.649 -118.178
L388.617 -117.692
L388.583 -117.205
L388.545 -116.719
L388.503 -116.232
L388.459 -115.746
L388.412 -115.259
L388.362 -114.773
L388.308 -114.286
L388.251 -113.8
L388.191 -113.313
L388.128 -112.827
L388.061 -112.34
L387.992 -111.854
L387.919 -111.367
L387.842 -110.88
L387.763 -110.394
L387.68 -109.907
L387.594 -109.421
L387.504 -108.934
L387.411 -108.448
L387.315 -107.961
L387.215 -107.475
L387.112 -106.988
L387.005 -106.502
L386.895 -106.015
L386.781 -105.529
L386.664 -105.042
L386.544 -104.556
L386.42 -104.069
L386.292 -103.583
L386.161 -103.096
L386.027 -102.61
L385.889 -102.123
L385.747 -101.637
L385.602 -101.15
L385.454 -100.663
L385.301 -100.177
L385.146 -99.6904
L384.987 -99.2039
L384.824 -98.7174
z
" id="C8_0_a022722d83"/>
    </defs>
    <g clip-path="url(#p124b8dd147)">
     <use style="fill:#bfbf00;opacity:0.1;stroke:#000000;stroke-linecap:butt;" x="0" xlink:href="#C8_0_a022722d83" y="288.0"/>
    </g>
   </g>
   <g id="PolyCollection_10">
    <defs>
     <path d="
M325.816 -98.7174
L355.32 -98.7174
L355.32 -99.2039
L355.32 -99.6904
L355.32 -100.177
L355.32 -100.663
L355.32 -101.15
L355.32 -101.637
L355.32 -102.123
L355.32 -102.61
L355.32 -103.096
L355.32 -103.583
L355.32 -104.069
L355.32 -104.556
L355.32 -105.042
L355.32 -105.529
L355.32 -106.015
L355.32 -106.502
L355.32 -106.988
L355.32 -107.475
L355.32 -107.961
L355.32 -108.448
L355.32 -108.934
L355.32 -109.421
L355.32 -109.907
L355.32 -110.394
L355.32 -110.88
L355.32 -111.367
L355.32 -111.854
L355.32 -112.34
L355.32 -112.827
L355.32 -113.313
L355.32 -113.8
L355.32 -114.286
L355.32 -114.773
L355.32 -115.259
L355.32 -115.746
L355.32 -116.232
L355.32 -116.719
L355.32 -117.205
L355.32 -117.692
L355.32 -118.178
L355.32 -118.665
L355.32 -119.151
L355.32 -119.638
L355.32 -120.124
L355.32 -120.611
L355.32 -121.097
L355.32 -121.584
L355.32 -122.071
L355.32 -122.557
L355.32 -123.044
L355.32 -123.53
L355.32 -124.017
L355.32 -124.503
L355.32 -124.99
L355.32 -125.476
L355.32 -125.963
L355.32 -126.449
L355.32 -126.936
L355.32 -127.422
L355.32 -127.909
L355.32 -128.395
L355.32 -128.882
L355.32 -129.368
L355.32 -129.855
L355.32 -130.341
L355.32 -130.828
L355.32 -131.314
L355.32 -131.801
L355.32 -132.288
L355.32 -132.774
L355.32 -133.261
L355.32 -133.747
L355.32 -134.234
L355.32 -134.72
L355.32 -135.207
L355.32 -135.693
L355.32 -136.18
L355.32 -136.666
L355.32 -137.153
L355.32 -137.639
L355.32 -138.126
L355.32 -138.612
L355.32 -139.099
L355.32 -139.585
L355.32 -140.072
L355.32 -140.558
L355.32 -141.045
L355.32 -141.531
L355.32 -142.018
L355.32 -142.505
L355.32 -142.991
L355.32 -143.478
L355.32 -143.964
L355.32 -144.451
L355.32 -144.937
L355.32 -145.424
L355.32 -145.91
L355.32 -146.397
L355.32 -146.883
L325.653 -146.883
L325.653 -146.883
L325.494 -146.397
L325.339 -145.91
L325.186 -145.424
L325.038 -144.937
L324.893 -144.451
L324.751 -143.964
L324.613 -143.478
L324.479 -142.991
L324.348 -142.505
L324.22 -142.018
L324.096 -141.531
L323.976 -141.045
L323.859 -140.558
L323.745 -140.072
L323.635 -139.585
L323.528 -139.099
L323.425 -138.612
L323.325 -138.126
L323.229 -137.639
L323.136 -137.153
L323.046 -136.666
L322.96 -136.18
L322.877 -135.693
L322.798 -135.207
L322.721 -134.72
L322.648 -134.234
L322.579 -133.747
L322.512 -133.261
L322.449 -132.774
L322.389 -132.288
L322.332 -131.801
L322.278 -131.314
L322.228 -130.828
L322.181 -130.341
L322.137 -129.855
L322.095 -129.368
L322.057 -128.882
L322.023 -128.395
L321.991 -127.909
L321.962 -127.422
L321.936 -126.936
L321.914 -126.449
L321.894 -125.963
L321.878 -125.476
L321.864 -124.99
L321.854 -124.503
L321.846 -124.017
L321.842 -123.53
L321.84 -123.044
L321.842 -122.557
L321.846 -122.071
L321.854 -121.584
L321.864 -121.097
L321.878 -120.611
L321.894 -120.124
L321.914 -119.638
L321.936 -119.151
L321.962 -118.665
L321.991 -118.178
L322.023 -117.692
L322.057 -117.205
L322.095 -116.719
L322.137 -116.232
L322.181 -115.746
L322.228 -115.259
L322.278 -114.773
L322.332 -114.286
L322.389 -113.8
L322.449 -113.313
L322.512 -112.827
L322.579 -112.34
L322.648 -111.854
L322.721 -111.367
L322.798 -110.88
L322.877 -110.394
L322.96 -109.907
L323.046 -109.421
L323.136 -108.934
L323.229 -108.448
L323.325 -107.961
L323.425 -107.475
L323.528 -106.988
L323.635 -106.502
L323.745 -106.015
L323.859 -105.529
L323.976 -105.042
L324.096 -104.556
L324.22 -104.069
L324.348 -103.583
L324.479 -103.096
L324.613 -102.61
L324.751 -102.123
L324.893 -101.637
L325.038 -101.15
L325.186 -100.663
L325.339 -100.177
L325.494 -99.6904
L325.653 -99.2039
L325.816 -98.7174
z
" id="C9_0_78135aaf0b"/>
    </defs>
    <g clip-path="url(#p124b8dd147)">
     <use style="fill:#bfbf00;opacity:0.1;stroke:#000000;stroke-linecap:butt;" x="0" xlink:href="#C9_0_78135aaf0b" y="288.0"/>
    </g>
   </g>
   <g id="line2d_1">
    <path clip-path="url(#p124b8dd147)" d="
M87.48 220.871
L87.48 230.212" style="fill:none;stroke:#0000ff;stroke-dasharray:6.000000,6.000000;stroke-dashoffset:0.0;stroke-linecap:butt;"/>
   </g>
   <g id="line2d_2">
    <path clip-path="url(#p124b8dd147)" d="
M87.48 207.765
L87.48 195.667" style="fill:none;stroke:#0000ff;stroke-dasharray:6.000000,6.000000;stroke-dashoffset:0.0;stroke-linecap:butt;"/>
   </g>
   <g id="line2d_3">
    <path clip-path="url(#p124b8dd147)" d="
M83.295 195.667
L91.665 195.667" style="fill:none;stroke:#000000;"/>
   </g>
   <g id="line2d_4">
    <path clip-path="url(#p124b8dd147)" d="
M83.295 230.212
L91.665 230.212" style="fill:none;stroke:#000000;"/>
   </g>
   <g id="line2d_5">
    <path clip-path="url(#p124b8dd147)" d="
M79.11 220.871
L95.85 220.871
L95.85 221.12
L91.665 211.917
L95.85 202.715
L95.85 207.765
L79.11 207.765
L79.11 202.715
L83.295 211.917
L79.11 221.12
L79.11 220.871" style="fill:none;stroke:#0000ff;"/>
   </g>
   <g id="line2d_6">
    <path clip-path="url(#p124b8dd147)" d="
M83.295 211.917
L91.665 211.917" style="fill:none;stroke:#ff0000;"/>
   </g>
   <g id="line2d_7"/>
   <g id="line2d_8"/>
   <g id="line2d_9">
    <path clip-path="url(#p124b8dd147)" d="
M154.44 215.163
L154.44 241.227" style="fill:none;stroke:#0000ff;stroke-dasharray:6.000000,6.000000;stroke-dashoffset:0.0;stroke-linecap:butt;"/>
   </g>
   <g id="line2d_10">
    <path clip-path="url(#p124b8dd147)" d="
M154.44 185.726
L154.44 151.247" style="fill:none;stroke:#0000ff;stroke-dasharray:6.000000,6.000000;stroke-dashoffset:0.0;stroke-linecap:butt;"/>
   </g>
   <g id="line2d_11">
    <path clip-path="url(#p124b8dd147)" d="
M150.255 151.247
L158.625 151.247" style="fill:none;stroke:#000000;"/>
   </g>
   <g id="line2d_12">
    <path clip-path="url(#p124b8dd147)" d="
M150.255 241.227
L158.625 241.227" style="fill:none;stroke:#000000;"/>
   </g>
   <g id="line2d_13">
    <path clip-path="url(#p124b8dd147)" d="
M146.07 215.163
L162.81 215.163
L162.81 201.917
L158.625 197.626
L162.81 193.334
L162.81 185.726
L146.07 185.726
L146.07 193.334
L150.255 197.626
L146.07 201.917
L146.07 215.163" style="fill:none;stroke:#0000ff;"/>
   </g>
   <g id="line2d_14">
    <path clip-path="url(#p124b8dd147)" d="
M150.255 197.626
L158.625 197.626" style="fill:none;stroke:#ff0000;"/>
   </g>
   <g id="line2d_15">
    <defs>
     <path d="
M-3 0
L3 0
M0 3
L0 -3" id="ma595b689da"/>
    </defs>
    <g clip-path="url(#p124b8dd147)">
     <use style="fill:#0000ff;stroke:#0000ff;stroke-linecap:butt;stroke-width:0.5;" x="154.44" xlink:href="#ma595b689da" y="124.861226819"/>
     <use style="fill:#0000ff;stroke:#0000ff;stroke-linecap:butt;stroke-width:0.5;" x="154.44" xlink:href="#ma595b689da" y="46.2382281793"/>
     <use style="fill:#0000ff;stroke:#0000ff;stroke-linecap:butt;stroke-width:0.5;" x="154.44" xlink:href="#ma595b689da" y="77.0127940891"/>
     <use style="fill:#0000ff;stroke:#0000ff;stroke-linecap:butt;stroke-width:0.5;" x="154.44" xlink:href="#ma595b689da" y="136.24269075"/>
     <use style="fill:#0000ff;stroke:#0000ff;stroke-linecap:butt;stroke-width:0.5;" x="154.44" xlink:href="#ma595b689da" y="108.786920649"/>
    </g>
   </g>
   <g id="line2d_16"/>
   <g id="line2d_17">
    <path clip-path="url(#p124b8dd147)" d="
M221.4 195.507
L221.4 228.727" style="fill:none;stroke:#0000ff;stroke-dasharray:6.000000,6.000000;stroke-dashoffset:0.0;stroke-linecap:butt;"/>
   </g>
   <g id="line2d_18">
    <path clip-path="url(#p124b8dd147)" d="
M221.4 151.954
L221.4 86.8248" style="fill:none;stroke:#0000ff;stroke-dasharray:6.000000,6.000000;stroke-dashoffset:0.0;stroke-linecap:butt;"/>
   </g>
   <g id="line2d_19">
    <path clip-path="url(#p124b8dd147)" d="
M217.215 86.8248
L225.585 86.8248" style="fill:none;stroke:#000000;"/>
   </g>
   <g id="line2d_20">
    <path clip-path="url(#p124b8dd147)" d="
M217.215 228.727
L225.585 228.727" style="fill:none;stroke:#000000;"/>
   </g>
   <g id="line2d_21">
    <path clip-path="url(#p124b8dd147)" d="
M213.03 195.507
L229.77 195.507
L229.77 181.005
L225.585 174.543
L229.77 168.082
L229.77 151.954
L213.03 151.954
L213.03 168.082
L217.215 174.543
L213.03 181.005
L213.03 195.507" style="fill:none;stroke:#0000ff;"/>
   </g>
   <g id="line2d_22">
    <path clip-path="url(#p124b8dd147)" d="
M217.215 174.543
L225.585 174.543" style="fill:none;stroke:#ff0000;"/>
   </g>
   <g id="line2d_23">
    <defs>
     <path d="
M-3 0
L3 0
M0 3
L0 -3" id="ma595b689da"/>
    </defs>
    <g clip-path="url(#p124b8dd147)">
     <use style="fill:#0000ff;stroke:#0000ff;stroke-linecap:butt;stroke-width:0.5;" x="221.4" xlink:href="#ma595b689da" y="30.6505243414"/>
     <use style="fill:#0000ff;stroke:#0000ff;stroke-linecap:butt;stroke-width:0.5;" x="221.4" xlink:href="#ma595b689da" y="84.6671963302"/>
    </g>
   </g>
   <g id="line2d_24"/>
   <g id="line2d_25">
    <path clip-path="url(#p124b8dd147)" d="
M288.36 171.445
L288.36 210.439" style="fill:none;stroke:#0000ff;stroke-dasharray:6.000000,6.000000;stroke-dashoffset:0.0;stroke-linecap:butt;"/>
   </g>
   <g id="line2d_26">
    <path clip-path="url(#p124b8dd147)" d="
M288.36 128.22
L288.36 77.5109" style="fill:none;stroke:#0000ff;stroke-dasharray:6.000000,6.000000;stroke-dashoffset:0.0;stroke-linecap:butt;"/>
   </g>
   <g id="line2d_27">
    <path clip-path="url(#p124b8dd147)" d="
M284.175 77.5109
L292.545 77.5109" style="fill:none;stroke:#000000;"/>
   </g>
   <g id="line2d_28">
    <path clip-path="url(#p124b8dd147)" d="
M284.175 210.439
L292.545 210.439" style="fill:none;stroke:#000000;"/>
   </g>
   <g id="line2d_29">
    <path clip-path="url(#p124b8dd147)" d="
M279.99 171.445
L296.73 171.445
L296.73 168.138
L292.545 158.343
L296.73 148.547
L296.73 128.22
L279.99 128.22
L279.99 148.547
L284.175 158.343
L279.99 168.138
L279.99 171.445" style="fill:none;stroke:#0000ff;"/>
   </g>
   <g id="line2d_30">
    <path clip-path="url(#p124b8dd147)" d="
M284.175 158.343
L292.545 158.343" style="fill:none;stroke:#ff0000;"/>
   </g>
   <g id="line2d_31">
    <defs>
     <path d="
M-3 0
L3 0
M0 3
L0 -3" id="ma595b689da"/>
    </defs>
    <g clip-path="url(#p124b8dd147)">
     <use style="fill:#0000ff;stroke:#0000ff;stroke-linecap:butt;stroke-width:0.5;" x="288.36" xlink:href="#ma595b689da" y="60.0014326394"/>
    </g>
   </g>
   <g id="line2d_32"/>
   <g id="line2d_33">
    <path clip-path="url(#p124b8dd147)" d="
M355.32 177.12
L355.32 189.283" style="fill:none;stroke:#0000ff;stroke-dasharray:6.000000,6.000000;stroke-dashoffset:0.0;stroke-linecap:butt;"/>
   </g>
   <g id="line2d_34">
    <path clip-path="url(#p124b8dd147)" d="
M355.32 152.793
L355.32 140.63" style="fill:none;stroke:#0000ff;stroke-dasharray:6.000000,6.000000;stroke-dashoffset:0.0;stroke-linecap:butt;"/>
   </g>
   <g id="line2d_35">
    <path clip-path="url(#p124b8dd147)" d="
M351.135 140.63
L359.505 140.63" style="fill:none;stroke:#000000;"/>
   </g>
   <g id="line2d_36">
    <path clip-path="url(#p124b8dd147)" d="
M351.135 189.283
L359.505 189.283" style="fill:none;stroke:#000000;"/>
   </g>
   <g id="line2d_37">
    <path clip-path="url(#p124b8dd147)" d="
M346.95 177.12
L363.69 177.12
L363.69 191.962
L359.505 164.956
L363.69 137.951
L363.69 152.793
L346.95 152.793
L346.95 137.951
L351.135 164.956
L346.95 191.962
L346.95 177.12" style="fill:none;stroke:#0000ff;"/>
   </g>
   <g id="line2d_38">
    <path clip-path="url(#p124b8dd147)" d="
M351.135 164.956
L359.505 164.956" style="fill:none;stroke:#ff0000;"/>
   </g>
   <g id="line2d_39"/>
   <g id="line2d_40"/>
   <g id="matplotlib.axis_1">
    <g id="xtick_1">
     <g id="line2d_41">
      <defs>
       <path d="
M0 0
L0 -4" id="m86e7a81177"/>
      </defs>
      <g>
       <use style="stroke:#000000;stroke-linecap:butt;stroke-width:0.5;" x="87.48" xlink:href="#m86e7a81177" y="252.0"/>
      </g>
     </g>
     <g id="line2d_42">
      <defs>
       <path d="
M0 0
L0 4" id="mc85e8f60fb"/>
      </defs>
      <g>
       <use style="stroke:#000000;stroke-linecap:butt;stroke-width:0.5;" x="87.48" xlink:href="#mc85e8f60fb" y="28.8"/>
      </g>
     </g>
     <g id="text_1">
      <!-- g1 (n=5) -->
      <defs>
       <path id="BitstreamVeraSans-Roman-20"/>
       <path d="
M12.4062 8.29688
L28.5156 8.29688
L28.5156 63.9219
L10.9844 60.4062
L10.9844 69.3906
L28.4219 72.9062
L38.2812 72.9062
L38.2812 8.29688
L54.3906 8.29688
L54.3906 0
L12.4062 0
z
" id="BitstreamVeraSans-Roman-31"/>
       <path d="
M10.7969 72.9062
L49.5156 72.9062
L49.5156 64.5938
L19.8281 64.5938
L19.8281 46.7344
Q21.9688 47.4688 24.1094 47.8281
Q26.2656 48.1875 28.4219 48.1875
Q40.625 48.1875 47.75 41.5
Q54.8906 34.8125 54.8906 23.3906
Q54.8906 11.625 47.5625 5.09375
Q40.2344 -1.42188 26.9062 -1.42188
Q22.3125 -1.42188 17.5469 -0.640625
Q12.7969 0.140625 7.71875 1.70312
L7.71875 11.625
Q12.1094 9.23438 16.7969 8.0625
Q21.4844 6.89062 26.7031 6.89062
Q35.1562 6.89062 40.0781 11.3281
Q45.0156 15.7656 45.0156 23.3906
Q45.0156 31 40.0781 35.4375
Q35.1562 39.8906 26.7031 39.8906
Q22.75 39.8906 18.8125 39.0156
Q14.8906 38.1406 10.7969 36.2812
z
" id="BitstreamVeraSans-Roman-35"/>
       <path d="
M54.8906 33.0156
L54.8906 0
L45.9062 0
L45.9062 32.7188
Q45.9062 40.4844 42.875 44.3281
Q39.8438 48.1875 33.7969 48.1875
Q26.5156 48.1875 22.3125 43.5469
Q18.1094 38.9219 18.1094 30.9062
L18.1094 0
L9.07812 0
L9.07812 54.6875
L18.1094 54.6875
L18.1094 46.1875
Q21.3438 51.125 25.7031 53.5625
Q30.0781 56 35.7969 56
Q45.2188 56 50.0469 50.1719
Q54.8906 44.3438 54.8906 33.0156" id="BitstreamVeraSans-Roman-6e"/>
       <path d="
M31 75.875
Q24.4688 64.6562 21.2812 53.6562
Q18.1094 42.6719 18.1094 31.3906
Q18.1094 20.125 21.3125 9.0625
Q24.5156 -2 31 -13.1875
L23.1875 -13.1875
Q15.875 -1.70312 12.2344 9.375
Q8.59375 20.4531 8.59375 31.3906
Q8.59375 42.2812 12.2031 53.3125
Q15.8281 64.3594 23.1875 75.875
z
" id="BitstreamVeraSans-Roman-28"/>
       <path d="
M8.01562 75.875
L15.8281 75.875
Q23.1406 64.3594 26.7812 53.3125
Q30.4219 42.2812 30.4219 31.3906
Q30.4219 20.4531 26.7812 9.375
Q23.1406 -1.70312 15.8281 -13.1875
L8.01562 -13.1875
Q14.5 -2 17.7031 9.0625
Q20.9062 20.125 20.9062 31.3906
Q20.9062 42.6719 17.7031 53.6562
Q14.5 64.6562 8.01562 75.875" id="BitstreamVeraSans-Roman-29"/>
       <path d="
M10.5938 45.4062
L73.1875 45.4062
L73.1875 37.2031
L10.5938 37.2031
z

M10.5938 25.4844
L73.1875 25.4844
L73.1875 17.1875
L10.5938 17.1875
z
" id="BitstreamVeraSans-Roman-3d"/>
       <path d="
M45.4062 27.9844
Q45.4062 37.75 41.375 43.1094
Q37.3594 48.4844 30.0781 48.4844
Q22.8594 48.4844 18.8281 43.1094
Q14.7969 37.75 14.7969 27.9844
Q14.7969 18.2656 18.8281 12.8906
Q22.8594 7.51562 30.0781 7.51562
Q37.3594 7.51562 41.375 12.8906
Q45.4062 18.2656 45.4062 27.9844
M54.3906 6.78125
Q54.3906 -7.17188 48.1875 -13.9844
Q42 -20.7969 29.2031 -20.7969
Q24.4688 -20.7969 20.2656 -20.0938
Q16.0625 -19.3906 12.1094 -17.9219
L12.1094 -9.1875
Q16.0625 -11.3281 19.9219 -12.3438
Q23.7812 -13.375 27.7812 -13.375
Q36.625 -13.375 41.0156 -8.76562
Q45.4062 -4.15625 45.4062 5.17188
L45.4062 9.625
Q42.625 4.78125 38.2812 2.39062
Q33.9375 0 27.875 0
Q17.8281 0 11.6719 7.65625
Q5.51562 15.3281 5.51562 27.9844
Q5.51562 40.6719 11.6719 48.3281
Q17.8281 56 27.875 56
Q33.9375 56 38.2812 53.6094
Q42.625 51.2188 45.4062 46.3906
L45.4062 54.6875
L54.3906 54.6875
z
" id="BitstreamVeraSans-Roman-67"/>
      </defs>
      <g transform="translate(65.52375 263.5875)scale(0.1 -0.1)">
       <use xlink:href="#BitstreamVeraSans-Roman-67"/>
       <use x="63.4765625" xlink:href="#BitstreamVeraSans-Roman-31"/>
       <use x="127.099609375" xlink:href="#BitstreamVeraSans-Roman-20"/>
       <use x="158.88671875" xlink:href="#BitstreamVeraSans-Roman-28"/>
       <use x="197.900390625" xlink:href="#BitstreamVeraSans-Roman-6e"/>
       <use x="261.279296875" xlink:href="#BitstreamVeraSans-Roman-3d"/>
       <use x="345.068359375" xlink:href="#BitstreamVeraSans-Roman-35"/>
       <use x="408.69140625" xlink:href="#BitstreamVeraSans-Roman-29"/>
      </g>
     </g>
    </g>
    <g id="xtick_2">
     <g id="line2d_43">
      <defs>
       <path d="
M0 0
L0 -4" id="m86e7a81177"/>
      </defs>
      <g>
       <use style="stroke:#000000;stroke-linecap:butt;stroke-width:0.5;" x="154.44" xlink:href="#m86e7a81177" y="252.0"/>
      </g>
     </g>
     <g id="line2d_44">
      <defs>
       <path d="
M0 0
L0 4" id="mc85e8f60fb"/>
      </defs>
      <g>
       <use style="stroke:#000000;stroke-linecap:butt;stroke-width:0.5;" x="154.44" xlink:href="#mc85e8f60fb" y="28.8"/>
      </g>
     </g>
     <g id="text_2">
      <!-- g2 (n=116) -->
      <defs>
       <path d="
M19.1875 8.29688
L53.6094 8.29688
L53.6094 0
L7.32812 0
L7.32812 8.29688
Q12.9375 14.1094 22.625 23.8906
Q32.3281 33.6875 34.8125 36.5312
Q39.5469 41.8438 41.4219 45.5312
Q43.3125 49.2188 43.3125 52.7812
Q43.3125 58.5938 39.2344 62.25
Q35.1562 65.9219 28.6094 65.9219
Q23.9688 65.9219 18.8125 64.3125
Q13.6719 62.7031 7.8125 59.4219
L7.8125 69.3906
Q13.7656 71.7812 18.9375 73
Q24.125 74.2188 28.4219 74.2188
Q39.75 74.2188 46.4844 68.5469
Q53.2188 62.8906 53.2188 53.4219
Q53.2188 48.9219 51.5312 44.8906
Q49.8594 40.875 45.4062 35.4062
Q44.1875 33.9844 37.6406 27.2188
Q31.1094 20.4531 19.1875 8.29688" id="BitstreamVeraSans-Roman-32"/>
       <path d="
M33.0156 40.375
Q26.375 40.375 22.4844 35.8281
Q18.6094 31.2969 18.6094 23.3906
Q18.6094 15.5312 22.4844 10.9531
Q26.375 6.39062 33.0156 6.39062
Q39.6562 6.39062 43.5312 10.9531
Q47.4062 15.5312 47.4062 23.3906
Q47.4062 31.2969 43.5312 35.8281
Q39.6562 40.375 33.0156 40.375
M52.5938 71.2969
L52.5938 62.3125
Q48.875 64.0625 45.0938 64.9844
Q41.3125 65.9219 37.5938 65.9219
Q27.8281 65.9219 22.6719 59.3281
Q17.5312 52.7344 16.7969 39.4062
Q19.6719 43.6562 24.0156 45.9219
Q28.375 48.1875 33.5938 48.1875
Q44.5781 48.1875 50.9531 41.5156
Q57.3281 34.8594 57.3281 23.3906
Q57.3281 12.1562 50.6875 5.35938
Q44.0469 -1.42188 33.0156 -1.42188
Q20.3594 -1.42188 13.6719 8.26562
Q6.98438 17.9688 6.98438 36.375
Q6.98438 53.6562 15.1875 63.9375
Q23.3906 74.2188 37.2031 74.2188
Q40.9219 74.2188 44.7031 73.4844
Q48.4844 72.75 52.5938 71.2969" id="BitstreamVeraSans-Roman-36"/>
      </defs>
      <g transform="translate(126.12125 263.5875)scale(0.1 -0.1)">
       <use xlink:href="#BitstreamVeraSans-Roman-67"/>
       <use x="63.4765625" xlink:href="#BitstreamVeraSans-Roman-32"/>
       <use x="127.099609375" xlink:href="#BitstreamVeraSans-Roman-20"/>
       <use x="158.88671875" xlink:href="#BitstreamVeraSans-Roman-28"/>
       <use x="197.900390625" xlink:href="#BitstreamVeraSans-Roman-6e"/>
       <use x="261.279296875" xlink:href="#BitstreamVeraSans-Roman-3d"/>
       <use x="345.068359375" xlink:href="#BitstreamVeraSans-Roman-31"/>
       <use x="408.69140625" xlink:href="#BitstreamVeraSans-Roman-31"/>
       <use x="472.314453125" xlink:href="#BitstreamVeraSans-Roman-36"/>
       <use x="535.9375" xlink:href="#BitstreamVeraSans-Roman-29"/>
      </g>
     </g>
    </g>
    <g id="xtick_3">
     <g id="line2d_45">
      <defs>
       <path d="
M0 0
L0 -4" id="m86e7a81177"/>
      </defs>
      <g>
       <use style="stroke:#000000;stroke-linecap:butt;stroke-width:0.5;" x="221.4" xlink:href="#m86e7a81177" y="252.0"/>
      </g>
     </g>
     <g id="line2d_46">
      <defs>
       <path d="
M0 0
L0 4" id="mc85e8f60fb"/>
      </defs>
      <g>
       <use style="stroke:#000000;stroke-linecap:butt;stroke-width:0.5;" x="221.4" xlink:href="#mc85e8f60fb" y="28.8"/>
      </g>
     </g>
     <g id="text_3">
      <!-- g3 (n=112) -->
      <defs>
       <path d="
M40.5781 39.3125
Q47.6562 37.7969 51.625 33
Q55.6094 28.2188 55.6094 21.1875
Q55.6094 10.4062 48.1875 4.48438
Q40.7656 -1.42188 27.0938 -1.42188
Q22.5156 -1.42188 17.6562 -0.515625
Q12.7969 0.390625 7.625 2.20312
L7.625 11.7188
Q11.7188 9.32812 16.5938 8.10938
Q21.4844 6.89062 26.8125 6.89062
Q36.0781 6.89062 40.9375 10.5469
Q45.7969 14.2031 45.7969 21.1875
Q45.7969 27.6406 41.2812 31.2656
Q36.7656 34.9062 28.7188 34.9062
L20.2188 34.9062
L20.2188 43.0156
L29.1094 43.0156
Q36.375 43.0156 40.2344 45.9219
Q44.0938 48.8281 44.0938 54.2969
Q44.0938 59.9062 40.1094 62.9062
Q36.1406 65.9219 28.7188 65.9219
Q24.6562 65.9219 20.0156 65.0312
Q15.375 64.1562 9.8125 62.3125
L9.8125 71.0938
Q15.4375 72.6562 20.3438 73.4375
Q25.25 74.2188 29.5938 74.2188
Q40.8281 74.2188 47.3594 69.1094
Q53.9062 64.0156 53.9062 55.3281
Q53.9062 49.2656 50.4375 45.0938
Q46.9688 40.9219 40.5781 39.3125" id="BitstreamVeraSans-Roman-33"/>
      </defs>
      <g transform="translate(193.08125 263.5875)scale(0.1 -0.1)">
       <use xlink:href="#BitstreamVeraSans-Roman-67"/>
       <use x="63.4765625" xlink:href="#BitstreamVeraSans-Roman-33"/>
       <use x="127.099609375" xlink:href="#BitstreamVeraSans-Roman-20"/>
       <use x="158.88671875" xlink:href="#BitstreamVeraSans-Roman-28"/>
       <use x="197.900390625" xlink:href="#BitstreamVeraSans-Roman-6e"/>
       <use x="261.279296875" xlink:href="#BitstreamVeraSans-Roman-3d"/>
       <use x="345.068359375" xlink:href="#BitstreamVeraSans-Roman-31"/>
       <use x="408.69140625" xlink:href="#BitstreamVeraSans-Roman-31"/>
       <use x="472.314453125" xlink:href="#BitstreamVeraSans-Roman-32"/>
       <use x="535.9375" xlink:href="#BitstreamVeraSans-Roman-29"/>
      </g>
     </g>
    </g>
    <g id="xtick_4">
     <g id="line2d_47">
      <defs>
       <path d="
M0 0
L0 -4" id="m86e7a81177"/>
      </defs>
      <g>
       <use style="stroke:#000000;stroke-linecap:butt;stroke-width:0.5;" x="288.36" xlink:href="#m86e7a81177" y="252.0"/>
      </g>
     </g>
     <g id="line2d_48">
      <defs>
       <path d="
M0 0
L0 4" id="mc85e8f60fb"/>
      </defs>
      <g>
       <use style="stroke:#000000;stroke-linecap:butt;stroke-width:0.5;" x="288.36" xlink:href="#mc85e8f60fb" y="28.8"/>
      </g>
     </g>
     <g id="text_4">
      <!-- g4 (n=48) -->
      <defs>
       <path d="
M31.7812 34.625
Q24.75 34.625 20.7188 30.8594
Q16.7031 27.0938 16.7031 20.5156
Q16.7031 13.9219 20.7188 10.1562
Q24.75 6.39062 31.7812 6.39062
Q38.8125 6.39062 42.8594 10.1719
Q46.9219 13.9688 46.9219 20.5156
Q46.9219 27.0938 42.8906 30.8594
Q38.875 34.625 31.7812 34.625
M21.9219 38.8125
Q15.5781 40.375 12.0312 44.7188
Q8.5 49.0781 8.5 55.3281
Q8.5 64.0625 14.7188 69.1406
Q20.9531 74.2188 31.7812 74.2188
Q42.6719 74.2188 48.875 69.1406
Q55.0781 64.0625 55.0781 55.3281
Q55.0781 49.0781 51.5312 44.7188
Q48 40.375 41.7031 38.8125
Q48.8281 37.1562 52.7969 32.3125
Q56.7812 27.4844 56.7812 20.5156
Q56.7812 9.90625 50.3125 4.23438
Q43.8438 -1.42188 31.7812 -1.42188
Q19.7344 -1.42188 13.25 4.23438
Q6.78125 9.90625 6.78125 20.5156
Q6.78125 27.4844 10.7812 32.3125
Q14.7969 37.1562 21.9219 38.8125
M18.3125 54.3906
Q18.3125 48.7344 21.8438 45.5625
Q25.3906 42.3906 31.7812 42.3906
Q38.1406 42.3906 41.7188 45.5625
Q45.3125 48.7344 45.3125 54.3906
Q45.3125 60.0625 41.7188 63.2344
Q38.1406 66.4062 31.7812 66.4062
Q25.3906 66.4062 21.8438 63.2344
Q18.3125 60.0625 18.3125 54.3906" id="BitstreamVeraSans-Roman-38"/>
       <path d="
M37.7969 64.3125
L12.8906 25.3906
L37.7969 25.3906
z

M35.2031 72.9062
L47.6094 72.9062
L47.6094 25.3906
L58.0156 25.3906
L58.0156 17.1875
L47.6094 17.1875
L47.6094 0
L37.7969 0
L37.7969 17.1875
L4.89062 17.1875
L4.89062 26.7031
z
" id="BitstreamVeraSans-Roman-34"/>
      </defs>
      <g transform="translate(263.2225 263.5875)scale(0.1 -0.1)">
       <use xlink:href="#BitstreamVeraSans-Roman-67"/>
       <use x="63.4765625" xlink:href="#BitstreamVeraSans-Roman-34"/>
       <use x="127.099609375" xlink:href="#BitstreamVeraSans-Roman-20"/>
       <use x="158.88671875" xlink:href="#BitstreamVeraSans-Roman-28"/>
       <use x="197.900390625" xlink:href="#BitstreamVeraSans-Roman-6e"/>
       <use x="261.279296875" xlink:href="#BitstreamVeraSans-Roman-3d"/>
       <use x="345.068359375" xlink:href="#BitstreamVeraSans-Roman-34"/>
       <use x="408.69140625" xlink:href="#BitstreamVeraSans-Roman-38"/>
       <use x="472.314453125" xlink:href="#BitstreamVeraSans-Roman-29"/>
      </g>
     </g>
    </g>
    <g id="xtick_5">
     <g id="line2d_49">
      <defs>
       <path d="
M0 0
L0 -4" id="m86e7a81177"/>
      </defs>
      <g>
       <use style="stroke:#000000;stroke-linecap:butt;stroke-width:0.5;" x="355.32" xlink:href="#m86e7a81177" y="252.0"/>
      </g>
     </g>
     <g id="line2d_50">
      <defs>
       <path d="
M0 0
L0 4" id="mc85e8f60fb"/>
      </defs>
      <g>
       <use style="stroke:#000000;stroke-linecap:butt;stroke-width:0.5;" x="355.32" xlink:href="#mc85e8f60fb" y="28.8"/>
      </g>
     </g>
     <g id="text_5">
      <!-- gx (n=2) -->
      <defs>
       <path d="
M54.8906 54.6875
L35.1094 28.0781
L55.9062 0
L45.3125 0
L29.3906 21.4844
L13.4844 0
L2.875 0
L24.125 28.6094
L4.6875 54.6875
L15.2812 54.6875
L29.7812 35.2031
L44.2812 54.6875
z
" id="BitstreamVeraSans-Roman-78"/>
      </defs>
      <g transform="translate(333.585625 263.5875)scale(0.1 -0.1)">
       <use xlink:href="#BitstreamVeraSans-Roman-67"/>
       <use x="63.4765625" xlink:href="#BitstreamVeraSans-Roman-78"/>
       <use x="122.65625" xlink:href="#BitstreamVeraSans-Roman-20"/>
       <use x="154.443359375" xlink:href="#BitstreamVeraSans-Roman-28"/>
       <use x="193.45703125" xlink:href="#BitstreamVeraSans-Roman-6e"/>
       <use x="256.8359375" xlink:href="#BitstreamVeraSans-Roman-3d"/>
       <use x="340.625" xlink:href="#BitstreamVeraSans-Roman-32"/>
       <use x="404.248046875" xlink:href="#BitstreamVeraSans-Roman-29"/>
      </g>
     </g>
    </g>
    <g id="text_6">
     <!-- tumor_grade -->
     <defs>
      <path d="
M34.2812 27.4844
Q23.3906 27.4844 19.1875 25
Q14.9844 22.5156 14.9844 16.5
Q14.9844 11.7188 18.1406 8.90625
Q21.2969 6.10938 26.7031 6.10938
Q34.1875 6.10938 38.7031 11.4062
Q43.2188 16.7031 43.2188 25.4844
L43.2188 27.4844
z

M52.2031 31.2031
L52.2031 0
L43.2188 0
L43.2188 8.29688
Q40.1406 3.32812 35.5469 0.953125
Q30.9531 -1.42188 24.3125 -1.42188
Q15.9219 -1.42188 10.9531 3.29688
Q6 8.01562 6 15.9219
Q6 25.1406 12.1719 29.8281
Q18.3594 34.5156 30.6094 34.5156
L43.2188 34.5156
L43.2188 35.4062
Q43.2188 41.6094 39.1406 45
Q35.0625 48.3906 27.6875 48.3906
Q23 48.3906 18.5469 47.2656
Q14.1094 46.1406 10.0156 43.8906
L10.0156 52.2031
Q14.9375 54.1094 19.5781 55.0469
Q24.2188 56 28.6094 56
Q40.4844 56 46.3438 49.8438
Q52.2031 43.7031 52.2031 31.2031" id="BitstreamVeraSans-Roman-61"/>
      <path d="
M50.9844 -16.6094
L50.9844 -23.5781
L-0.984375 -23.5781
L-0.984375 -16.6094
z
" id="BitstreamVeraSans-Roman-5f"/>
      <path d="
M52 44.1875
Q55.375 50.25 60.0625 53.125
Q64.75 56 71.0938 56
Q79.6406 56 84.2812 50.0156
Q88.9219 44.0469 88.9219 33.0156
L88.9219 0
L79.8906 0
L79.8906 32.7188
Q79.8906 40.5781 77.0938 44.375
Q74.3125 48.1875 68.6094 48.1875
Q61.625 48.1875 57.5625 43.5469
Q53.5156 38.9219 53.5156 30.9062
L53.5156 0
L44.4844 0
L44.4844 32.7188
Q44.4844 40.625 41.7031 44.4062
Q38.9219 48.1875 33.1094 48.1875
Q26.2188 48.1875 22.1562 43.5312
Q18.1094 38.875 18.1094 30.9062
L18.1094 0
L9.07812 0
L9.07812 54.6875
L18.1094 54.6875
L18.1094 46.1875
Q21.1875 51.2188 25.4844 53.6094
Q29.7812 56 35.6875 56
Q41.6562 56 45.8281 52.9688
Q50 49.9531 52 44.1875" id="BitstreamVeraSans-Roman-6d"/>
      <path d="
M30.6094 48.3906
Q23.3906 48.3906 19.1875 42.75
Q14.9844 37.1094 14.9844 27.2969
Q14.9844 17.4844 19.1562 11.8438
Q23.3438 6.20312 30.6094 6.20312
Q37.7969 6.20312 41.9844 11.8594
Q46.1875 17.5312 46.1875 27.2969
Q46.1875 37.0156 41.9844 42.7031
Q37.7969 48.3906 30.6094 48.3906
M30.6094 56
Q42.3281 56 49.0156 48.375
Q55.7188 40.7656 55.7188 27.2969
Q55.7188 13.875 49.0156 6.21875
Q42.3281 -1.42188 30.6094 -1.42188
Q18.8438 -1.42188 12.1719 6.21875
Q5.51562 13.875 5.51562 27.2969
Q5.51562 40.7656 12.1719 48.375
Q18.8438 56 30.6094 56" id="BitstreamVeraSans-Roman-6f"/>
      <path d="
M56.2031 29.5938
L56.2031 25.2031
L14.8906 25.2031
Q15.4844 15.9219 20.4844 11.0625
Q25.4844 6.20312 34.4219 6.20312
Q39.5938 6.20312 44.4531 7.46875
Q49.3125 8.73438 54.1094 11.2812
L54.1094 2.78125
Q49.2656 0.734375 44.1875 -0.34375
Q39.1094 -1.42188 33.8906 -1.42188
Q20.7969 -1.42188 13.1562 6.1875
Q5.51562 13.8125 5.51562 26.8125
Q5.51562 40.2344 12.7656 48.1094
Q20.0156 56 32.3281 56
Q43.3594 56 49.7812 48.8906
Q56.2031 41.7969 56.2031 29.5938
M47.2188 32.2344
Q47.125 39.5938 43.0938 43.9844
Q39.0625 48.3906 32.4219 48.3906
Q24.9062 48.3906 20.3906 44.1406
Q15.875 39.8906 15.1875 32.1719
z
" id="BitstreamVeraSans-Roman-65"/>
      <path d="
M45.4062 46.3906
L45.4062 75.9844
L54.3906 75.9844
L54.3906 0
L45.4062 0
L45.4062 8.20312
Q42.5781 3.32812 38.25 0.953125
Q33.9375 -1.42188 27.875 -1.42188
Q17.9688 -1.42188 11.7344 6.48438
Q5.51562 14.4062 5.51562 27.2969
Q5.51562 40.1875 11.7344 48.0938
Q17.9688 56 27.875 56
Q33.9375 56 38.25 53.625
Q42.5781 51.2656 45.4062 46.3906
M14.7969 27.2969
Q14.7969 17.3906 18.875 11.75
Q22.9531 6.10938 30.0781 6.10938
Q37.2031 6.10938 41.2969 11.75
Q45.4062 17.3906 45.4062 27.2969
Q45.4062 37.2031 41.2969 42.8438
Q37.2031 48.4844 30.0781 48.4844
Q22.9531 48.4844 18.875 42.8438
Q14.7969 37.2031 14.7969 27.2969" id="BitstreamVeraSans-Roman-64"/>
      <path d="
M18.3125 70.2188
L18.3125 54.6875
L36.8125 54.6875
L36.8125 47.7031
L18.3125 47.7031
L18.3125 18.0156
Q18.3125 11.3281 20.1406 9.42188
Q21.9688 7.51562 27.5938 7.51562
L36.8125 7.51562
L36.8125 0
L27.5938 0
Q17.1875 0 13.2344 3.875
Q9.28125 7.76562 9.28125 18.0156
L9.28125 47.7031
L2.6875 47.7031
L2.6875 54.6875
L9.28125 54.6875
L9.28125 70.2188
z
" id="BitstreamVeraSans-Roman-74"/>
      <path d="
M8.5 21.5781
L8.5 54.6875
L17.4844 54.6875
L17.4844 21.9219
Q17.4844 14.1562 20.5 10.2656
Q23.5312 6.39062 29.5938 6.39062
Q36.8594 6.39062 41.0781 11.0312
Q45.3125 15.6719 45.3125 23.6875
L45.3125 54.6875
L54.2969 54.6875
L54.2969 0
L45.3125 0
L45.3125 8.40625
Q42.0469 3.42188 37.7188 1
Q33.4062 -1.42188 27.6875 -1.42188
Q18.2656 -1.42188 13.375 4.4375
Q8.5 10.2969 8.5 21.5781" id="BitstreamVeraSans-Roman-75"/>
      <path d="
M41.1094 46.2969
Q39.5938 47.1719 37.8125 47.5781
Q36.0312 48 33.8906 48
Q26.2656 48 22.1875 43.0469
Q18.1094 38.0938 18.1094 28.8125
L18.1094 0
L9.07812 0
L9.07812 54.6875
L18.1094 54.6875
L18.1094 46.1875
Q20.9531 51.1719 25.4844 53.5781
Q30.0312 56 36.5312 56
Q37.4531 56 38.5781 55.875
Q39.7031 55.7656 41.0625 55.5156
z
" id="BitstreamVeraSans-Roman-72"/>
     </defs>
     <g transform="translate(189.6421875 278.265625)scale(0.1 -0.1)">
      <use xlink:href="#BitstreamVeraSans-Roman-74"/>
      <use x="39.208984375" xlink:href="#BitstreamVeraSans-Roman-75"/>
      <use x="102.587890625" xlink:href="#BitstreamVeraSans-Roman-6d"/>
      <use x="200.0" xlink:href="#BitstreamVeraSans-Roman-6f"/>
      <use x="261.181640625" xlink:href="#BitstreamVeraSans-Roman-72"/>
      <use x="302.294921875" xlink:href="#BitstreamVeraSans-Roman-5f"/>
      <use x="352.294921875" xlink:href="#BitstreamVeraSans-Roman-67"/>
      <use x="415.771484375" xlink:href="#BitstreamVeraSans-Roman-72"/>
      <use x="456.884765625" xlink:href="#BitstreamVeraSans-Roman-61"/>
      <use x="518.1640625" xlink:href="#BitstreamVeraSans-Roman-64"/>
      <use x="581.640625" xlink:href="#BitstreamVeraSans-Roman-65"/>
     </g>
    </g>
   </g>
   <g id="matplotlib.axis_2">
    <g id="ytick_1">
     <g id="line2d_51">
      <defs>
       <path d="
M0 0
L4 0" id="mb795e4ea07"/>
      </defs>
      <g>
       <use style="stroke:#000000;stroke-linecap:butt;stroke-width:0.5;" x="54.0" xlink:href="#mb795e4ea07" y="252.0"/>
      </g>
     </g>
     <g id="line2d_52">
      <defs>
       <path d="
M0 0
L-4 0" id="m3c011a5dc0"/>
      </defs>
      <g>
       <use style="stroke:#000000;stroke-linecap:butt;stroke-width:0.5;" x="388.8" xlink:href="#m3c011a5dc0" y="252.0"/>
      </g>
     </g>
     <g id="text_7">
      <!-- 2 -->
      <defs>
       <path d="
M10.5938 35.5
L73.1875 35.5
L73.1875 27.2031
L10.5938 27.2031
z
" id="BitstreamVeraSans-Roman-2212"/>
      </defs>
      <g transform="translate(37.31875 255.7109375)scale(0.1 -0.1)">
       <use xlink:href="#BitstreamVeraSans-Roman-2212"/>
       <use x="83.7890625" xlink:href="#BitstreamVeraSans-Roman-32"/>
      </g>
     </g>
    </g>
    <g id="ytick_2">
     <g id="line2d_53">
      <defs>
       <path d="
M0 0
L4 0" id="mb795e4ea07"/>
      </defs>
      <g>
       <use style="stroke:#000000;stroke-linecap:butt;stroke-width:0.5;" x="54.0" xlink:href="#mb795e4ea07" y="214.8"/>
      </g>
     </g>
     <g id="line2d_54">
      <defs>
       <path d="
M0 0
L-4 0" id="m3c011a5dc0"/>
      </defs>
      <g>
       <use style="stroke:#000000;stroke-linecap:butt;stroke-width:0.5;" x="388.8" xlink:href="#m3c011a5dc0" y="214.8"/>
      </g>
     </g>
     <g id="text_8">
      <!-- 1 -->
      <g transform="translate(37.240625 218.4453125)scale(0.1 -0.1)">
       <use xlink:href="#BitstreamVeraSans-Roman-2212"/>
       <use x="83.7890625" xlink:href="#BitstreamVeraSans-Roman-31"/>
      </g>
     </g>
    </g>
    <g id="ytick_3">
     <g id="line2d_55">
      <defs>
       <path d="
M0 0
L4 0" id="mb795e4ea07"/>
      </defs>
      <g>
       <use style="stroke:#000000;stroke-linecap:butt;stroke-width:0.5;" x="54.0" xlink:href="#mb795e4ea07" y="177.6"/>
      </g>
     </g>
     <g id="line2d_56">
      <defs>
       <path d="
M0 0
L-4 0" id="m3c011a5dc0"/>
      </defs>
      <g>
       <use style="stroke:#000000;stroke-linecap:butt;stroke-width:0.5;" x="388.8" xlink:href="#m3c011a5dc0" y="177.6"/>
      </g>
     </g>
     <g id="text_9">
      <!-- 0 -->
      <defs>
       <path d="
M31.7812 66.4062
Q24.1719 66.4062 20.3281 58.9062
Q16.5 51.4219 16.5 36.375
Q16.5 21.3906 20.3281 13.8906
Q24.1719 6.39062 31.7812 6.39062
Q39.4531 6.39062 43.2812 13.8906
Q47.125 21.3906 47.125 36.375
Q47.125 51.4219 43.2812 58.9062
Q39.4531 66.4062 31.7812 66.4062
M31.7812 74.2188
Q44.0469 74.2188 50.5156 64.5156
Q56.9844 54.8281 56.9844 36.375
Q56.9844 17.9688 50.5156 8.26562
Q44.0469 -1.42188 31.7812 -1.42188
Q19.5312 -1.42188 13.0625 8.26562
Q6.59375 17.9688 6.59375 36.375
Q6.59375 54.8281 13.0625 64.5156
Q19.5312 74.2188 31.7812 74.2188" id="BitstreamVeraSans-Roman-30"/>
      </defs>
      <g transform="translate(44.9609375 181.23984375)scale(0.1 -0.1)">
       <use xlink:href="#BitstreamVeraSans-Roman-30"/>
      </g>
     </g>
    </g>
    <g id="ytick_4">
     <g id="line2d_57">
      <defs>
       <path d="
M0 0
L4 0" id="mb795e4ea07"/>
      </defs>
      <g>
       <use style="stroke:#000000;stroke-linecap:butt;stroke-width:0.5;" x="54.0" xlink:href="#mb795e4ea07" y="140.4"/>
      </g>
     </g>
     <g id="line2d_58">
      <defs>
       <path d="
M0 0
L-4 0" id="m3c011a5dc0"/>
      </defs>
      <g>
       <use style="stroke:#000000;stroke-linecap:butt;stroke-width:0.5;" x="388.8" xlink:href="#m3c011a5dc0" y="140.4"/>
      </g>
     </g>
     <g id="text_10">
      <!-- 1 -->
      <g transform="translate(45.659375 144.0453125)scale(0.1 -0.1)">
       <use xlink:href="#BitstreamVeraSans-Roman-31"/>
      </g>
     </g>
    </g>
    <g id="ytick_5">
     <g id="line2d_59">
      <defs>
       <path d="
M0 0
L4 0" id="mb795e4ea07"/>
      </defs>
      <g>
       <use style="stroke:#000000;stroke-linecap:butt;stroke-width:0.5;" x="54.0" xlink:href="#mb795e4ea07" y="103.2"/>
      </g>
     </g>
     <g id="line2d_60">
      <defs>
       <path d="
M0 0
L-4 0" id="m3c011a5dc0"/>
      </defs>
      <g>
       <use style="stroke:#000000;stroke-linecap:butt;stroke-width:0.5;" x="388.8" xlink:href="#m3c011a5dc0" y="103.2"/>
      </g>
     </g>
     <g id="text_11">
      <!-- 2 -->
      <g transform="translate(45.371875 106.9109375)scale(0.1 -0.1)">
       <use xlink:href="#BitstreamVeraSans-Roman-32"/>
      </g>
     </g>
    </g>
    <g id="ytick_6">
     <g id="line2d_61">
      <defs>
       <path d="
M0 0
L4 0" id="mb795e4ea07"/>
      </defs>
      <g>
       <use style="stroke:#000000;stroke-linecap:butt;stroke-width:0.5;" x="54.0" xlink:href="#mb795e4ea07" y="66.0"/>
      </g>
     </g>
     <g id="line2d_62">
      <defs>
       <path d="
M0 0
L-4 0" id="m3c011a5dc0"/>
      </defs>
      <g>
       <use style="stroke:#000000;stroke-linecap:butt;stroke-width:0.5;" x="388.8" xlink:href="#m3c011a5dc0" y="66.0"/>
      </g>
     </g>
     <g id="text_12">
      <!-- 3 -->
      <g transform="translate(45.2015625 69.63984375)scale(0.1 -0.1)">
       <use xlink:href="#BitstreamVeraSans-Roman-33"/>
      </g>
     </g>
    </g>
    <g id="ytick_7">
     <g id="line2d_63">
      <defs>
       <path d="
M0 0
L4 0" id="mb795e4ea07"/>
      </defs>
      <g>
       <use style="stroke:#000000;stroke-linecap:butt;stroke-width:0.5;" x="54.0" xlink:href="#mb795e4ea07" y="28.8"/>
      </g>
     </g>
     <g id="line2d_64">
      <defs>
       <path d="
M0 0
L-4 0" id="m3c011a5dc0"/>
      </defs>
      <g>
       <use style="stroke:#000000;stroke-linecap:butt;stroke-width:0.5;" x="388.8" xlink:href="#m3c011a5dc0" y="28.8"/>
      </g>
     </g>
     <g id="text_13">
      <!-- 4 -->
      <g transform="translate(44.6875 32.4453125)scale(0.1 -0.1)">
       <use xlink:href="#BitstreamVeraSans-Roman-34"/>
      </g>
     </g>
    </g>
    <g id="text_14">
     <!-- Eigen-gene Loading -->
     <defs>
      <path d="
M9.8125 72.9062
L19.6719 72.9062
L19.6719 8.29688
L55.1719 8.29688
L55.1719 0
L9.8125 0
z
" id="BitstreamVeraSans-Roman-4c"/>
      <path d="
M9.8125 72.9062
L55.9062 72.9062
L55.9062 64.5938
L19.6719 64.5938
L19.6719 43.0156
L54.3906 43.0156
L54.3906 34.7188
L19.6719 34.7188
L19.6719 8.29688
L56.7812 8.29688
L56.7812 0
L9.8125 0
z
" id="BitstreamVeraSans-Roman-45"/>
      <path d="
M9.42188 54.6875
L18.4062 54.6875
L18.4062 0
L9.42188 0
z

M9.42188 75.9844
L18.4062 75.9844
L18.4062 64.5938
L9.42188 64.5938
z
" id="BitstreamVeraSans-Roman-69"/>
      <path d="
M4.89062 31.3906
L31.2031 31.3906
L31.2031 23.3906
L4.89062 23.3906
z
" id="BitstreamVeraSans-Roman-2d"/>
     </defs>
     <g transform="translate(32.240625 187.45078125)rotate(-90.0)scale(0.1 -0.1)">
      <use xlink:href="#BitstreamVeraSans-Roman-45"/>
      <use x="63.18359375" xlink:href="#BitstreamVeraSans-Roman-69"/>
      <use x="90.966796875" xlink:href="#BitstreamVeraSans-Roman-67"/>
      <use x="154.443359375" xlink:href="#BitstreamVeraSans-Roman-65"/>
      <use x="215.966796875" xlink:href="#BitstreamVeraSans-Roman-6e"/>
      <use x="279.345703125" xlink:href="#BitstreamVeraSans-Roman-2d"/>
      <use x="315.4296875" xlink:href="#BitstreamVeraSans-Roman-67"/>
      <use x="378.90625" xlink:href="#BitstreamVeraSans-Roman-65"/>
      <use x="440.4296875" xlink:href="#BitstreamVeraSans-Roman-6e"/>
      <use x="503.80859375" xlink:href="#BitstreamVeraSans-Roman-65"/>
      <use x="565.33203125" xlink:href="#BitstreamVeraSans-Roman-20"/>
      <use x="597.119140625" xlink:href="#BitstreamVeraSans-Roman-4c"/>
      <use x="651.08203125" xlink:href="#BitstreamVeraSans-Roman-6f"/>
      <use x="712.263671875" xlink:href="#BitstreamVeraSans-Roman-61"/>
      <use x="773.54296875" xlink:href="#BitstreamVeraSans-Roman-64"/>
      <use x="837.01953125" xlink:href="#BitstreamVeraSans-Roman-69"/>
      <use x="864.802734375" xlink:href="#BitstreamVeraSans-Roman-6e"/>
      <use x="928.181640625" xlink:href="#BitstreamVeraSans-Roman-67"/>
     </g>
    </g>
   </g>
   <g id="patch_3">
    <path d="
M54 28.8
L388.8 28.8" style="fill:none;stroke:#000000;"/>
   </g>
   <g id="patch_4">
    <path d="
M388.8 252
L388.8 28.8" style="fill:none;stroke:#000000;"/>
   </g>
   <g id="patch_5">
    <path d="
M54 252
L388.8 252" style="fill:none;stroke:#000000;"/>
   </g>
   <g id="patch_6">
    <path d="
M54 252
L54 28.8" style="fill:none;stroke:#000000;"/>
   </g>
   <g id="text_15">
    <!-- tumor_grade x KEGG_TAURINE_AND_HYPOTAURINE_METABOLISM -->
    <defs>
     <path d="
M19.6719 64.7969
L19.6719 37.4062
L32.0781 37.4062
Q38.9688 37.4062 42.7188 40.9688
Q46.4844 44.5312 46.4844 51.125
Q46.4844 57.6719 42.7188 61.2344
Q38.9688 64.7969 32.0781 64.7969
z

M9.8125 72.9062
L32.0781 72.9062
Q44.3438 72.9062 50.6094 67.3594
Q56.8906 61.8125 56.8906 51.125
Q56.8906 40.3281 50.6094 34.8125
Q44.3438 29.2969 32.0781 29.2969
L19.6719 29.2969
L19.6719 0
L9.8125 0
z
" id="BitstreamVeraSans-Roman-50"/>
     <path d="
M9.8125 72.9062
L23.0938 72.9062
L55.4219 11.9219
L55.4219 72.9062
L64.9844 72.9062
L64.9844 0
L51.7031 0
L19.3906 60.9844
L19.3906 0
L9.8125 0
z
" id="BitstreamVeraSans-Roman-4e"/>
     <path d="
M9.8125 72.9062
L24.5156 72.9062
L43.1094 23.2969
L61.8125 72.9062
L76.5156 72.9062
L76.5156 0
L66.8906 0
L66.8906 64.0156
L48.0938 14.0156
L38.1875 14.0156
L19.3906 64.0156
L19.3906 0
L9.8125 0
z
" id="BitstreamVeraSans-Roman-4d"/>
     <path d="
M53.5156 70.5156
L53.5156 60.8906
Q47.9062 63.5781 42.9219 64.8906
Q37.9375 66.2188 33.2969 66.2188
Q25.25 66.2188 20.875 63.0938
Q16.5 59.9688 16.5 54.2031
Q16.5 49.3594 19.4062 46.8906
Q22.3125 44.4375 30.4219 42.9219
L36.375 41.7031
Q47.4062 39.5938 52.6562 34.2969
Q57.9062 29 57.9062 20.125
Q57.9062 9.51562 50.7969 4.04688
Q43.7031 -1.42188 29.9844 -1.42188
Q24.8125 -1.42188 18.9688 -0.25
Q13.1406 0.921875 6.89062 3.21875
L6.89062 13.375
Q12.8906 10.0156 18.6562 8.29688
Q24.4219 6.59375 29.9844 6.59375
Q38.4219 6.59375 43.0156 9.90625
Q47.6094 13.2344 47.6094 19.3906
Q47.6094 24.75 44.3125 27.7812
Q41.0156 30.8125 33.5 32.3281
L27.4844 33.5
Q16.4531 35.6875 11.5156 40.375
Q6.59375 45.0625 6.59375 53.4219
Q6.59375 63.0938 13.4062 68.6562
Q20.2188 74.2188 32.1719 74.2188
Q37.3125 74.2188 42.625 73.2812
Q47.9531 72.3594 53.5156 70.5156" id="BitstreamVeraSans-Roman-53"/>
     <path d="
M9.8125 72.9062
L19.6719 72.9062
L19.6719 42.0938
L52.3906 72.9062
L65.0938 72.9062
L28.9062 38.9219
L67.6719 0
L54.6875 0
L19.6719 35.1094
L19.6719 0
L9.8125 0
z
" id="BitstreamVeraSans-Roman-4b"/>
     <path d="
M39.4062 66.2188
Q28.6562 66.2188 22.3281 58.2031
Q16.0156 50.2031 16.0156 36.375
Q16.0156 22.6094 22.3281 14.5938
Q28.6562 6.59375 39.4062 6.59375
Q50.1406 6.59375 56.4219 14.5938
Q62.7031 22.6094 62.7031 36.375
Q62.7031 50.2031 56.4219 58.2031
Q50.1406 66.2188 39.4062 66.2188
M39.4062 74.2188
Q54.7344 74.2188 63.9062 63.9375
Q73.0938 53.6562 73.0938 36.375
Q73.0938 19.1406 63.9062 8.85938
Q54.7344 -1.42188 39.4062 -1.42188
Q24.0312 -1.42188 14.8125 8.82812
Q5.60938 19.0938 5.60938 36.375
Q5.60938 53.6562 14.8125 63.9375
Q24.0312 74.2188 39.4062 74.2188" id="BitstreamVeraSans-Roman-4f"/>
     <path d="
M19.6719 34.8125
L19.6719 8.10938
L35.5 8.10938
Q43.4531 8.10938 47.2812 11.4062
Q51.125 14.7031 51.125 21.4844
Q51.125 28.3281 47.2812 31.5625
Q43.4531 34.8125 35.5 34.8125
z

M19.6719 64.7969
L19.6719 42.8281
L34.2812 42.8281
Q41.5 42.8281 45.0312 45.5312
Q48.5781 48.25 48.5781 53.8125
Q48.5781 59.3281 45.0312 62.0625
Q41.5 64.7969 34.2812 64.7969
z

M9.8125 72.9062
L35.0156 72.9062
Q46.2969 72.9062 52.3906 68.2188
Q58.5 63.5312 58.5 54.8906
Q58.5 48.1875 55.375 44.2344
Q52.25 40.2812 46.1875 39.3125
Q53.4688 37.75 57.5 32.7812
Q61.5312 27.8281 61.5312 20.4062
Q61.5312 10.6406 54.8906 5.3125
Q48.25 0 35.9844 0
L9.8125 0
z
" id="BitstreamVeraSans-Roman-42"/>
     <path d="
M59.5156 10.4062
L59.5156 29.9844
L43.4062 29.9844
L43.4062 38.0938
L69.2812 38.0938
L69.2812 6.78125
Q63.5781 2.73438 56.6875 0.65625
Q49.8125 -1.42188 42 -1.42188
Q24.9062 -1.42188 15.25 8.5625
Q5.60938 18.5625 5.60938 36.375
Q5.60938 54.25 15.25 64.2344
Q24.9062 74.2188 42 74.2188
Q49.125 74.2188 55.5469 72.4531
Q61.9688 70.7031 67.3906 67.2812
L67.3906 56.7812
Q61.9219 61.4219 55.7656 63.7656
Q49.6094 66.1094 42.8281 66.1094
Q29.4375 66.1094 22.7188 58.6406
Q16.0156 51.1719 16.0156 36.375
Q16.0156 21.625 22.7188 14.1562
Q29.4375 6.6875 42.8281 6.6875
Q48.0469 6.6875 52.1406 7.59375
Q56.25 8.5 59.5156 10.4062" id="BitstreamVeraSans-Roman-47"/>
     <path d="
M44.3906 34.1875
Q47.5625 33.1094 50.5625 29.5938
Q53.5625 26.0781 56.5938 19.9219
L66.6094 0
L56 0
L46.6875 18.7031
Q43.0625 26.0312 39.6719 28.4219
Q36.2812 30.8125 30.4219 30.8125
L19.6719 30.8125
L19.6719 0
L9.8125 0
L9.8125 72.9062
L32.0781 72.9062
Q44.5781 72.9062 50.7344 67.6719
Q56.8906 62.4531 56.8906 51.9062
Q56.8906 45.0156 53.6875 40.4688
Q50.4844 35.9375 44.3906 34.1875
M19.6719 64.7969
L19.6719 38.9219
L32.0781 38.9219
Q39.2031 38.9219 42.8438 42.2188
Q46.4844 45.5156 46.4844 51.9062
Q46.4844 58.2969 42.8438 61.5469
Q39.2031 64.7969 32.0781 64.7969
z
" id="BitstreamVeraSans-Roman-52"/>
     <path d="
M19.6719 64.7969
L19.6719 8.10938
L31.5938 8.10938
Q46.6875 8.10938 53.6875 14.9375
Q60.6875 21.7812 60.6875 36.5312
Q60.6875 51.1719 53.6875 57.9844
Q46.6875 64.7969 31.5938 64.7969
z

M9.8125 72.9062
L30.0781 72.9062
Q51.2656 72.9062 61.1719 64.0938
Q71.0938 55.2812 71.0938 36.5312
Q71.0938 17.6719 61.125 8.82812
Q51.1719 0 30.0781 0
L9.8125 0
z
" id="BitstreamVeraSans-Roman-44"/>
     <path d="
M-0.296875 72.9062
L61.375 72.9062
L61.375 64.5938
L35.5 64.5938
L35.5 0
L25.5938 0
L25.5938 64.5938
L-0.296875 64.5938
z
" id="BitstreamVeraSans-Roman-54"/>
     <path d="
M8.6875 72.9062
L18.6094 72.9062
L18.6094 28.6094
Q18.6094 16.8906 22.8438 11.7344
Q27.0938 6.59375 36.625 6.59375
Q46.0938 6.59375 50.3438 11.7344
Q54.5938 16.8906 54.5938 28.6094
L54.5938 72.9062
L64.5 72.9062
L64.5 27.3906
Q64.5 13.1406 57.4375 5.85938
Q50.3906 -1.42188 36.625 -1.42188
Q22.7969 -1.42188 15.7344 5.85938
Q8.6875 13.1406 8.6875 27.3906
z
" id="BitstreamVeraSans-Roman-55"/>
     <path d="
M34.1875 63.1875
L20.7969 26.9062
L47.6094 26.9062
z

M28.6094 72.9062
L39.7969 72.9062
L67.5781 0
L57.3281 0
L50.6875 18.7031
L17.8281 18.7031
L11.1875 0
L0.78125 0
z
" id="BitstreamVeraSans-Roman-41"/>
     <path d="
M-0.203125 72.9062
L10.4062 72.9062
L30.6094 42.9219
L50.6875 72.9062
L61.2812 72.9062
L35.5 34.7188
L35.5 0
L25.5938 0
L25.5938 34.7188
z
" id="BitstreamVeraSans-Roman-59"/>
     <path d="
M9.8125 72.9062
L19.6719 72.9062
L19.6719 0
L9.8125 0
z
" id="BitstreamVeraSans-Roman-49"/>
     <path d="
M9.8125 72.9062
L19.6719 72.9062
L19.6719 43.0156
L55.5156 43.0156
L55.5156 72.9062
L65.375 72.9062
L65.375 0
L55.5156 0
L55.5156 34.7188
L19.6719 34.7188
L19.6719 0
L9.8125 0
z
" id="BitstreamVeraSans-Roman-48"/>
    </defs>
    <g transform="translate(26.3409375 23.8)scale(0.12 -0.12)">
     <use xlink:href="#BitstreamVeraSans-Roman-74"/>
     <use x="39.208984375" xlink:href="#BitstreamVeraSans-Roman-75"/>
     <use x="102.587890625" xlink:href="#BitstreamVeraSans-Roman-6d"/>
     <use x="200.0" xlink:href="#BitstreamVeraSans-Roman-6f"/>
     <use x="261.181640625" xlink:href="#BitstreamVeraSans-Roman-72"/>
     <use x="302.294921875" xlink:href="#BitstreamVeraSans-Roman-5f"/>
     <use x="352.294921875" xlink:href="#BitstreamVeraSans-Roman-67"/>
     <use x="415.771484375" xlink:href="#BitstreamVeraSans-Roman-72"/>
     <use x="456.884765625" xlink:href="#BitstreamVeraSans-Roman-61"/>
     <use x="518.1640625" xlink:href="#BitstreamVeraSans-Roman-64"/>
     <use x="581.640625" xlink:href="#BitstreamVeraSans-Roman-65"/>
     <use x="643.1640625" xlink:href="#BitstreamVeraSans-Roman-20"/>
     <use x="674.951171875" xlink:href="#BitstreamVeraSans-Roman-78"/>
     <use x="734.130859375" xlink:href="#BitstreamVeraSans-Roman-20"/>
     <use x="765.91796875" xlink:href="#BitstreamVeraSans-Roman-4b"/>
     <use x="831.494140625" xlink:href="#BitstreamVeraSans-Roman-45"/>
     <use x="894.677734375" xlink:href="#BitstreamVeraSans-Roman-47"/>
     <use x="972.16796875" xlink:href="#BitstreamVeraSans-Roman-47"/>
     <use x="1049.65820312" xlink:href="#BitstreamVeraSans-Roman-5f"/>
     <use x="1099.65820312" xlink:href="#BitstreamVeraSans-Roman-54"/>
     <use x="1152.9921875" xlink:href="#BitstreamVeraSans-Roman-41"/>
     <use x="1221.40039062" xlink:href="#BitstreamVeraSans-Roman-55"/>
     <use x="1294.59375" xlink:href="#BitstreamVeraSans-Roman-52"/>
     <use x="1364.07617188" xlink:href="#BitstreamVeraSans-Roman-49"/>
     <use x="1393.56835938" xlink:href="#BitstreamVeraSans-Roman-4e"/>
     <use x="1468.37304688" xlink:href="#BitstreamVeraSans-Roman-45"/>
     <use x="1531.55664062" xlink:href="#BitstreamVeraSans-Roman-5f"/>
     <use x="1581.55664062" xlink:href="#BitstreamVeraSans-Roman-41"/>
     <use x="1649.96484375" xlink:href="#BitstreamVeraSans-Roman-4e"/>
     <use x="1724.76953125" xlink:href="#BitstreamVeraSans-Roman-44"/>
     <use x="1801.77148438" xlink:href="#BitstreamVeraSans-Roman-5f"/>
     <use x="1851.77148438" xlink:href="#BitstreamVeraSans-Roman-48"/>
     <use x="1926.96679688" xlink:href="#BitstreamVeraSans-Roman-59"/>
     <use x="1988.05078125" xlink:href="#BitstreamVeraSans-Roman-50"/>
     <use x="2048.35351562" xlink:href="#BitstreamVeraSans-Roman-4f"/>
     <use x="2127.06445312" xlink:href="#BitstreamVeraSans-Roman-54"/>
     <use x="2180.3984375" xlink:href="#BitstreamVeraSans-Roman-41"/>
     <use x="2248.80664062" xlink:href="#BitstreamVeraSans-Roman-55"/>
     <use x="2322.0" xlink:href="#BitstreamVeraSans-Roman-52"/>
     <use x="2391.48242188" xlink:href="#BitstreamVeraSans-Roman-49"/>
     <use x="2420.97460938" xlink:href="#BitstreamVeraSans-Roman-4e"/>
     <use x="2495.77929688" xlink:href="#BitstreamVeraSans-Roman-45"/>
     <use x="2558.96289062" xlink:href="#BitstreamVeraSans-Roman-5f"/>
     <use x="2608.96289062" xlink:href="#BitstreamVeraSans-Roman-4d"/>
     <use x="2695.2421875" xlink:href="#BitstreamVeraSans-Roman-45"/>
     <use x="2758.42578125" xlink:href="#BitstreamVeraSans-Roman-54"/>
     <use x="2811.75976562" xlink:href="#BitstreamVeraSans-Roman-41"/>
     <use x="2880.16796875" xlink:href="#BitstreamVeraSans-Roman-42"/>
     <use x="2947.02148438" xlink:href="#BitstreamVeraSans-Roman-4f"/>
     <use x="3025.73242188" xlink:href="#BitstreamVeraSans-Roman-4c"/>
     <use x="3081.4453125" xlink:href="#BitstreamVeraSans-Roman-49"/>
     <use x="3110.9375" xlink:href="#BitstreamVeraSans-Roman-53"/>
     <use x="3174.4140625" xlink:href="#BitstreamVeraSans-Roman-4d"/>
    </g>
   </g>
  </g>
 </g>
 <defs>
  <clipPath id="p124b8dd147">
   <rect height="223.2" width="334.8" x="54.0" y="28.8"/>
  </clipPath>
 </defs>
</svg>
