<?xml version="1.0" encoding="utf-8" standalone="no"?>
<!DOCTYPE svg PUBLIC "-//W3C//DTD SVG 1.1//EN"
  "http://www.w3.org/Graphics/SVG/1.1/DTD/svg11.dtd">
<!-- Created with matplotlib (http://matplotlib.sourceforge.net/) -->
<svg height="144pt" version="1.1" viewBox="0 0 578 144" width="578pt" xmlns="http://www.w3.org/2000/svg" xmlns:xlink="http://www.w3.org/1999/xlink">
 <defs>
  <style type="text/css">
*{stroke-linecap:square;stroke-linejoin:round;}
  </style>
 </defs>
 <g id="figure_1">
  <g id="patch_1">
   <path d="
M0 144
L578.4 144
L578.4 0
L0 0
z
" style="fill:none;opacity:0.0;"/>
  </g>
  <g id="axes_1">
   <g id="patch_2">
    <path d="
M43.425 129.6
L567.6 129.6
L567.6 14.4
L43.425 14.4
z
" style="fill:none;opacity:0.0;"/>
   </g>
   <g id="patch_3">
    <path clip-path="url(#pc344a39ea2)" d="
M51.0217 129.6
L73.812 129.6
L73.812 118.08
L51.0217 118.08
z
" style="fill:#ffa500;opacity:0.7;stroke:#000000;"/>
   </g>
   <g id="patch_4">
    <path clip-path="url(#pc344a39ea2)" d="
M81.4087 129.6
L104.199 129.6
L104.199 118.08
L81.4087 118.08
z
" style="fill:#ffa500;opacity:0.7;stroke:#000000;"/>
   </g>
   <g id="patch_5">
    <path clip-path="url(#pc344a39ea2)" d="
M111.796 129.6
L134.586 129.6
L134.586 118.08
L111.796 118.08
z
" style="fill:#ffa500;opacity:0.7;stroke:#000000;"/>
   </g>
   <g id="patch_6">
    <path clip-path="url(#pc344a39ea2)" d="
M142.183 129.6
L164.973 129.6
L164.973 118.08
L142.183 118.08
z
" style="fill:#ffa500;opacity:0.7;stroke:#000000;"/>
   </g>
   <g id="patch_7">
    <path clip-path="url(#pc344a39ea2)" d="
M172.57 129.6
L195.36 129.6
L195.36 118.08
L172.57 118.08
z
" style="fill:#ffa500;opacity:0.7;stroke:#000000;"/>
   </g>
   <g id="patch_8">
    <path clip-path="url(#pc344a39ea2)" d="
M202.957 129.6
L225.747 129.6
L225.747 118.08
L202.957 118.08
z
" style="fill:#ffa500;opacity:0.7;stroke:#000000;"/>
   </g>
   <g id="patch_9">
    <path clip-path="url(#pc344a39ea2)" d="
M233.343 129.6
L256.134 129.6
L256.134 118.08
L233.343 118.08
z
" style="fill:#ffa500;opacity:0.7;stroke:#000000;"/>
   </g>
   <g id="patch_10">
    <path clip-path="url(#pc344a39ea2)" d="
M263.73 129.6
L286.521 129.6
L286.521 118.08
L263.73 118.08
z
" style="fill:#ffa500;opacity:0.7;stroke:#000000;"/>
   </g>
   <g id="patch_11">
    <path clip-path="url(#pc344a39ea2)" d="
M294.117 129.6
L316.908 129.6
L316.908 118.08
L294.117 118.08
z
" style="fill:#ffa500;opacity:0.7;stroke:#000000;"/>
   </g>
   <g id="patch_12">
    <path clip-path="url(#pc344a39ea2)" d="
M324.504 129.6
L347.295 129.6
L347.295 118.08
L324.504 118.08
z
" style="fill:#ffa500;opacity:0.7;stroke:#000000;"/>
   </g>
   <g id="patch_13">
    <path clip-path="url(#pc344a39ea2)" d="
M354.891 129.6
L377.682 129.6
L377.682 118.08
L354.891 118.08
z
" style="fill:#ffa500;opacity:0.7;stroke:#000000;"/>
   </g>
   <g id="patch_14">
    <path clip-path="url(#pc344a39ea2)" d="
M385.278 129.6
L408.068 129.6
L408.068 118.08
L385.278 118.08
z
" style="fill:#ffa500;opacity:0.7;stroke:#000000;"/>
   </g>
   <g id="patch_15">
    <path clip-path="url(#pc344a39ea2)" d="
M415.665 129.6
L438.455 129.6
L438.455 118.08
L415.665 118.08
z
" style="fill:#ffa500;opacity:0.7;stroke:#000000;"/>
   </g>
   <g id="patch_16">
    <path clip-path="url(#pc344a39ea2)" d="
M446.052 129.6
L468.842 129.6
L468.842 106.56
L446.052 106.56
z
" style="fill:#ffa500;opacity:0.7;stroke:#000000;"/>
   </g>
   <g id="patch_17">
    <path clip-path="url(#pc344a39ea2)" d="
M476.439 129.6
L499.229 129.6
L499.229 106.56
L476.439 106.56
z
" style="fill:#ffa500;opacity:0.7;stroke:#000000;"/>
   </g>
   <g id="patch_18">
    <path clip-path="url(#pc344a39ea2)" d="
M506.826 129.6
L529.616 129.6
L529.616 95.04
L506.826 95.04
z
" style="fill:#ffa500;opacity:0.7;stroke:#000000;"/>
   </g>
   <g id="patch_19">
    <path clip-path="url(#pc344a39ea2)" d="
M537.213 129.6
L560.003 129.6
L560.003 14.4
L537.213 14.4
z
" style="fill:#ff0000;opacity:0.7;stroke:#000000;"/>
   </g>
   <g id="line2d_1">
    <path clip-path="url(#pc344a39ea2)" d="
M43.425 129.6
L567.6 129.6" style="fill:none;stroke:#000000;stroke-dasharray:6.000000,6.000000;stroke-dashoffset:0.0;stroke-linecap:butt;"/>
   </g>
   <g id="matplotlib.axis_1">
    <g id="xtick_1">
     <g id="line2d_2">
      <path clip-path="url(#pc344a39ea2)" d="
M62.4168 129.6
L62.4168 14.4" style="fill:none;stroke:#000000;stroke-dasharray:1.000000,3.000000;stroke-dashoffset:0.0;stroke-linecap:butt;stroke-width:0.5;"/>
     </g>
     <g id="line2d_3">
      <defs>
       <path d="
M0 0
L0 -4" id="mc479045913"/>
      </defs>
      <g>
       <use style="stroke:#000000;stroke-linecap:butt;stroke-width:0.5;" x="62.4168478261" xlink:href="#mc479045913" y="129.6"/>
      </g>
     </g>
     <g id="line2d_4">
      <defs>
       <path d="
M0 0
L0 4" id="m5b5440acce"/>
      </defs>
      <g>
       <use style="stroke:#000000;stroke-linecap:butt;stroke-width:0.5;" x="62.4168478261" xlink:href="#m5b5440acce" y="14.4"/>
      </g>
     </g>
     <g id="text_1">
      <!-- MYC -->
      <defs>
       <path d="
M-0.203125 72.9062
L10.4062 72.9062
L30.6094 42.9219
L50.6875 72.9062
L61.2812 72.9062
L35.5 34.7188
L35.5 0
L25.5938 0
L25.5938 34.7188
z
" id="BitstreamVeraSans-Roman-59"/>
       <path d="
M9.8125 72.9062
L24.5156 72.9062
L43.1094 23.2969
L61.8125 72.9062
L76.5156 72.9062
L76.5156 0
L66.8906 0
L66.8906 64.0156
L48.0938 14.0156
L38.1875 14.0156
L19.3906 64.0156
L19.3906 0
L9.8125 0
z
" id="BitstreamVeraSans-Roman-4d"/>
       <path d="
M64.4062 67.2812
L64.4062 56.8906
Q59.4219 61.5312 53.7812 63.8125
Q48.1406 66.1094 41.7969 66.1094
Q29.2969 66.1094 22.6562 58.4688
Q16.0156 50.8281 16.0156 36.375
Q16.0156 21.9688 22.6562 14.3281
Q29.2969 6.6875 41.7969 6.6875
Q48.1406 6.6875 53.7812 8.98438
Q59.4219 11.2812 64.4062 15.9219
L64.4062 5.60938
Q59.2344 2.09375 53.4375 0.328125
Q47.6562 -1.42188 41.2188 -1.42188
Q24.6562 -1.42188 15.125 8.70312
Q5.60938 18.8438 5.60938 36.375
Q5.60938 53.9531 15.125 64.0781
Q24.6562 74.2188 41.2188 74.2188
Q47.75 74.2188 53.5312 72.4844
Q59.3281 70.75 64.4062 67.2812" id="BitstreamVeraSans-Roman-43"/>
      </defs>
      <g transform="translate(69.9809103261 121.795625)rotate(-90.0)scale(0.2 -0.2)">
       <use xlink:href="#BitstreamVeraSans-Roman-4d"/>
       <use x="86.279296875" xlink:href="#BitstreamVeraSans-Roman-59"/>
       <use x="141.86328125" xlink:href="#BitstreamVeraSans-Roman-43"/>
      </g>
     </g>
    </g>
    <g id="xtick_2">
     <g id="line2d_5">
      <path clip-path="url(#pc344a39ea2)" d="
M92.8038 129.6
L92.8038 14.4" style="fill:none;stroke:#000000;stroke-dasharray:1.000000,3.000000;stroke-dashoffset:0.0;stroke-linecap:butt;stroke-width:0.5;"/>
     </g>
     <g id="line2d_6">
      <defs>
       <path d="
M0 0
L0 -4" id="mc479045913"/>
      </defs>
      <g>
       <use style="stroke:#000000;stroke-linecap:butt;stroke-width:0.5;" x="92.8038043478" xlink:href="#mc479045913" y="129.6"/>
      </g>
     </g>
     <g id="line2d_7">
      <defs>
       <path d="
M0 0
L0 4" id="m5b5440acce"/>
      </defs>
      <g>
       <use style="stroke:#000000;stroke-linecap:butt;stroke-width:0.5;" x="92.8038043478" xlink:href="#m5b5440acce" y="14.4"/>
      </g>
     </g>
     <g id="text_2">
      <!-- SFRP5 -->
      <defs>
       <path d="
M19.6719 64.7969
L19.6719 37.4062
L32.0781 37.4062
Q38.9688 37.4062 42.7188 40.9688
Q46.4844 44.5312 46.4844 51.125
Q46.4844 57.6719 42.7188 61.2344
Q38.9688 64.7969 32.0781 64.7969
z

M9.8125 72.9062
L32.0781 72.9062
Q44.3438 72.9062 50.6094 67.3594
Q56.8906 61.8125 56.8906 51.125
Q56.8906 40.3281 50.6094 34.8125
Q44.3438 29.2969 32.0781 29.2969
L19.6719 29.2969
L19.6719 0
L9.8125 0
z
" id="BitstreamVeraSans-Roman-50"/>
       <path d="
M9.8125 72.9062
L51.7031 72.9062
L51.7031 64.5938
L19.6719 64.5938
L19.6719 43.1094
L48.5781 43.1094
L48.5781 34.8125
L19.6719 34.8125
L19.6719 0
L9.8125 0
z
" id="BitstreamVeraSans-Roman-46"/>
       <path d="
M44.3906 34.1875
Q47.5625 33.1094 50.5625 29.5938
Q53.5625 26.0781 56.5938 19.9219
L66.6094 0
L56 0
L46.6875 18.7031
Q43.0625 26.0312 39.6719 28.4219
Q36.2812 30.8125 30.4219 30.8125
L19.6719 30.8125
L19.6719 0
L9.8125 0
L9.8125 72.9062
L32.0781 72.9062
Q44.5781 72.9062 50.7344 67.6719
Q56.8906 62.4531 56.8906 51.9062
Q56.8906 45.0156 53.6875 40.4688
Q50.4844 35.9375 44.3906 34.1875
M19.6719 64.7969
L19.6719 38.9219
L32.0781 38.9219
Q39.2031 38.9219 42.8438 42.2188
Q46.4844 45.5156 46.4844 51.9062
Q46.4844 58.2969 42.8438 61.5469
Q39.2031 64.7969 32.0781 64.7969
z
" id="BitstreamVeraSans-Roman-52"/>
       <path d="
M53.5156 70.5156
L53.5156 60.8906
Q47.9062 63.5781 42.9219 64.8906
Q37.9375 66.2188 33.2969 66.2188
Q25.25 66.2188 20.875 63.0938
Q16.5 59.9688 16.5 54.2031
Q16.5 49.3594 19.4062 46.8906
Q22.3125 44.4375 30.4219 42.9219
L36.375 41.7031
Q47.4062 39.5938 52.6562 34.2969
Q57.9062 29 57.9062 20.125
Q57.9062 9.51562 50.7969 4.04688
Q43.7031 -1.42188 29.9844 -1.42188
Q24.8125 -1.42188 18.9688 -0.25
Q13.1406 0.921875 6.89062 3.21875
L6.89062 13.375
Q12.8906 10.0156 18.6562 8.29688
Q24.4219 6.59375 29.9844 6.59375
Q38.4219 6.59375 43.0156 9.90625
Q47.6094 13.2344 47.6094 19.3906
Q47.6094 24.75 44.3125 27.7812
Q41.0156 30.8125 33.5 32.3281
L27.4844 33.5
Q16.4531 35.6875 11.5156 40.375
Q6.59375 45.0625 6.59375 53.4219
Q6.59375 63.0938 13.4062 68.6562
Q20.2188 74.2188 32.1719 74.2188
Q37.3125 74.2188 42.625 73.2812
Q47.9531 72.3594 53.5156 70.5156" id="BitstreamVeraSans-Roman-53"/>
       <path d="
M10.7969 72.9062
L49.5156 72.9062
L49.5156 64.5938
L19.8281 64.5938
L19.8281 46.7344
Q21.9688 47.4688 24.1094 47.8281
Q26.2656 48.1875 28.4219 48.1875
Q40.625 48.1875 47.75 41.5
Q54.8906 34.8125 54.8906 23.3906
Q54.8906 11.625 47.5625 5.09375
Q40.2344 -1.42188 26.9062 -1.42188
Q22.3125 -1.42188 17.5469 -0.640625
Q12.7969 0.140625 7.71875 1.70312
L7.71875 11.625
Q12.1094 9.23438 16.7969 8.0625
Q21.4844 6.89062 26.7031 6.89062
Q35.1562 6.89062 40.0781 11.3281
Q45.0156 15.7656 45.0156 23.3906
Q45.0156 31 40.0781 35.4375
Q35.1562 39.8906 26.7031 39.8906
Q22.75 39.8906 18.8125 39.0156
Q14.8906 38.1406 10.7969 36.2812
z
" id="BitstreamVeraSans-Roman-35"/>
      </defs>
      <g transform="translate(100.367866848 121.795625)rotate(-90.0)scale(0.2 -0.2)">
       <use xlink:href="#BitstreamVeraSans-Roman-53"/>
       <use x="63.4765625" xlink:href="#BitstreamVeraSans-Roman-46"/>
       <use x="120.99609375" xlink:href="#BitstreamVeraSans-Roman-52"/>
       <use x="190.478515625" xlink:href="#BitstreamVeraSans-Roman-50"/>
       <use x="250.78125" xlink:href="#BitstreamVeraSans-Roman-35"/>
      </g>
     </g>
    </g>
    <g id="xtick_3">
     <g id="line2d_8">
      <path clip-path="url(#pc344a39ea2)" d="
M123.191 129.6
L123.191 14.4" style="fill:none;stroke:#000000;stroke-dasharray:1.000000,3.000000;stroke-dashoffset:0.0;stroke-linecap:butt;stroke-width:0.5;"/>
     </g>
     <g id="line2d_9">
      <defs>
       <path d="
M0 0
L0 -4" id="mc479045913"/>
      </defs>
      <g>
       <use style="stroke:#000000;stroke-linecap:butt;stroke-width:0.5;" x="123.19076087" xlink:href="#mc479045913" y="129.6"/>
      </g>
     </g>
     <g id="line2d_10">
      <defs>
       <path d="
M0 0
L0 4" id="m5b5440acce"/>
      </defs>
      <g>
       <use style="stroke:#000000;stroke-linecap:butt;stroke-width:0.5;" x="123.19076087" xlink:href="#m5b5440acce" y="14.4"/>
      </g>
     </g>
     <g id="text_3">
      <!-- DAAM1 -->
      <defs>
       <path d="
M12.4062 8.29688
L28.5156 8.29688
L28.5156 63.9219
L10.9844 60.4062
L10.9844 69.3906
L28.4219 72.9062
L38.2812 72.9062
L38.2812 8.29688
L54.3906 8.29688
L54.3906 0
L12.4062 0
z
" id="BitstreamVeraSans-Roman-31"/>
       <path d="
M19.6719 64.7969
L19.6719 8.10938
L31.5938 8.10938
Q46.6875 8.10938 53.6875 14.9375
Q60.6875 21.7812 60.6875 36.5312
Q60.6875 51.1719 53.6875 57.9844
Q46.6875 64.7969 31.5938 64.7969
z

M9.8125 72.9062
L30.0781 72.9062
Q51.2656 72.9062 61.1719 64.0938
Q71.0938 55.2812 71.0938 36.5312
Q71.0938 17.6719 61.125 8.82812
Q51.1719 0 30.0781 0
L9.8125 0
z
" id="BitstreamVeraSans-Roman-44"/>
       <path d="
M34.1875 63.1875
L20.7969 26.9062
L47.6094 26.9062
z

M28.6094 72.9062
L39.7969 72.9062
L67.5781 0
L57.3281 0
L50.6875 18.7031
L17.8281 18.7031
L11.1875 0
L0.78125 0
z
" id="BitstreamVeraSans-Roman-41"/>
      </defs>
      <g transform="translate(130.48138587 122.08)rotate(-90.0)scale(0.2 -0.2)">
       <use xlink:href="#BitstreamVeraSans-Roman-44"/>
       <use x="75.251953125" xlink:href="#BitstreamVeraSans-Roman-41"/>
       <use x="146.41015625" xlink:href="#BitstreamVeraSans-Roman-41"/>
       <use x="214.818359375" xlink:href="#BitstreamVeraSans-Roman-4d"/>
       <use x="301.09765625" xlink:href="#BitstreamVeraSans-Roman-31"/>
      </g>
     </g>
    </g>
    <g id="xtick_4">
     <g id="line2d_11">
      <path clip-path="url(#pc344a39ea2)" d="
M153.578 129.6
L153.578 14.4" style="fill:none;stroke:#000000;stroke-dasharray:1.000000,3.000000;stroke-dashoffset:0.0;stroke-linecap:butt;stroke-width:0.5;"/>
     </g>
     <g id="line2d_12">
      <defs>
       <path d="
M0 0
L0 -4" id="mc479045913"/>
      </defs>
      <g>
       <use style="stroke:#000000;stroke-linecap:butt;stroke-width:0.5;" x="153.577717391" xlink:href="#mc479045913" y="129.6"/>
      </g>
     </g>
     <g id="line2d_13">
      <defs>
       <path d="
M0 0
L0 4" id="m5b5440acce"/>
      </defs>
      <g>
       <use style="stroke:#000000;stroke-linecap:butt;stroke-width:0.5;" x="153.577717391" xlink:href="#m5b5440acce" y="14.4"/>
      </g>
     </g>
     <g id="text_4">
      <!-- DAAM2 -->
      <defs>
       <path d="
M19.1875 8.29688
L53.6094 8.29688
L53.6094 0
L7.32812 0
L7.32812 8.29688
Q12.9375 14.1094 22.625 23.8906
Q32.3281 33.6875 34.8125 36.5312
Q39.5469 41.8438 41.4219 45.5312
Q43.3125 49.2188 43.3125 52.7812
Q43.3125 58.5938 39.2344 62.25
Q35.1562 65.9219 28.6094 65.9219
Q23.9688 65.9219 18.8125 64.3125
Q13.6719 62.7031 7.8125 59.4219
L7.8125 69.3906
Q13.7656 71.7812 18.9375 73
Q24.125 74.2188 28.4219 74.2188
Q39.75 74.2188 46.4844 68.5469
Q53.2188 62.8906 53.2188 53.4219
Q53.2188 48.9219 51.5312 44.8906
Q49.8594 40.875 45.4062 35.4062
Q44.1875 33.9844 37.6406 27.2188
Q31.1094 20.4531 19.1875 8.29688" id="BitstreamVeraSans-Roman-32"/>
      </defs>
      <g transform="translate(160.999592391 122.08)rotate(-90.0)scale(0.2 -0.2)">
       <use xlink:href="#BitstreamVeraSans-Roman-44"/>
       <use x="75.251953125" xlink:href="#BitstreamVeraSans-Roman-41"/>
       <use x="146.41015625" xlink:href="#BitstreamVeraSans-Roman-41"/>
       <use x="214.818359375" xlink:href="#BitstreamVeraSans-Roman-4d"/>
       <use x="301.09765625" xlink:href="#BitstreamVeraSans-Roman-32"/>
      </g>
     </g>
    </g>
    <g id="xtick_5">
     <g id="line2d_14">
      <path clip-path="url(#pc344a39ea2)" d="
M183.965 129.6
L183.965 14.4" style="fill:none;stroke:#000000;stroke-dasharray:1.000000,3.000000;stroke-dashoffset:0.0;stroke-linecap:butt;stroke-width:0.5;"/>
     </g>
     <g id="line2d_15">
      <defs>
       <path d="
M0 0
L0 -4" id="mc479045913"/>
      </defs>
      <g>
       <use style="stroke:#000000;stroke-linecap:butt;stroke-width:0.5;" x="183.964673913" xlink:href="#mc479045913" y="129.6"/>
      </g>
     </g>
     <g id="line2d_16">
      <defs>
       <path d="
M0 0
L0 4" id="m5b5440acce"/>
      </defs>
      <g>
       <use style="stroke:#000000;stroke-linecap:butt;stroke-width:0.5;" x="183.964673913" xlink:href="#m5b5440acce" y="14.4"/>
      </g>
     </g>
     <g id="text_5">
      <!-- TCF7L1 -->
      <defs>
       <path d="
M9.8125 72.9062
L19.6719 72.9062
L19.6719 8.29688
L55.1719 8.29688
L55.1719 0
L9.8125 0
z
" id="BitstreamVeraSans-Roman-4c"/>
       <path d="
M-0.296875 72.9062
L61.375 72.9062
L61.375 64.5938
L35.5 64.5938
L35.5 0
L25.5938 0
L25.5938 64.5938
L-0.296875 64.5938
z
" id="BitstreamVeraSans-Roman-54"/>
       <path d="
M8.20312 72.9062
L55.0781 72.9062
L55.0781 68.7031
L28.6094 0
L18.3125 0
L43.2188 64.5938
L8.20312 64.5938
z
" id="BitstreamVeraSans-Roman-37"/>
      </defs>
      <g transform="translate(191.528736413 121.795625)rotate(-90.0)scale(0.2 -0.2)">
       <use xlink:href="#BitstreamVeraSans-Roman-54"/>
       <use x="55.208984375" xlink:href="#BitstreamVeraSans-Roman-43"/>
       <use x="125.033203125" xlink:href="#BitstreamVeraSans-Roman-46"/>
       <use x="182.552734375" xlink:href="#BitstreamVeraSans-Roman-37"/>
       <use x="246.17578125" xlink:href="#BitstreamVeraSans-Roman-4c"/>
       <use x="301.888671875" xlink:href="#BitstreamVeraSans-Roman-31"/>
      </g>
     </g>
    </g>
    <g id="xtick_6">
     <g id="line2d_17">
      <path clip-path="url(#pc344a39ea2)" d="
M214.352 129.6
L214.352 14.4" style="fill:none;stroke:#000000;stroke-dasharray:1.000000,3.000000;stroke-dashoffset:0.0;stroke-linecap:butt;stroke-width:0.5;"/>
     </g>
     <g id="line2d_18">
      <defs>
       <path d="
M0 0
L0 -4" id="mc479045913"/>
      </defs>
      <g>
       <use style="stroke:#000000;stroke-linecap:butt;stroke-width:0.5;" x="214.351630435" xlink:href="#mc479045913" y="129.6"/>
      </g>
     </g>
     <g id="line2d_19">
      <defs>
       <path d="
M0 0
L0 4" id="m5b5440acce"/>
      </defs>
      <g>
       <use style="stroke:#000000;stroke-linecap:butt;stroke-width:0.5;" x="214.351630435" xlink:href="#m5b5440acce" y="14.4"/>
      </g>
     </g>
     <g id="text_6">
      <!-- NFATC4 -->
      <defs>
       <path d="
M9.8125 72.9062
L23.0938 72.9062
L55.4219 11.9219
L55.4219 72.9062
L64.9844 72.9062
L64.9844 0
L51.7031 0
L19.3906 60.9844
L19.3906 0
L9.8125 0
z
" id="BitstreamVeraSans-Roman-4e"/>
       <path d="
M37.7969 64.3125
L12.8906 25.3906
L37.7969 25.3906
z

M35.2031 72.9062
L47.6094 72.9062
L47.6094 25.3906
L58.0156 25.3906
L58.0156 17.1875
L47.6094 17.1875
L47.6094 0
L37.7969 0
L37.7969 17.1875
L4.89062 17.1875
L4.89062 26.7031
z
" id="BitstreamVeraSans-Roman-34"/>
      </defs>
      <g transform="translate(221.915692935 121.795625)rotate(-90.0)scale(0.2 -0.2)">
       <use xlink:href="#BitstreamVeraSans-Roman-4e"/>
       <use x="74.8046875" xlink:href="#BitstreamVeraSans-Roman-46"/>
       <use x="123.19921875" xlink:href="#BitstreamVeraSans-Roman-41"/>
       <use x="183.857421875" xlink:href="#BitstreamVeraSans-Roman-54"/>
       <use x="239.06640625" xlink:href="#BitstreamVeraSans-Roman-43"/>
       <use x="308.890625" xlink:href="#BitstreamVeraSans-Roman-34"/>
      </g>
     </g>
    </g>
    <g id="xtick_7">
     <g id="line2d_20">
      <path clip-path="url(#pc344a39ea2)" d="
M244.739 129.6
L244.739 14.4" style="fill:none;stroke:#000000;stroke-dasharray:1.000000,3.000000;stroke-dashoffset:0.0;stroke-linecap:butt;stroke-width:0.5;"/>
     </g>
     <g id="line2d_21">
      <defs>
       <path d="
M0 0
L0 -4" id="mc479045913"/>
      </defs>
      <g>
       <use style="stroke:#000000;stroke-linecap:butt;stroke-width:0.5;" x="244.738586957" xlink:href="#mc479045913" y="129.6"/>
      </g>
     </g>
     <g id="line2d_22">
      <defs>
       <path d="
M0 0
L0 4" id="m5b5440acce"/>
      </defs>
      <g>
       <use style="stroke:#000000;stroke-linecap:butt;stroke-width:0.5;" x="244.738586957" xlink:href="#m5b5440acce" y="14.4"/>
      </g>
     </g>
     <g id="text_7">
      <!-- TCF7 -->
      <g transform="translate(252.302649457 121.795625)rotate(-90.0)scale(0.2 -0.2)">
       <use xlink:href="#BitstreamVeraSans-Roman-54"/>
       <use x="55.208984375" xlink:href="#BitstreamVeraSans-Roman-43"/>
       <use x="125.033203125" xlink:href="#BitstreamVeraSans-Roman-46"/>
       <use x="182.552734375" xlink:href="#BitstreamVeraSans-Roman-37"/>
      </g>
     </g>
    </g>
    <g id="xtick_8">
     <g id="line2d_23">
      <path clip-path="url(#pc344a39ea2)" d="
M275.126 129.6
L275.126 14.4" style="fill:none;stroke:#000000;stroke-dasharray:1.000000,3.000000;stroke-dashoffset:0.0;stroke-linecap:butt;stroke-width:0.5;"/>
     </g>
     <g id="line2d_24">
      <defs>
       <path d="
M0 0
L0 -4" id="mc479045913"/>
      </defs>
      <g>
       <use style="stroke:#000000;stroke-linecap:butt;stroke-width:0.5;" x="275.125543478" xlink:href="#mc479045913" y="129.6"/>
      </g>
     </g>
     <g id="line2d_25">
      <defs>
       <path d="
M0 0
L0 4" id="m5b5440acce"/>
      </defs>
      <g>
       <use style="stroke:#000000;stroke-linecap:butt;stroke-width:0.5;" x="275.125543478" xlink:href="#m5b5440acce" y="14.4"/>
      </g>
     </g>
     <g id="text_8">
      <!-- PLCB3 -->
      <defs>
       <path d="
M40.5781 39.3125
Q47.6562 37.7969 51.625 33
Q55.6094 28.2188 55.6094 21.1875
Q55.6094 10.4062 48.1875 4.48438
Q40.7656 -1.42188 27.0938 -1.42188
Q22.5156 -1.42188 17.6562 -0.515625
Q12.7969 0.390625 7.625 2.20312
L7.625 11.7188
Q11.7188 9.32812 16.5938 8.10938
Q21.4844 6.89062 26.8125 6.89062
Q36.0781 6.89062 40.9375 10.5469
Q45.7969 14.2031 45.7969 21.1875
Q45.7969 27.6406 41.2812 31.2656
Q36.7656 34.9062 28.7188 34.9062
L20.2188 34.9062
L20.2188 43.0156
L29.1094 43.0156
Q36.375 43.0156 40.2344 45.9219
Q44.0938 48.8281 44.0938 54.2969
Q44.0938 59.9062 40.1094 62.9062
Q36.1406 65.9219 28.7188 65.9219
Q24.6562 65.9219 20.0156 65.0312
Q15.375 64.1562 9.8125 62.3125
L9.8125 71.0938
Q15.4375 72.6562 20.3438 73.4375
Q25.25 74.2188 29.5938 74.2188
Q40.8281 74.2188 47.3594 69.1094
Q53.9062 64.0156 53.9062 55.3281
Q53.9062 49.2656 50.4375 45.0938
Q46.9688 40.9219 40.5781 39.3125" id="BitstreamVeraSans-Roman-33"/>
       <path d="
M19.6719 34.8125
L19.6719 8.10938
L35.5 8.10938
Q43.4531 8.10938 47.2812 11.4062
Q51.125 14.7031 51.125 21.4844
Q51.125 28.3281 47.2812 31.5625
Q43.4531 34.8125 35.5 34.8125
z

M19.6719 64.7969
L19.6719 42.8281
L34.2812 42.8281
Q41.5 42.8281 45.0312 45.5312
Q48.5781 48.25 48.5781 53.8125
Q48.5781 59.3281 45.0312 62.0625
Q41.5 64.7969 34.2812 64.7969
z

M9.8125 72.9062
L35.0156 72.9062
Q46.2969 72.9062 52.3906 68.2188
Q58.5 63.5312 58.5 54.8906
Q58.5 48.1875 55.375 44.2344
Q52.25 40.2812 46.1875 39.3125
Q53.4688 37.75 57.5 32.7812
Q61.5312 27.8281 61.5312 20.4062
Q61.5312 10.6406 54.8906 5.3125
Q48.25 0 35.9844 0
L9.8125 0
z
" id="BitstreamVeraSans-Roman-42"/>
      </defs>
      <g transform="translate(282.689605978 121.795625)rotate(-90.0)scale(0.2 -0.2)">
       <use xlink:href="#BitstreamVeraSans-Roman-50"/>
       <use x="60.302734375" xlink:href="#BitstreamVeraSans-Roman-4c"/>
       <use x="116.015625" xlink:href="#BitstreamVeraSans-Roman-43"/>
       <use x="185.83984375" xlink:href="#BitstreamVeraSans-Roman-42"/>
       <use x="254.443359375" xlink:href="#BitstreamVeraSans-Roman-33"/>
      </g>
     </g>
    </g>
    <g id="xtick_9">
     <g id="line2d_26">
      <path clip-path="url(#pc344a39ea2)" d="
M305.513 129.6
L305.513 14.4" style="fill:none;stroke:#000000;stroke-dasharray:1.000000,3.000000;stroke-dashoffset:0.0;stroke-linecap:butt;stroke-width:0.5;"/>
     </g>
     <g id="line2d_27">
      <defs>
       <path d="
M0 0
L0 -4" id="mc479045913"/>
      </defs>
      <g>
       <use style="stroke:#000000;stroke-linecap:butt;stroke-width:0.5;" x="305.5125" xlink:href="#mc479045913" y="129.6"/>
      </g>
     </g>
     <g id="line2d_28">
      <defs>
       <path d="
M0 0
L0 4" id="m5b5440acce"/>
      </defs>
      <g>
       <use style="stroke:#000000;stroke-linecap:butt;stroke-width:0.5;" x="305.5125" xlink:href="#m5b5440acce" y="14.4"/>
      </g>
     </g>
     <g id="text_9">
      <!-- FZD1 -->
      <defs>
       <path d="
M5.60938 72.9062
L62.8906 72.9062
L62.8906 65.375
L16.7969 8.29688
L64.0156 8.29688
L64.0156 0
L4.5 0
L4.5 7.51562
L50.5938 64.5938
L5.60938 64.5938
z
" id="BitstreamVeraSans-Roman-5a"/>
      </defs>
      <g transform="translate(312.803125 122.08)rotate(-90.0)scale(0.2 -0.2)">
       <use xlink:href="#BitstreamVeraSans-Roman-46"/>
       <use x="57.51953125" xlink:href="#BitstreamVeraSans-Roman-5a"/>
       <use x="126.025390625" xlink:href="#BitstreamVeraSans-Roman-44"/>
       <use x="203.02734375" xlink:href="#BitstreamVeraSans-Roman-31"/>
      </g>
     </g>
    </g>
    <g id="xtick_10">
     <g id="line2d_29">
      <path clip-path="url(#pc344a39ea2)" d="
M335.899 129.6
L335.899 14.4" style="fill:none;stroke:#000000;stroke-dasharray:1.000000,3.000000;stroke-dashoffset:0.0;stroke-linecap:butt;stroke-width:0.5;"/>
     </g>
     <g id="line2d_30">
      <defs>
       <path d="
M0 0
L0 -4" id="mc479045913"/>
      </defs>
      <g>
       <use style="stroke:#000000;stroke-linecap:butt;stroke-width:0.5;" x="335.899456522" xlink:href="#mc479045913" y="129.6"/>
      </g>
     </g>
     <g id="line2d_31">
      <defs>
       <path d="
M0 0
L0 4" id="m5b5440acce"/>
      </defs>
      <g>
       <use style="stroke:#000000;stroke-linecap:butt;stroke-width:0.5;" x="335.899456522" xlink:href="#m5b5440acce" y="14.4"/>
      </g>
     </g>
     <g id="text_10">
      <!-- LRP5 -->
      <g transform="translate(343.332269022 121.795625)rotate(-90.0)scale(0.2 -0.2)">
       <use xlink:href="#BitstreamVeraSans-Roman-4c"/>
       <use x="55.712890625" xlink:href="#BitstreamVeraSans-Roman-52"/>
       <use x="125.1953125" xlink:href="#BitstreamVeraSans-Roman-50"/>
       <use x="185.498046875" xlink:href="#BitstreamVeraSans-Roman-35"/>
      </g>
     </g>
    </g>
    <g id="xtick_11">
     <g id="line2d_32">
      <path clip-path="url(#pc344a39ea2)" d="
M366.286 129.6
L366.286 14.4" style="fill:none;stroke:#000000;stroke-dasharray:1.000000,3.000000;stroke-dashoffset:0.0;stroke-linecap:butt;stroke-width:0.5;"/>
     </g>
     <g id="line2d_33">
      <defs>
       <path d="
M0 0
L0 -4" id="mc479045913"/>
      </defs>
      <g>
       <use style="stroke:#000000;stroke-linecap:butt;stroke-width:0.5;" x="366.286413043" xlink:href="#mc479045913" y="129.6"/>
      </g>
     </g>
     <g id="line2d_34">
      <defs>
       <path d="
M0 0
L0 4" id="m5b5440acce"/>
      </defs>
      <g>
       <use style="stroke:#000000;stroke-linecap:butt;stroke-width:0.5;" x="366.286413043" xlink:href="#m5b5440acce" y="14.4"/>
      </g>
     </g>
     <g id="text_11">
      <!-- PPP2R1B -->
      <g transform="translate(373.708288043 122.08)rotate(-90.0)scale(0.2 -0.2)">
       <use xlink:href="#BitstreamVeraSans-Roman-50"/>
       <use x="60.302734375" xlink:href="#BitstreamVeraSans-Roman-50"/>
       <use x="120.60546875" xlink:href="#BitstreamVeraSans-Roman-50"/>
       <use x="180.908203125" xlink:href="#BitstreamVeraSans-Roman-32"/>
       <use x="244.53125" xlink:href="#BitstreamVeraSans-Roman-52"/>
       <use x="314.013671875" xlink:href="#BitstreamVeraSans-Roman-31"/>
       <use x="377.63671875" xlink:href="#BitstreamVeraSans-Roman-42"/>
      </g>
     </g>
    </g>
    <g id="xtick_12">
     <g id="line2d_35">
      <path clip-path="url(#pc344a39ea2)" d="
M396.673 129.6
L396.673 14.4" style="fill:none;stroke:#000000;stroke-dasharray:1.000000,3.000000;stroke-dashoffset:0.0;stroke-linecap:butt;stroke-width:0.5;"/>
     </g>
     <g id="line2d_36">
      <defs>
       <path d="
M0 0
L0 -4" id="mc479045913"/>
      </defs>
      <g>
       <use style="stroke:#000000;stroke-linecap:butt;stroke-width:0.5;" x="396.673369565" xlink:href="#mc479045913" y="129.6"/>
      </g>
     </g>
     <g id="line2d_37">
      <defs>
       <path d="
M0 0
L0 4" id="m5b5440acce"/>
      </defs>
      <g>
       <use style="stroke:#000000;stroke-linecap:butt;stroke-width:0.5;" x="396.673369565" xlink:href="#m5b5440acce" y="14.4"/>
      </g>
     </g>
     <g id="text_12">
      <!-- WNT2B -->
      <defs>
       <path d="
M3.32812 72.9062
L13.2812 72.9062
L28.6094 11.2812
L43.8906 72.9062
L54.9844 72.9062
L70.3125 11.2812
L85.5938 72.9062
L95.6094 72.9062
L77.2969 0
L64.8906 0
L49.5156 63.2812
L33.9844 0
L21.5781 0
z
" id="BitstreamVeraSans-Roman-57"/>
      </defs>
      <g transform="translate(404.095244565 122.08)rotate(-90.0)scale(0.2 -0.2)">
       <use xlink:href="#BitstreamVeraSans-Roman-57"/>
       <use x="98.876953125" xlink:href="#BitstreamVeraSans-Roman-4e"/>
       <use x="173.681640625" xlink:href="#BitstreamVeraSans-Roman-54"/>
       <use x="234.765625" xlink:href="#BitstreamVeraSans-Roman-32"/>
       <use x="298.388671875" xlink:href="#BitstreamVeraSans-Roman-42"/>
      </g>
     </g>
    </g>
    <g id="xtick_13">
     <g id="line2d_38">
      <path clip-path="url(#pc344a39ea2)" d="
M427.06 129.6
L427.06 14.4" style="fill:none;stroke:#000000;stroke-dasharray:1.000000,3.000000;stroke-dashoffset:0.0;stroke-linecap:butt;stroke-width:0.5;"/>
     </g>
     <g id="line2d_39">
      <defs>
       <path d="
M0 0
L0 -4" id="mc479045913"/>
      </defs>
      <g>
       <use style="stroke:#000000;stroke-linecap:butt;stroke-width:0.5;" x="427.060326087" xlink:href="#mc479045913" y="129.6"/>
      </g>
     </g>
     <g id="line2d_40">
      <defs>
       <path d="
M0 0
L0 4" id="m5b5440acce"/>
      </defs>
      <g>
       <use style="stroke:#000000;stroke-linecap:butt;stroke-width:0.5;" x="427.060326087" xlink:href="#m5b5440acce" y="14.4"/>
      </g>
     </g>
     <g id="text_13">
      <!-- PRKCG -->
      <defs>
       <path d="
M59.5156 10.4062
L59.5156 29.9844
L43.4062 29.9844
L43.4062 38.0938
L69.2812 38.0938
L69.2812 6.78125
Q63.5781 2.73438 56.6875 0.65625
Q49.8125 -1.42188 42 -1.42188
Q24.9062 -1.42188 15.25 8.5625
Q5.60938 18.5625 5.60938 36.375
Q5.60938 54.25 15.25 64.2344
Q24.9062 74.2188 42 74.2188
Q49.125 74.2188 55.5469 72.4531
Q61.9688 70.7031 67.3906 67.2812
L67.3906 56.7812
Q61.9219 61.4219 55.7656 63.7656
Q49.6094 66.1094 42.8281 66.1094
Q29.4375 66.1094 22.7188 58.6406
Q16.0156 51.1719 16.0156 36.375
Q16.0156 21.625 22.7188 14.1562
Q29.4375 6.6875 42.8281 6.6875
Q48.0469 6.6875 52.1406 7.59375
Q56.25 8.5 59.5156 10.4062" id="BitstreamVeraSans-Roman-47"/>
       <path d="
M9.8125 72.9062
L19.6719 72.9062
L19.6719 42.0938
L52.3906 72.9062
L65.0938 72.9062
L28.9062 38.9219
L67.6719 0
L54.6875 0
L19.6719 35.1094
L19.6719 0
L9.8125 0
z
" id="BitstreamVeraSans-Roman-4b"/>
      </defs>
      <g transform="translate(434.624388587 121.795625)rotate(-90.0)scale(0.2 -0.2)">
       <use xlink:href="#BitstreamVeraSans-Roman-50"/>
       <use x="60.302734375" xlink:href="#BitstreamVeraSans-Roman-52"/>
       <use x="129.78515625" xlink:href="#BitstreamVeraSans-Roman-4b"/>
       <use x="189.861328125" xlink:href="#BitstreamVeraSans-Roman-43"/>
       <use x="259.685546875" xlink:href="#BitstreamVeraSans-Roman-47"/>
      </g>
     </g>
    </g>
    <g id="xtick_14">
     <g id="line2d_41">
      <path clip-path="url(#pc344a39ea2)" d="
M457.447 129.6
L457.447 14.4" style="fill:none;stroke:#000000;stroke-dasharray:1.000000,3.000000;stroke-dashoffset:0.0;stroke-linecap:butt;stroke-width:0.5;"/>
     </g>
     <g id="line2d_42">
      <defs>
       <path d="
M0 0
L0 -4" id="mc479045913"/>
      </defs>
      <g>
       <use style="stroke:#000000;stroke-linecap:butt;stroke-width:0.5;" x="457.447282609" xlink:href="#mc479045913" y="129.6"/>
      </g>
     </g>
     <g id="line2d_43">
      <defs>
       <path d="
M0 0
L0 4" id="m5b5440acce"/>
      </defs>
      <g>
       <use style="stroke:#000000;stroke-linecap:butt;stroke-width:0.5;" x="457.447282609" xlink:href="#m5b5440acce" y="14.4"/>
      </g>
     </g>
     <g id="text_14">
      <!-- CUL1 -->
      <defs>
       <path d="
M8.6875 72.9062
L18.6094 72.9062
L18.6094 28.6094
Q18.6094 16.8906 22.8438 11.7344
Q27.0938 6.59375 36.625 6.59375
Q46.0938 6.59375 50.3438 11.7344
Q54.5938 16.8906 54.5938 28.6094
L54.5938 72.9062
L64.5 72.9062
L64.5 27.3906
Q64.5 13.1406 57.4375 5.85938
Q50.3906 -1.42188 36.625 -1.42188
Q22.7969 -1.42188 15.7344 5.85938
Q8.6875 13.1406 8.6875 27.3906
z
" id="BitstreamVeraSans-Roman-55"/>
      </defs>
      <g transform="translate(465.011345109 121.795625)rotate(-90.0)scale(0.2 -0.2)">
       <use xlink:href="#BitstreamVeraSans-Roman-43"/>
       <use x="69.82421875" xlink:href="#BitstreamVeraSans-Roman-55"/>
       <use x="143.017578125" xlink:href="#BitstreamVeraSans-Roman-4c"/>
       <use x="198.73046875" xlink:href="#BitstreamVeraSans-Roman-31"/>
      </g>
     </g>
    </g>
    <g id="xtick_15">
     <g id="line2d_44">
      <path clip-path="url(#pc344a39ea2)" d="
M487.834 129.6
L487.834 14.4" style="fill:none;stroke:#000000;stroke-dasharray:1.000000,3.000000;stroke-dashoffset:0.0;stroke-linecap:butt;stroke-width:0.5;"/>
     </g>
     <g id="line2d_45">
      <defs>
       <path d="
M0 0
L0 -4" id="mc479045913"/>
      </defs>
      <g>
       <use style="stroke:#000000;stroke-linecap:butt;stroke-width:0.5;" x="487.83423913" xlink:href="#mc479045913" y="129.6"/>
      </g>
     </g>
     <g id="line2d_46">
      <defs>
       <path d="
M0 0
L0 4" id="m5b5440acce"/>
      </defs>
      <g>
       <use style="stroke:#000000;stroke-linecap:butt;stroke-width:0.5;" x="487.83423913" xlink:href="#m5b5440acce" y="14.4"/>
      </g>
     </g>
     <g id="text_15">
      <!-- WNT11 -->
      <g transform="translate(495.12486413 122.08)rotate(-90.0)scale(0.2 -0.2)">
       <use xlink:href="#BitstreamVeraSans-Roman-57"/>
       <use x="98.876953125" xlink:href="#BitstreamVeraSans-Roman-4e"/>
       <use x="173.681640625" xlink:href="#BitstreamVeraSans-Roman-54"/>
       <use x="234.765625" xlink:href="#BitstreamVeraSans-Roman-31"/>
       <use x="298.388671875" xlink:href="#BitstreamVeraSans-Roman-31"/>
      </g>
     </g>
    </g>
    <g id="xtick_16">
     <g id="line2d_47">
      <path clip-path="url(#pc344a39ea2)" d="
M518.221 129.6
L518.221 14.4" style="fill:none;stroke:#000000;stroke-dasharray:1.000000,3.000000;stroke-dashoffset:0.0;stroke-linecap:butt;stroke-width:0.5;"/>
     </g>
     <g id="line2d_48">
      <defs>
       <path d="
M0 0
L0 -4" id="mc479045913"/>
      </defs>
      <g>
       <use style="stroke:#000000;stroke-linecap:butt;stroke-width:0.5;" x="518.221195652" xlink:href="#mc479045913" y="129.6"/>
      </g>
     </g>
     <g id="line2d_49">
      <defs>
       <path d="
M0 0
L0 4" id="m5b5440acce"/>
      </defs>
      <g>
       <use style="stroke:#000000;stroke-linecap:butt;stroke-width:0.5;" x="518.221195652" xlink:href="#m5b5440acce" y="14.4"/>
      </g>
     </g>
     <g id="text_16">
      <!-- APC -->
      <g transform="translate(525.785258152 121.795625)rotate(-90.0)scale(0.2 -0.2)">
       <use xlink:href="#BitstreamVeraSans-Roman-41"/>
       <use x="68.408203125" xlink:href="#BitstreamVeraSans-Roman-50"/>
       <use x="128.7109375" xlink:href="#BitstreamVeraSans-Roman-43"/>
      </g>
     </g>
    </g>
    <g id="xtick_17">
     <g id="line2d_50">
      <path clip-path="url(#pc344a39ea2)" d="
M548.608 129.6
L548.608 14.4" style="fill:none;stroke:#000000;stroke-dasharray:1.000000,3.000000;stroke-dashoffset:0.0;stroke-linecap:butt;stroke-width:0.5;"/>
     </g>
     <g id="line2d_51">
      <defs>
       <path d="
M0 0
L0 -4" id="mc479045913"/>
      </defs>
      <g>
       <use style="stroke:#000000;stroke-linecap:butt;stroke-width:0.5;" x="548.608152174" xlink:href="#mc479045913" y="129.6"/>
      </g>
     </g>
     <g id="line2d_52">
      <defs>
       <path d="
M0 0
L0 4" id="m5b5440acce"/>
      </defs>
      <g>
       <use style="stroke:#000000;stroke-linecap:butt;stroke-width:0.5;" x="548.608152174" xlink:href="#m5b5440acce" y="14.4"/>
      </g>
     </g>
     <g id="text_17">
      <!-- TP53 -->
      <g transform="translate(556.172214674 121.795625)rotate(-90.0)scale(0.2 -0.2)">
       <use xlink:href="#BitstreamVeraSans-Roman-54"/>
       <use x="61.083984375" xlink:href="#BitstreamVeraSans-Roman-50"/>
       <use x="121.38671875" xlink:href="#BitstreamVeraSans-Roman-35"/>
       <use x="185.009765625" xlink:href="#BitstreamVeraSans-Roman-33"/>
      </g>
     </g>
    </g>
   </g>
   <g id="matplotlib.axis_2">
    <g id="ytick_1">
     <g id="line2d_53">
      <path clip-path="url(#pc344a39ea2)" d="
M43.425 129.6
L567.6 129.6" style="fill:none;stroke:#000000;stroke-dasharray:1.000000,3.000000;stroke-dashoffset:0.0;stroke-linecap:butt;stroke-width:0.5;"/>
     </g>
     <g id="line2d_54">
      <defs>
       <path d="
M0 0
L4 0" id="me0e5882b56"/>
      </defs>
      <g>
       <use style="stroke:#000000;stroke-linecap:butt;stroke-width:0.5;" x="43.425" xlink:href="#me0e5882b56" y="129.6"/>
      </g>
     </g>
     <g id="line2d_55">
      <defs>
       <path d="
M0 0
L-4 0" id="mc92f5278a2"/>
      </defs>
      <g>
       <use style="stroke:#000000;stroke-linecap:butt;stroke-width:0.5;" x="567.6" xlink:href="#mc92f5278a2" y="129.6"/>
      </g>
     </g>
     <g id="text_18">
      <!-- 0 -->
      <defs>
       <path d="
M31.7812 66.4062
Q24.1719 66.4062 20.3281 58.9062
Q16.5 51.4219 16.5 36.375
Q16.5 21.3906 20.3281 13.8906
Q24.1719 6.39062 31.7812 6.39062
Q39.4531 6.39062 43.2812 13.8906
Q47.125 21.3906 47.125 36.375
Q47.125 51.4219 43.2812 58.9062
Q39.4531 66.4062 31.7812 66.4062
M31.7812 74.2188
Q44.0469 74.2188 50.5156 64.5156
Q56.9844 54.8281 56.9844 36.375
Q56.9844 17.9688 50.5156 8.26562
Q44.0469 -1.42188 31.7812 -1.42188
Q19.5312 -1.42188 13.0625 8.26562
Q6.59375 17.9688 6.59375 36.375
Q6.59375 54.8281 13.0625 64.5156
Q19.5312 74.2188 31.7812 74.2188" id="BitstreamVeraSans-Roman-30"/>
      </defs>
      <g transform="translate(32.3703125 134.69578125)scale(0.14 -0.14)">
       <use xlink:href="#BitstreamVeraSans-Roman-30"/>
      </g>
     </g>
    </g>
    <g id="ytick_2">
     <g id="line2d_56">
      <path clip-path="url(#pc344a39ea2)" d="
M43.425 106.56
L567.6 106.56" style="fill:none;stroke:#000000;stroke-dasharray:1.000000,3.000000;stroke-dashoffset:0.0;stroke-linecap:butt;stroke-width:0.5;"/>
     </g>
     <g id="line2d_57">
      <defs>
       <path d="
M0 0
L4 0" id="me0e5882b56"/>
      </defs>
      <g>
       <use style="stroke:#000000;stroke-linecap:butt;stroke-width:0.5;" x="43.425" xlink:href="#me0e5882b56" y="106.56"/>
      </g>
     </g>
     <g id="line2d_58">
      <defs>
       <path d="
M0 0
L-4 0" id="mc92f5278a2"/>
      </defs>
      <g>
       <use style="stroke:#000000;stroke-linecap:butt;stroke-width:0.5;" x="567.6" xlink:href="#mc92f5278a2" y="106.56"/>
      </g>
     </g>
     <g id="text_19">
      <!-- 2 -->
      <g transform="translate(32.945625 111.7553125)scale(0.14 -0.14)">
       <use xlink:href="#BitstreamVeraSans-Roman-32"/>
      </g>
     </g>
    </g>
    <g id="ytick_3">
     <g id="line2d_59">
      <path clip-path="url(#pc344a39ea2)" d="
M43.425 83.52
L567.6 83.52" style="fill:none;stroke:#000000;stroke-dasharray:1.000000,3.000000;stroke-dashoffset:0.0;stroke-linecap:butt;stroke-width:0.5;"/>
     </g>
     <g id="line2d_60">
      <defs>
       <path d="
M0 0
L4 0" id="me0e5882b56"/>
      </defs>
      <g>
       <use style="stroke:#000000;stroke-linecap:butt;stroke-width:0.5;" x="43.425" xlink:href="#me0e5882b56" y="83.52"/>
      </g>
     </g>
     <g id="line2d_61">
      <defs>
       <path d="
M0 0
L-4 0" id="mc92f5278a2"/>
      </defs>
      <g>
       <use style="stroke:#000000;stroke-linecap:butt;stroke-width:0.5;" x="567.6" xlink:href="#mc92f5278a2" y="83.52"/>
      </g>
     </g>
     <g id="text_20">
      <!-- 4 -->
      <g transform="translate(31.9875 88.6234375)scale(0.14 -0.14)">
       <use xlink:href="#BitstreamVeraSans-Roman-34"/>
      </g>
     </g>
    </g>
    <g id="ytick_4">
     <g id="line2d_62">
      <path clip-path="url(#pc344a39ea2)" d="
M43.425 60.48
L567.6 60.48" style="fill:none;stroke:#000000;stroke-dasharray:1.000000,3.000000;stroke-dashoffset:0.0;stroke-linecap:butt;stroke-width:0.5;"/>
     </g>
     <g id="line2d_63">
      <defs>
       <path d="
M0 0
L4 0" id="me0e5882b56"/>
      </defs>
      <g>
       <use style="stroke:#000000;stroke-linecap:butt;stroke-width:0.5;" x="43.425" xlink:href="#me0e5882b56" y="60.48"/>
      </g>
     </g>
     <g id="line2d_64">
      <defs>
       <path d="
M0 0
L-4 0" id="mc92f5278a2"/>
      </defs>
      <g>
       <use style="stroke:#000000;stroke-linecap:butt;stroke-width:0.5;" x="567.6" xlink:href="#mc92f5278a2" y="60.48"/>
      </g>
     </g>
     <g id="text_21">
      <!-- 6 -->
      <defs>
       <path d="
M33.0156 40.375
Q26.375 40.375 22.4844 35.8281
Q18.6094 31.2969 18.6094 23.3906
Q18.6094 15.5312 22.4844 10.9531
Q26.375 6.39062 33.0156 6.39062
Q39.6562 6.39062 43.5312 10.9531
Q47.4062 15.5312 47.4062 23.3906
Q47.4062 31.2969 43.5312 35.8281
Q39.6562 40.375 33.0156 40.375
M52.5938 71.2969
L52.5938 62.3125
Q48.875 64.0625 45.0938 64.9844
Q41.3125 65.9219 37.5938 65.9219
Q27.8281 65.9219 22.6719 59.3281
Q17.5312 52.7344 16.7969 39.4062
Q19.6719 43.6562 24.0156 45.9219
Q28.375 48.1875 33.5938 48.1875
Q44.5781 48.1875 50.9531 41.5156
Q57.3281 34.8594 57.3281 23.3906
Q57.3281 12.1562 50.6875 5.35938
Q44.0469 -1.42188 33.0156 -1.42188
Q20.3594 -1.42188 13.6719 8.26562
Q6.98438 17.9688 6.98438 36.375
Q6.98438 53.6562 15.1875 63.9375
Q23.3906 74.2188 37.2031 74.2188
Q40.9219 74.2188 44.7031 73.4844
Q48.4844 72.75 52.5938 71.2969" id="BitstreamVeraSans-Roman-36"/>
      </defs>
      <g transform="translate(32.376875 65.57578125)scale(0.14 -0.14)">
       <use xlink:href="#BitstreamVeraSans-Roman-36"/>
      </g>
     </g>
    </g>
    <g id="ytick_5">
     <g id="line2d_65">
      <path clip-path="url(#pc344a39ea2)" d="
M43.425 37.44
L567.6 37.44" style="fill:none;stroke:#000000;stroke-dasharray:1.000000,3.000000;stroke-dashoffset:0.0;stroke-linecap:butt;stroke-width:0.5;"/>
     </g>
     <g id="line2d_66">
      <defs>
       <path d="
M0 0
L4 0" id="me0e5882b56"/>
      </defs>
      <g>
       <use style="stroke:#000000;stroke-linecap:butt;stroke-width:0.5;" x="43.425" xlink:href="#me0e5882b56" y="37.44"/>
      </g>
     </g>
     <g id="line2d_67">
      <defs>
       <path d="
M0 0
L-4 0" id="mc92f5278a2"/>
      </defs>
      <g>
       <use style="stroke:#000000;stroke-linecap:butt;stroke-width:0.5;" x="567.6" xlink:href="#mc92f5278a2" y="37.44"/>
      </g>
     </g>
     <g id="text_22">
      <!-- 8 -->
      <defs>
       <path d="
M31.7812 34.625
Q24.75 34.625 20.7188 30.8594
Q16.7031 27.0938 16.7031 20.5156
Q16.7031 13.9219 20.7188 10.1562
Q24.75 6.39062 31.7812 6.39062
Q38.8125 6.39062 42.8594 10.1719
Q46.9219 13.9688 46.9219 20.5156
Q46.9219 27.0938 42.8906 30.8594
Q38.875 34.625 31.7812 34.625
M21.9219 38.8125
Q15.5781 40.375 12.0312 44.7188
Q8.5 49.0781 8.5 55.3281
Q8.5 64.0625 14.7188 69.1406
Q20.9531 74.2188 31.7812 74.2188
Q42.6719 74.2188 48.875 69.1406
Q55.0781 64.0625 55.0781 55.3281
Q55.0781 49.0781 51.5312 44.7188
Q48 40.375 41.7031 38.8125
Q48.8281 37.1562 52.7969 32.3125
Q56.7812 27.4844 56.7812 20.5156
Q56.7812 9.90625 50.3125 4.23438
Q43.8438 -1.42188 31.7812 -1.42188
Q19.7344 -1.42188 13.25 4.23438
Q6.78125 9.90625 6.78125 20.5156
Q6.78125 27.4844 10.7812 32.3125
Q14.7969 37.1562 21.9219 38.8125
M18.3125 54.3906
Q18.3125 48.7344 21.8438 45.5625
Q25.3906 42.3906 31.7812 42.3906
Q38.1406 42.3906 41.7188 45.5625
Q45.3125 48.7344 45.3125 54.3906
Q45.3125 60.0625 41.7188 63.2344
Q38.1406 66.4062 31.7812 66.4062
Q25.3906 66.4062 21.8438 63.2344
Q18.3125 60.0625 18.3125 54.3906" id="BitstreamVeraSans-Roman-38"/>
      </defs>
      <g transform="translate(32.425 42.53578125)scale(0.14 -0.14)">
       <use xlink:href="#BitstreamVeraSans-Roman-38"/>
      </g>
     </g>
    </g>
    <g id="ytick_6">
     <g id="line2d_68">
      <path clip-path="url(#pc344a39ea2)" d="
M43.425 14.4
L567.6 14.4" style="fill:none;stroke:#000000;stroke-dasharray:1.000000,3.000000;stroke-dashoffset:0.0;stroke-linecap:butt;stroke-width:0.5;"/>
     </g>
     <g id="line2d_69">
      <defs>
       <path d="
M0 0
L4 0" id="me0e5882b56"/>
      </defs>
      <g>
       <use style="stroke:#000000;stroke-linecap:butt;stroke-width:0.5;" x="43.425" xlink:href="#me0e5882b56" y="14.4"/>
      </g>
     </g>
     <g id="line2d_70">
      <defs>
       <path d="
M0 0
L-4 0" id="mc92f5278a2"/>
      </defs>
      <g>
       <use style="stroke:#000000;stroke-linecap:butt;stroke-width:0.5;" x="567.6" xlink:href="#mc92f5278a2" y="14.4"/>
      </g>
     </g>
     <g id="text_23">
      <!-- 10 -->
      <g transform="translate(24.0775 19.49578125)scale(0.14 -0.14)">
       <use xlink:href="#BitstreamVeraSans-Roman-31"/>
       <use x="63.623046875" xlink:href="#BitstreamVeraSans-Roman-30"/>
      </g>
     </g>
    </g>
    <g id="text_24">
     <!-- # Patients -->
     <defs>
      <path id="BitstreamVeraSans-Roman-20"/>
      <path d="
M51.125 44
L36.9219 44
L32.8125 27.6875
L47.125 27.6875
z

M43.7969 71.7812
L38.7188 51.5156
L52.9844 51.5156
L58.1094 71.7812
L65.9219 71.7812
L60.8906 51.5156
L76.125 51.5156
L76.125 44
L58.9844 44
L54.9844 27.6875
L70.5156 27.6875
L70.5156 20.2188
L53.0781 20.2188
L48 0
L40.1875 0
L45.2188 20.2188
L30.9062 20.2188
L25.875 0
L18.0156 0
L23.0938 20.2188
L7.71875 20.2188
L7.71875 27.6875
L24.9062 27.6875
L29 44
L13.2812 44
L13.2812 51.5156
L30.9062 51.5156
L35.8906 71.7812
z
" id="BitstreamVeraSans-Roman-23"/>
      <path d="
M54.8906 33.0156
L54.8906 0
L45.9062 0
L45.9062 32.7188
Q45.9062 40.4844 42.875 44.3281
Q39.8438 48.1875 33.7969 48.1875
Q26.5156 48.1875 22.3125 43.5469
Q18.1094 38.9219 18.1094 30.9062
L18.1094 0
L9.07812 0
L9.07812 54.6875
L18.1094 54.6875
L18.1094 46.1875
Q21.3438 51.125 25.7031 53.5625
Q30.0781 56 35.7969 56
Q45.2188 56 50.0469 50.1719
Q54.8906 44.3438 54.8906 33.0156" id="BitstreamVeraSans-Roman-6e"/>
      <path d="
M9.42188 54.6875
L18.4062 54.6875
L18.4062 0
L9.42188 0
z

M9.42188 75.9844
L18.4062 75.9844
L18.4062 64.5938
L9.42188 64.5938
z
" id="BitstreamVeraSans-Roman-69"/>
      <path d="
M56.2031 29.5938
L56.2031 25.2031
L14.8906 25.2031
Q15.4844 15.9219 20.4844 11.0625
Q25.4844 6.20312 34.4219 6.20312
Q39.5938 6.20312 44.4531 7.46875
Q49.3125 8.73438 54.1094 11.2812
L54.1094 2.78125
Q49.2656 0.734375 44.1875 -0.34375
Q39.1094 -1.42188 33.8906 -1.42188
Q20.7969 -1.42188 13.1562 6.1875
Q5.51562 13.8125 5.51562 26.8125
Q5.51562 40.2344 12.7656 48.1094
Q20.0156 56 32.3281 56
Q43.3594 56 49.7812 48.8906
Q56.2031 41.7969 56.2031 29.5938
M47.2188 32.2344
Q47.125 39.5938 43.0938 43.9844
Q39.0625 48.3906 32.4219 48.3906
Q24.9062 48.3906 20.3906 44.1406
Q15.875 39.8906 15.1875 32.1719
z
" id="BitstreamVeraSans-Roman-65"/>
      <path d="
M18.3125 70.2188
L18.3125 54.6875
L36.8125 54.6875
L36.8125 47.7031
L18.3125 47.7031
L18.3125 18.0156
Q18.3125 11.3281 20.1406 9.42188
Q21.9688 7.51562 27.5938 7.51562
L36.8125 7.51562
L36.8125 0
L27.5938 0
Q17.1875 0 13.2344 3.875
Q9.28125 7.76562 9.28125 18.0156
L9.28125 47.7031
L2.6875 47.7031
L2.6875 54.6875
L9.28125 54.6875
L9.28125 70.2188
z
" id="BitstreamVeraSans-Roman-74"/>
      <path d="
M34.2812 27.4844
Q23.3906 27.4844 19.1875 25
Q14.9844 22.5156 14.9844 16.5
Q14.9844 11.7188 18.1406 8.90625
Q21.2969 6.10938 26.7031 6.10938
Q34.1875 6.10938 38.7031 11.4062
Q43.2188 16.7031 43.2188 25.4844
L43.2188 27.4844
z

M52.2031 31.2031
L52.2031 0
L43.2188 0
L43.2188 8.29688
Q40.1406 3.32812 35.5469 0.953125
Q30.9531 -1.42188 24.3125 -1.42188
Q15.9219 -1.42188 10.9531 3.29688
Q6 8.01562 6 15.9219
Q6 25.1406 12.1719 29.8281
Q18.3594 34.5156 30.6094 34.5156
L43.2188 34.5156
L43.2188 35.4062
Q43.2188 41.6094 39.1406 45
Q35.0625 48.3906 27.6875 48.3906
Q23 48.3906 18.5469 47.2656
Q14.1094 46.1406 10.0156 43.8906
L10.0156 52.2031
Q14.9375 54.1094 19.5781 55.0469
Q24.2188 56 28.6094 56
Q40.4844 56 46.3438 49.8438
Q52.2031 43.7031 52.2031 31.2031" id="BitstreamVeraSans-Roman-61"/>
      <path d="
M44.2812 53.0781
L44.2812 44.5781
Q40.4844 46.5312 36.375 47.5
Q32.2812 48.4844 27.875 48.4844
Q21.1875 48.4844 17.8438 46.4375
Q14.5 44.3906 14.5 40.2812
Q14.5 37.1562 16.8906 35.375
Q19.2812 33.5938 26.5156 31.9844
L29.5938 31.2969
Q39.1562 29.25 43.1875 25.5156
Q47.2188 21.7812 47.2188 15.0938
Q47.2188 7.46875 41.1875 3.01562
Q35.1562 -1.42188 24.6094 -1.42188
Q20.2188 -1.42188 15.4531 -0.5625
Q10.6875 0.296875 5.42188 2
L5.42188 11.2812
Q10.4062 8.6875 15.2344 7.39062
Q20.0625 6.10938 24.8125 6.10938
Q31.1562 6.10938 34.5625 8.28125
Q37.9844 10.4531 37.9844 14.4062
Q37.9844 18.0625 35.5156 20.0156
Q33.0625 21.9688 24.7031 23.7812
L21.5781 24.5156
Q13.2344 26.2656 9.51562 29.9062
Q5.8125 33.5469 5.8125 39.8906
Q5.8125 47.6094 11.2812 51.7969
Q16.75 56 26.8125 56
Q31.7812 56 36.1719 55.2656
Q40.5781 54.5469 44.2812 53.0781" id="BitstreamVeraSans-Roman-73"/>
     </defs>
     <g transform="translate(19.0775 112.65)rotate(-90.0)scale(0.16 -0.16)">
      <use xlink:href="#BitstreamVeraSans-Roman-23"/>
      <use x="83.7890625" xlink:href="#BitstreamVeraSans-Roman-20"/>
      <use x="115.576171875" xlink:href="#BitstreamVeraSans-Roman-50"/>
      <use x="171.37890625" xlink:href="#BitstreamVeraSans-Roman-61"/>
      <use x="232.658203125" xlink:href="#BitstreamVeraSans-Roman-74"/>
      <use x="271.8671875" xlink:href="#BitstreamVeraSans-Roman-69"/>
      <use x="299.650390625" xlink:href="#BitstreamVeraSans-Roman-65"/>
      <use x="361.173828125" xlink:href="#BitstreamVeraSans-Roman-6e"/>
      <use x="424.552734375" xlink:href="#BitstreamVeraSans-Roman-74"/>
      <use x="463.76171875" xlink:href="#BitstreamVeraSans-Roman-73"/>
     </g>
    </g>
   </g>
   <g id="patch_20">
    <path d="
M43.425 14.4
L567.6 14.4" style="fill:none;stroke:#000000;"/>
   </g>
   <g id="patch_21">
    <path d="
M567.6 129.6
L567.6 14.4" style="fill:none;stroke:#000000;"/>
   </g>
   <g id="patch_22">
    <path d="
M43.425 129.6
L567.6 129.6" style="fill:none;stroke:#000000;"/>
   </g>
   <g id="patch_23">
    <path d="
M43.425 129.6
L43.425 14.4" style="fill:none;stroke:#000000;"/>
   </g>
  </g>
 </g>
 <defs>
  <clipPath id="pc344a39ea2">
   <rect height="115.2" width="524.175" x="43.425" y="14.4"/>
  </clipPath>
 </defs>
</svg>
