<?xml version="1.0" encoding="utf-8" standalone="no"?>
<!DOCTYPE svg PUBLIC "-//W3C//DTD SVG 1.1//EN"
  "http://www.w3.org/Graphics/SVG/1.1/DTD/svg11.dtd">
<!-- Created with matplotlib (http://matplotlib.sourceforge.net/) -->
<svg height="360pt" version="1.1" viewBox="0 0 720 360" width="720pt" xmlns="http://www.w3.org/2000/svg" xmlns:xlink="http://www.w3.org/1999/xlink">
 <defs>
  <style type="text/css">
*{stroke-linecap:square;stroke-linejoin:round;}
  </style>
 </defs>
 <g id="figure_1">
  <g id="patch_1">
   <path d="
M0 360
L720 360
L720 0
L0 0
z
" style="fill:#ffffff;"/>
  </g>
  <g id="axes_1">
   <g id="patch_2">
    <path d="
M90 224.735
L648 224.735
L648 126.265
L90 126.265
z
" style="fill:#ffffff;"/>
   </g>
   <g id="patch_3">
    <path clip-path="url(#pf7a3a472c0)" d="
M92.7353 223.061
L98.2059 223.061
Q99.2891 223.061 99.2891 219.812
L99.2891 196.835
Q99.2891 193.586 98.2059 193.586
L92.7353 193.586
Q91.6521 193.586 91.6521 196.835
L91.6521 219.812
Q91.6521 223.061 92.7353 223.061
z
" style="fill:#808080;opacity:0.5;stroke:#000000;"/>
   </g>
   <g id="patch_4">
    <path clip-path="url(#pf7a3a472c0)" d="
M92.7353 223.061
L98.2059 223.061
Q99.2891 223.061 99.2891 219.812
L99.2891 196.835
Q99.2891 193.586 98.2059 193.586
L92.7353 193.586
Q91.6521 193.586 91.6521 196.835
L91.6521 219.812
Q91.6521 223.061 92.7353 223.061
z
" style="fill:#008000;opacity:0.8;stroke:#000000;stroke-width:2;"/>
   </g>
   <g id="patch_5">
    <path clip-path="url(#pf7a3a472c0)" d="
M92.7353 190.238
L98.2059 190.238
Q99.2891 190.238 99.2891 186.988
L99.2891 164.012
Q99.2891 160.762 98.2059 160.762
L92.7353 160.762
Q91.6521 160.762 91.6521 164.012
L91.6521 186.988
Q91.6521 190.238 92.7353 190.238
z
" style="fill:#808080;opacity:0.5;stroke:#000000;"/>
   </g>
   <g id="patch_6">
    <path clip-path="url(#pf7a3a472c0)" d="
M92.7353 190.238
L98.2059 190.238
Q99.2891 190.238 99.2891 186.988
L99.2891 164.012
Q99.2891 160.762 98.2059 160.762
L92.7353 160.762
Q91.6521 160.762 91.6521 164.012
L91.6521 186.988
Q91.6521 190.238 92.7353 190.238
z
" style="fill:#008000;opacity:0.8;stroke:#000000;stroke-width:2;"/>
   </g>
   <g id="patch_7">
    <path clip-path="url(#pf7a3a472c0)" d="
M92.7353 157.414
L98.2059 157.414
Q99.2891 157.414 99.2891 154.165
L99.2891 131.188
Q99.2891 127.939 98.2059 127.939
L92.7353 127.939
Q91.6521 127.939 91.6521 131.188
L91.6521 154.165
Q91.6521 157.414 92.7353 157.414
z
" style="fill:#808080;opacity:0.5;stroke:#000000;"/>
   </g>
   <g id="patch_8">
    <path clip-path="url(#pf7a3a472c0)" d="
M92.7353 157.414
L98.2059 157.414
Q99.2891 157.414 99.2891 154.165
L99.2891 131.188
Q99.2891 127.939 98.2059 127.939
L92.7353 127.939
Q91.6521 127.939 91.6521 131.188
L91.6521 154.165
Q91.6521 157.414 92.7353 157.414
z
" style="fill:#008000;opacity:0.8;stroke:#000000;stroke-width:2;"/>
   </g>
   <g id="patch_9">
    <path clip-path="url(#pf7a3a472c0)" d="
M103.676 223.061
L109.147 223.061
Q110.23 223.061 110.23 219.812
L110.23 196.835
Q110.23 193.586 109.147 193.586
L103.676 193.586
Q102.593 193.586 102.593 196.835
L102.593 219.812
Q102.593 223.061 103.676 223.061
z
" style="fill:#808080;opacity:0.5;stroke:#000000;"/>
   </g>
   <g id="patch_10">
    <path clip-path="url(#pf7a3a472c0)" d="
M103.676 190.238
L109.147 190.238
Q110.23 190.238 110.23 186.988
L110.23 164.012
Q110.23 160.762 109.147 160.762
L103.676 160.762
Q102.593 160.762 102.593 164.012
L102.593 186.988
Q102.593 190.238 103.676 190.238
z
" style="fill:#808080;opacity:0.5;stroke:#000000;"/>
   </g>
   <g id="patch_11">
    <path clip-path="url(#pf7a3a472c0)" d="
M103.676 190.238
L109.147 190.238
Q110.23 190.238 110.23 186.988
L110.23 164.012
Q110.23 160.762 109.147 160.762
L103.676 160.762
Q102.593 160.762 102.593 164.012
L102.593 186.988
Q102.593 190.238 103.676 190.238
z
" style="fill:#008000;opacity:0.8;stroke:#000000;stroke-width:2;"/>
   </g>
   <g id="patch_12">
    <path clip-path="url(#pf7a3a472c0)" d="
M103.676 157.414
L109.147 157.414
Q110.23 157.414 110.23 154.165
L110.23 131.188
Q110.23 127.939 109.147 127.939
L103.676 127.939
Q102.593 127.939 102.593 131.188
L102.593 154.165
Q102.593 157.414 103.676 157.414
z
" style="fill:#808080;opacity:0.5;stroke:#000000;"/>
   </g>
   <g id="patch_13">
    <path clip-path="url(#pf7a3a472c0)" d="
M103.676 157.414
L109.147 157.414
Q110.23 157.414 110.23 154.165
L110.23 131.188
Q110.23 127.939 109.147 127.939
L103.676 127.939
Q102.593 127.939 102.593 131.188
L102.593 154.165
Q102.593 157.414 103.676 157.414
z
" style="fill:#008000;opacity:0.8;stroke:#000000;stroke-width:2;"/>
   </g>
   <g id="patch_14">
    <path clip-path="url(#pf7a3a472c0)" d="
M114.618 223.061
L120.088 223.061
Q121.171 223.061 121.171 219.812
L121.171 196.835
Q121.171 193.586 120.088 193.586
L114.618 193.586
Q113.534 193.586 113.534 196.835
L113.534 219.812
Q113.534 223.061 114.618 223.061
z
" style="fill:#808080;opacity:0.5;stroke:#000000;"/>
   </g>
   <g id="patch_15">
    <path clip-path="url(#pf7a3a472c0)" d="
M114.618 223.061
L120.088 223.061
Q121.171 223.061 121.171 219.812
L121.171 196.835
Q121.171 193.586 120.088 193.586
L114.618 193.586
Q113.534 193.586 113.534 196.835
L113.534 219.812
Q113.534 223.061 114.618 223.061
z
" style="fill:#008000;opacity:0.8;stroke:#000000;stroke-width:2;"/>
   </g>
   <g id="patch_16">
    <path clip-path="url(#pf7a3a472c0)" d="
M114.618 190.238
L120.088 190.238
Q121.171 190.238 121.171 186.988
L121.171 164.012
Q121.171 160.762 120.088 160.762
L114.618 160.762
Q113.534 160.762 113.534 164.012
L113.534 186.988
Q113.534 190.238 114.618 190.238
z
" style="fill:#808080;opacity:0.5;stroke:#000000;"/>
   </g>
   <g id="patch_17">
    <path clip-path="url(#pf7a3a472c0)" d="
M114.618 157.414
L120.088 157.414
Q121.171 157.414 121.171 154.165
L121.171 131.188
Q121.171 127.939 120.088 127.939
L114.618 127.939
Q113.534 127.939 113.534 131.188
L113.534 154.165
Q113.534 157.414 114.618 157.414
z
" style="fill:#808080;opacity:0.5;stroke:#000000;"/>
   </g>
   <g id="patch_18">
    <path clip-path="url(#pf7a3a472c0)" d="
M114.618 157.414
L120.088 157.414
Q121.171 157.414 121.171 154.165
L121.171 131.188
Q121.171 127.939 120.088 127.939
L114.618 127.939
Q113.534 127.939 113.534 131.188
L113.534 154.165
Q113.534 157.414 114.618 157.414
z
" style="fill:#008000;opacity:0.8;stroke:#000000;stroke-width:2;"/>
   </g>
   <g id="patch_19">
    <path clip-path="url(#pf7a3a472c0)" d="
M125.559 223.061
L131.029 223.061
Q132.113 223.061 132.113 219.812
L132.113 196.835
Q132.113 193.586 131.029 193.586
L125.559 193.586
Q124.476 193.586 124.476 196.835
L124.476 219.812
Q124.476 223.061 125.559 223.061
z
" style="fill:#808080;opacity:0.5;stroke:#000000;"/>
   </g>
   <g id="patch_20">
    <path clip-path="url(#pf7a3a472c0)" d="
M125.559 190.238
L131.029 190.238
Q132.113 190.238 132.113 186.988
L132.113 164.012
Q132.113 160.762 131.029 160.762
L125.559 160.762
Q124.476 160.762 124.476 164.012
L124.476 186.988
Q124.476 190.238 125.559 190.238
z
" style="fill:#808080;opacity:0.5;stroke:#000000;"/>
   </g>
   <g id="patch_21">
    <path clip-path="url(#pf7a3a472c0)" d="
M125.559 157.414
L131.029 157.414
Q132.113 157.414 132.113 154.165
L132.113 131.188
Q132.113 127.939 131.029 127.939
L125.559 127.939
Q124.476 127.939 124.476 131.188
L124.476 154.165
Q124.476 157.414 125.559 157.414
z
" style="fill:#808080;opacity:0.5;stroke:#000000;"/>
   </g>
   <g id="patch_22">
    <path clip-path="url(#pf7a3a472c0)" d="
M125.559 157.414
L131.029 157.414
Q132.113 157.414 132.113 154.165
L132.113 131.188
Q132.113 127.939 131.029 127.939
L125.559 127.939
Q124.476 127.939 124.476 131.188
L124.476 154.165
Q124.476 157.414 125.559 157.414
z
" style="fill:#008000;opacity:0.8;stroke:#000000;stroke-width:2;"/>
   </g>
   <g id="patch_23">
    <path clip-path="url(#pf7a3a472c0)" d="
M136.5 223.061
L141.971 223.061
Q143.054 223.061 143.054 219.812
L143.054 196.835
Q143.054 193.586 141.971 193.586
L136.5 193.586
Q135.417 193.586 135.417 196.835
L135.417 219.812
Q135.417 223.061 136.5 223.061
z
" style="fill:#808080;opacity:0.5;stroke:#000000;"/>
   </g>
   <g id="patch_24">
    <path clip-path="url(#pf7a3a472c0)" d="
M136.5 190.238
L141.971 190.238
Q143.054 190.238 143.054 186.988
L143.054 164.012
Q143.054 160.762 141.971 160.762
L136.5 160.762
Q135.417 160.762 135.417 164.012
L135.417 186.988
Q135.417 190.238 136.5 190.238
z
" style="fill:#808080;opacity:0.5;stroke:#000000;"/>
   </g>
   <g id="patch_25">
    <path clip-path="url(#pf7a3a472c0)" d="
M136.5 157.414
L141.971 157.414
Q143.054 157.414 143.054 154.165
L143.054 131.188
Q143.054 127.939 141.971 127.939
L136.5 127.939
Q135.417 127.939 135.417 131.188
L135.417 154.165
Q135.417 157.414 136.5 157.414
z
" style="fill:#808080;opacity:0.5;stroke:#000000;"/>
   </g>
   <g id="patch_26">
    <path clip-path="url(#pf7a3a472c0)" d="
M136.5 157.414
L141.971 157.414
Q143.054 157.414 143.054 154.165
L143.054 131.188
Q143.054 127.939 141.971 127.939
L136.5 127.939
Q135.417 127.939 135.417 131.188
L135.417 154.165
Q135.417 157.414 136.5 157.414
z
" style="fill:#008000;opacity:0.8;stroke:#000000;stroke-width:2;"/>
   </g>
   <g id="patch_27">
    <path clip-path="url(#pf7a3a472c0)" d="
M147.441 223.061
L152.912 223.061
Q153.995 223.061 153.995 219.812
L153.995 196.835
Q153.995 193.586 152.912 193.586
L147.441 193.586
Q146.358 193.586 146.358 196.835
L146.358 219.812
Q146.358 223.061 147.441 223.061
z
" style="fill:#808080;opacity:0.5;stroke:#000000;"/>
   </g>
   <g id="patch_28">
    <path clip-path="url(#pf7a3a472c0)" d="
M147.441 190.238
L152.912 190.238
Q153.995 190.238 153.995 186.988
L153.995 164.012
Q153.995 160.762 152.912 160.762
L147.441 160.762
Q146.358 160.762 146.358 164.012
L146.358 186.988
Q146.358 190.238 147.441 190.238
z
" style="fill:#808080;opacity:0.5;stroke:#000000;"/>
   </g>
   <g id="patch_29">
    <path clip-path="url(#pf7a3a472c0)" d="
M147.441 157.414
L152.912 157.414
Q153.995 157.414 153.995 154.165
L153.995 131.188
Q153.995 127.939 152.912 127.939
L147.441 127.939
Q146.358 127.939 146.358 131.188
L146.358 154.165
Q146.358 157.414 147.441 157.414
z
" style="fill:#808080;opacity:0.5;stroke:#000000;"/>
   </g>
   <g id="patch_30">
    <path clip-path="url(#pf7a3a472c0)" d="
M147.441 157.414
L152.912 157.414
Q153.995 157.414 153.995 154.165
L153.995 131.188
Q153.995 127.939 152.912 127.939
L147.441 127.939
Q146.358 127.939 146.358 131.188
L146.358 154.165
Q146.358 157.414 147.441 157.414
z
" style="fill:#008000;opacity:0.8;stroke:#000000;stroke-width:2;"/>
   </g>
   <g id="patch_31">
    <path clip-path="url(#pf7a3a472c0)" d="
M158.382 223.061
L163.853 223.061
Q164.936 223.061 164.936 219.812
L164.936 196.835
Q164.936 193.586 163.853 193.586
L158.382 193.586
Q157.299 193.586 157.299 196.835
L157.299 219.812
Q157.299 223.061 158.382 223.061
z
" style="fill:#808080;opacity:0.5;stroke:#000000;"/>
   </g>
   <g id="patch_32">
    <path clip-path="url(#pf7a3a472c0)" d="
M158.382 190.238
L163.853 190.238
Q164.936 190.238 164.936 186.988
L164.936 164.012
Q164.936 160.762 163.853 160.762
L158.382 160.762
Q157.299 160.762 157.299 164.012
L157.299 186.988
Q157.299 190.238 158.382 190.238
z
" style="fill:#808080;opacity:0.5;stroke:#000000;"/>
   </g>
   <g id="patch_33">
    <path clip-path="url(#pf7a3a472c0)" d="
M158.382 157.414
L163.853 157.414
Q164.936 157.414 164.936 154.165
L164.936 131.188
Q164.936 127.939 163.853 127.939
L158.382 127.939
Q157.299 127.939 157.299 131.188
L157.299 154.165
Q157.299 157.414 158.382 157.414
z
" style="fill:#808080;opacity:0.5;stroke:#000000;"/>
   </g>
   <g id="patch_34">
    <path clip-path="url(#pf7a3a472c0)" d="
M158.382 157.414
L163.853 157.414
Q164.936 157.414 164.936 154.165
L164.936 131.188
Q164.936 127.939 163.853 127.939
L158.382 127.939
Q157.299 127.939 157.299 131.188
L157.299 154.165
Q157.299 157.414 158.382 157.414
z
" style="fill:#008000;opacity:0.8;stroke:#000000;stroke-width:2;"/>
   </g>
   <g id="patch_35">
    <path clip-path="url(#pf7a3a472c0)" d="
M169.324 223.061
L174.794 223.061
Q175.877 223.061 175.877 219.812
L175.877 196.835
Q175.877 193.586 174.794 193.586
L169.324 193.586
Q168.24 193.586 168.24 196.835
L168.24 219.812
Q168.24 223.061 169.324 223.061
z
" style="fill:#808080;opacity:0.5;stroke:#000000;"/>
   </g>
   <g id="patch_36">
    <path clip-path="url(#pf7a3a472c0)" d="
M169.324 190.238
L174.794 190.238
Q175.877 190.238 175.877 186.988
L175.877 164.012
Q175.877 160.762 174.794 160.762
L169.324 160.762
Q168.24 160.762 168.24 164.012
L168.24 186.988
Q168.24 190.238 169.324 190.238
z
" style="fill:#808080;opacity:0.5;stroke:#000000;"/>
   </g>
   <g id="patch_37">
    <path clip-path="url(#pf7a3a472c0)" d="
M169.324 157.414
L174.794 157.414
Q175.877 157.414 175.877 154.165
L175.877 131.188
Q175.877 127.939 174.794 127.939
L169.324 127.939
Q168.24 127.939 168.24 131.188
L168.24 154.165
Q168.24 157.414 169.324 157.414
z
" style="fill:#808080;opacity:0.5;stroke:#000000;"/>
   </g>
   <g id="patch_38">
    <path clip-path="url(#pf7a3a472c0)" d="
M169.324 157.414
L174.794 157.414
Q175.877 157.414 175.877 154.165
L175.877 131.188
Q175.877 127.939 174.794 127.939
L169.324 127.939
Q168.24 127.939 168.24 131.188
L168.24 154.165
Q168.24 157.414 169.324 157.414
z
" style="fill:#008000;opacity:0.8;stroke:#000000;stroke-width:2;"/>
   </g>
   <g id="patch_39">
    <path clip-path="url(#pf7a3a472c0)" d="
M180.265 223.061
L185.735 223.061
Q186.818 223.061 186.818 219.812
L186.818 196.835
Q186.818 193.586 185.735 193.586
L180.265 193.586
Q179.182 193.586 179.182 196.835
L179.182 219.812
Q179.182 223.061 180.265 223.061
z
" style="fill:#808080;opacity:0.5;stroke:#000000;"/>
   </g>
   <g id="patch_40">
    <path clip-path="url(#pf7a3a472c0)" d="
M180.265 190.238
L185.735 190.238
Q186.818 190.238 186.818 186.988
L186.818 164.012
Q186.818 160.762 185.735 160.762
L180.265 160.762
Q179.182 160.762 179.182 164.012
L179.182 186.988
Q179.182 190.238 180.265 190.238
z
" style="fill:#808080;opacity:0.5;stroke:#000000;"/>
   </g>
   <g id="patch_41">
    <path clip-path="url(#pf7a3a472c0)" d="
M180.265 157.414
L185.735 157.414
Q186.818 157.414 186.818 154.165
L186.818 131.188
Q186.818 127.939 185.735 127.939
L180.265 127.939
Q179.182 127.939 179.182 131.188
L179.182 154.165
Q179.182 157.414 180.265 157.414
z
" style="fill:#808080;opacity:0.5;stroke:#000000;"/>
   </g>
   <g id="patch_42">
    <path clip-path="url(#pf7a3a472c0)" d="
M180.265 157.414
L185.735 157.414
Q186.818 157.414 186.818 154.165
L186.818 131.188
Q186.818 127.939 185.735 127.939
L180.265 127.939
Q179.182 127.939 179.182 131.188
L179.182 154.165
Q179.182 157.414 180.265 157.414
z
" style="fill:#008000;opacity:0.8;stroke:#000000;stroke-width:2;"/>
   </g>
   <g id="patch_43">
    <path clip-path="url(#pf7a3a472c0)" d="
M191.206 223.061
L196.676 223.061
Q197.76 223.061 197.76 219.812
L197.76 196.835
Q197.76 193.586 196.676 193.586
L191.206 193.586
Q190.123 193.586 190.123 196.835
L190.123 219.812
Q190.123 223.061 191.206 223.061
z
" style="fill:#808080;opacity:0.5;stroke:#000000;"/>
   </g>
   <g id="patch_44">
    <path clip-path="url(#pf7a3a472c0)" d="
M191.206 190.238
L196.676 190.238
Q197.76 190.238 197.76 186.988
L197.76 164.012
Q197.76 160.762 196.676 160.762
L191.206 160.762
Q190.123 160.762 190.123 164.012
L190.123 186.988
Q190.123 190.238 191.206 190.238
z
" style="fill:#808080;opacity:0.5;stroke:#000000;"/>
   </g>
   <g id="patch_45">
    <path clip-path="url(#pf7a3a472c0)" d="
M191.206 157.414
L196.676 157.414
Q197.76 157.414 197.76 154.165
L197.76 131.188
Q197.76 127.939 196.676 127.939
L191.206 127.939
Q190.123 127.939 190.123 131.188
L190.123 154.165
Q190.123 157.414 191.206 157.414
z
" style="fill:#808080;opacity:0.5;stroke:#000000;"/>
   </g>
   <g id="patch_46">
    <path clip-path="url(#pf7a3a472c0)" d="
M191.206 157.414
L196.676 157.414
Q197.76 157.414 197.76 154.165
L197.76 131.188
Q197.76 127.939 196.676 127.939
L191.206 127.939
Q190.123 127.939 190.123 131.188
L190.123 154.165
Q190.123 157.414 191.206 157.414
z
" style="fill:#008000;opacity:0.8;stroke:#000000;stroke-width:2;"/>
   </g>
   <g id="patch_47">
    <path clip-path="url(#pf7a3a472c0)" d="
M202.147 223.061
L207.618 223.061
Q208.701 223.061 208.701 219.812
L208.701 196.835
Q208.701 193.586 207.618 193.586
L202.147 193.586
Q201.064 193.586 201.064 196.835
L201.064 219.812
Q201.064 223.061 202.147 223.061
z
" style="fill:#808080;opacity:0.5;stroke:#000000;"/>
   </g>
   <g id="patch_48">
    <path clip-path="url(#pf7a3a472c0)" d="
M202.147 190.238
L207.618 190.238
Q208.701 190.238 208.701 186.988
L208.701 164.012
Q208.701 160.762 207.618 160.762
L202.147 160.762
Q201.064 160.762 201.064 164.012
L201.064 186.988
Q201.064 190.238 202.147 190.238
z
" style="fill:#808080;opacity:0.5;stroke:#000000;"/>
   </g>
   <g id="patch_49">
    <path clip-path="url(#pf7a3a472c0)" d="
M202.147 157.414
L207.618 157.414
Q208.701 157.414 208.701 154.165
L208.701 131.188
Q208.701 127.939 207.618 127.939
L202.147 127.939
Q201.064 127.939 201.064 131.188
L201.064 154.165
Q201.064 157.414 202.147 157.414
z
" style="fill:#808080;opacity:0.5;stroke:#000000;"/>
   </g>
   <g id="patch_50">
    <path clip-path="url(#pf7a3a472c0)" d="
M202.147 157.414
L207.618 157.414
Q208.701 157.414 208.701 154.165
L208.701 131.188
Q208.701 127.939 207.618 127.939
L202.147 127.939
Q201.064 127.939 201.064 131.188
L201.064 154.165
Q201.064 157.414 202.147 157.414
z
" style="fill:#008000;opacity:0.8;stroke:#000000;stroke-width:2;"/>
   </g>
   <g id="patch_51">
    <path clip-path="url(#pf7a3a472c0)" d="
M213.088 223.061
L218.559 223.061
Q219.642 223.061 219.642 219.812
L219.642 196.835
Q219.642 193.586 218.559 193.586
L213.088 193.586
Q212.005 193.586 212.005 196.835
L212.005 219.812
Q212.005 223.061 213.088 223.061
z
" style="fill:#808080;opacity:0.5;stroke:#000000;"/>
   </g>
   <g id="patch_52">
    <path clip-path="url(#pf7a3a472c0)" d="
M213.088 190.238
L218.559 190.238
Q219.642 190.238 219.642 186.988
L219.642 164.012
Q219.642 160.762 218.559 160.762
L213.088 160.762
Q212.005 160.762 212.005 164.012
L212.005 186.988
Q212.005 190.238 213.088 190.238
z
" style="fill:#808080;opacity:0.5;stroke:#000000;"/>
   </g>
   <g id="patch_53">
    <path clip-path="url(#pf7a3a472c0)" d="
M213.088 157.414
L218.559 157.414
Q219.642 157.414 219.642 154.165
L219.642 131.188
Q219.642 127.939 218.559 127.939
L213.088 127.939
Q212.005 127.939 212.005 131.188
L212.005 154.165
Q212.005 157.414 213.088 157.414
z
" style="fill:#808080;opacity:0.5;stroke:#000000;"/>
   </g>
   <g id="patch_54">
    <path clip-path="url(#pf7a3a472c0)" d="
M213.088 157.414
L218.559 157.414
Q219.642 157.414 219.642 154.165
L219.642 131.188
Q219.642 127.939 218.559 127.939
L213.088 127.939
Q212.005 127.939 212.005 131.188
L212.005 154.165
Q212.005 157.414 213.088 157.414
z
" style="fill:#008000;opacity:0.8;stroke:#000000;stroke-width:2;"/>
   </g>
   <g id="patch_55">
    <path clip-path="url(#pf7a3a472c0)" d="
M224.029 223.061
L229.5 223.061
Q230.583 223.061 230.583 219.812
L230.583 196.835
Q230.583 193.586 229.5 193.586
L224.029 193.586
Q222.946 193.586 222.946 196.835
L222.946 219.812
Q222.946 223.061 224.029 223.061
z
" style="fill:#808080;opacity:0.5;stroke:#000000;"/>
   </g>
   <g id="patch_56">
    <path clip-path="url(#pf7a3a472c0)" d="
M224.029 190.238
L229.5 190.238
Q230.583 190.238 230.583 186.988
L230.583 164.012
Q230.583 160.762 229.5 160.762
L224.029 160.762
Q222.946 160.762 222.946 164.012
L222.946 186.988
Q222.946 190.238 224.029 190.238
z
" style="fill:#808080;opacity:0.5;stroke:#000000;"/>
   </g>
   <g id="patch_57">
    <path clip-path="url(#pf7a3a472c0)" d="
M224.029 157.414
L229.5 157.414
Q230.583 157.414 230.583 154.165
L230.583 131.188
Q230.583 127.939 229.5 127.939
L224.029 127.939
Q222.946 127.939 222.946 131.188
L222.946 154.165
Q222.946 157.414 224.029 157.414
z
" style="fill:#808080;opacity:0.5;stroke:#000000;"/>
   </g>
   <g id="patch_58">
    <path clip-path="url(#pf7a3a472c0)" d="
M224.029 157.414
L229.5 157.414
Q230.583 157.414 230.583 154.165
L230.583 131.188
Q230.583 127.939 229.5 127.939
L224.029 127.939
Q222.946 127.939 222.946 131.188
L222.946 154.165
Q222.946 157.414 224.029 157.414
z
" style="fill:#008000;opacity:0.8;stroke:#000000;stroke-width:2;"/>
   </g>
   <g id="patch_59">
    <path clip-path="url(#pf7a3a472c0)" d="
M234.971 223.061
L240.441 223.061
Q241.524 223.061 241.524 219.812
L241.524 196.835
Q241.524 193.586 240.441 193.586
L234.971 193.586
Q233.887 193.586 233.887 196.835
L233.887 219.812
Q233.887 223.061 234.971 223.061
z
" style="fill:#808080;opacity:0.5;stroke:#000000;"/>
   </g>
   <g id="patch_60">
    <path clip-path="url(#pf7a3a472c0)" d="
M234.971 190.238
L240.441 190.238
Q241.524 190.238 241.524 186.988
L241.524 164.012
Q241.524 160.762 240.441 160.762
L234.971 160.762
Q233.887 160.762 233.887 164.012
L233.887 186.988
Q233.887 190.238 234.971 190.238
z
" style="fill:#808080;opacity:0.5;stroke:#000000;"/>
   </g>
   <g id="patch_61">
    <path clip-path="url(#pf7a3a472c0)" d="
M234.971 157.414
L240.441 157.414
Q241.524 157.414 241.524 154.165
L241.524 131.188
Q241.524 127.939 240.441 127.939
L234.971 127.939
Q233.887 127.939 233.887 131.188
L233.887 154.165
Q233.887 157.414 234.971 157.414
z
" style="fill:#808080;opacity:0.5;stroke:#000000;"/>
   </g>
   <g id="patch_62">
    <path clip-path="url(#pf7a3a472c0)" d="
M234.971 157.414
L240.441 157.414
Q241.524 157.414 241.524 154.165
L241.524 131.188
Q241.524 127.939 240.441 127.939
L234.971 127.939
Q233.887 127.939 233.887 131.188
L233.887 154.165
Q233.887 157.414 234.971 157.414
z
" style="fill:#008000;opacity:0.8;stroke:#000000;stroke-width:2;"/>
   </g>
   <g id="patch_63">
    <path clip-path="url(#pf7a3a472c0)" d="
M245.912 223.061
L251.382 223.061
Q252.466 223.061 252.466 219.812
L252.466 196.835
Q252.466 193.586 251.382 193.586
L245.912 193.586
Q244.829 193.586 244.829 196.835
L244.829 219.812
Q244.829 223.061 245.912 223.061
z
" style="fill:#808080;opacity:0.5;stroke:#000000;"/>
   </g>
   <g id="patch_64">
    <path clip-path="url(#pf7a3a472c0)" d="
M245.912 190.238
L251.382 190.238
Q252.466 190.238 252.466 186.988
L252.466 164.012
Q252.466 160.762 251.382 160.762
L245.912 160.762
Q244.829 160.762 244.829 164.012
L244.829 186.988
Q244.829 190.238 245.912 190.238
z
" style="fill:#808080;opacity:0.5;stroke:#000000;"/>
   </g>
   <g id="patch_65">
    <path clip-path="url(#pf7a3a472c0)" d="
M245.912 157.414
L251.382 157.414
Q252.466 157.414 252.466 154.165
L252.466 131.188
Q252.466 127.939 251.382 127.939
L245.912 127.939
Q244.829 127.939 244.829 131.188
L244.829 154.165
Q244.829 157.414 245.912 157.414
z
" style="fill:#808080;opacity:0.5;stroke:#000000;"/>
   </g>
   <g id="patch_66">
    <path clip-path="url(#pf7a3a472c0)" d="
M245.912 157.414
L251.382 157.414
Q252.466 157.414 252.466 154.165
L252.466 131.188
Q252.466 127.939 251.382 127.939
L245.912 127.939
Q244.829 127.939 244.829 131.188
L244.829 154.165
Q244.829 157.414 245.912 157.414
z
" style="fill:#008000;opacity:0.8;stroke:#000000;stroke-width:2;"/>
   </g>
   <g id="patch_67">
    <path clip-path="url(#pf7a3a472c0)" d="
M256.853 223.061
L262.324 223.061
Q263.407 223.061 263.407 219.812
L263.407 196.835
Q263.407 193.586 262.324 193.586
L256.853 193.586
Q255.77 193.586 255.77 196.835
L255.77 219.812
Q255.77 223.061 256.853 223.061
z
" style="fill:#808080;opacity:0.5;stroke:#000000;"/>
   </g>
   <g id="patch_68">
    <path clip-path="url(#pf7a3a472c0)" d="
M256.853 223.061
L262.324 223.061
Q263.407 223.061 263.407 219.812
L263.407 196.835
Q263.407 193.586 262.324 193.586
L256.853 193.586
Q255.77 193.586 255.77 196.835
L255.77 219.812
Q255.77 223.061 256.853 223.061
z
" style="fill:#008000;opacity:0.8;stroke:#000000;stroke-width:2;"/>
   </g>
   <g id="patch_69">
    <path clip-path="url(#pf7a3a472c0)" d="
M256.853 190.238
L262.324 190.238
Q263.407 190.238 263.407 186.988
L263.407 164.012
Q263.407 160.762 262.324 160.762
L256.853 160.762
Q255.77 160.762 255.77 164.012
L255.77 186.988
Q255.77 190.238 256.853 190.238
z
" style="fill:#808080;opacity:0.5;stroke:#000000;"/>
   </g>
   <g id="patch_70">
    <path clip-path="url(#pf7a3a472c0)" d="
M256.853 190.238
L262.324 190.238
Q263.407 190.238 263.407 186.988
L263.407 164.012
Q263.407 160.762 262.324 160.762
L256.853 160.762
Q255.77 160.762 255.77 164.012
L255.77 186.988
Q255.77 190.238 256.853 190.238
z
" style="fill:#008000;opacity:0.8;stroke:#000000;stroke-width:2;"/>
   </g>
   <g id="patch_71">
    <path clip-path="url(#pf7a3a472c0)" d="
M256.853 157.414
L262.324 157.414
Q263.407 157.414 263.407 154.165
L263.407 131.188
Q263.407 127.939 262.324 127.939
L256.853 127.939
Q255.77 127.939 255.77 131.188
L255.77 154.165
Q255.77 157.414 256.853 157.414
z
" style="fill:#808080;opacity:0.5;stroke:#000000;"/>
   </g>
   <g id="patch_72">
    <path clip-path="url(#pf7a3a472c0)" d="
M267.794 223.061
L273.265 223.061
Q274.348 223.061 274.348 219.812
L274.348 196.835
Q274.348 193.586 273.265 193.586
L267.794 193.586
Q266.711 193.586 266.711 196.835
L266.711 219.812
Q266.711 223.061 267.794 223.061
z
" style="fill:#808080;opacity:0.5;stroke:#000000;"/>
   </g>
   <g id="patch_73">
    <path clip-path="url(#pf7a3a472c0)" d="
M267.794 223.061
L273.265 223.061
Q274.348 223.061 274.348 219.812
L274.348 196.835
Q274.348 193.586 273.265 193.586
L267.794 193.586
Q266.711 193.586 266.711 196.835
L266.711 219.812
Q266.711 223.061 267.794 223.061
z
" style="fill:#008000;opacity:0.8;stroke:#000000;stroke-width:2;"/>
   </g>
   <g id="patch_74">
    <path clip-path="url(#pf7a3a472c0)" d="
M267.794 190.238
L273.265 190.238
Q274.348 190.238 274.348 186.988
L274.348 164.012
Q274.348 160.762 273.265 160.762
L267.794 160.762
Q266.711 160.762 266.711 164.012
L266.711 186.988
Q266.711 190.238 267.794 190.238
z
" style="fill:#808080;opacity:0.5;stroke:#000000;"/>
   </g>
   <g id="patch_75">
    <path clip-path="url(#pf7a3a472c0)" d="
M267.794 190.238
L273.265 190.238
Q274.348 190.238 274.348 186.988
L274.348 164.012
Q274.348 160.762 273.265 160.762
L267.794 160.762
Q266.711 160.762 266.711 164.012
L266.711 186.988
Q266.711 190.238 267.794 190.238
z
" style="fill:#008000;opacity:0.8;stroke:#000000;stroke-width:2;"/>
   </g>
   <g id="patch_76">
    <path clip-path="url(#pf7a3a472c0)" d="
M267.794 157.414
L273.265 157.414
Q274.348 157.414 274.348 154.165
L274.348 131.188
Q274.348 127.939 273.265 127.939
L267.794 127.939
Q266.711 127.939 266.711 131.188
L266.711 154.165
Q266.711 157.414 267.794 157.414
z
" style="fill:#808080;opacity:0.5;stroke:#000000;"/>
   </g>
   <g id="patch_77">
    <path clip-path="url(#pf7a3a472c0)" d="
M278.735 223.061
L284.206 223.061
Q285.289 223.061 285.289 219.812
L285.289 196.835
Q285.289 193.586 284.206 193.586
L278.735 193.586
Q277.652 193.586 277.652 196.835
L277.652 219.812
Q277.652 223.061 278.735 223.061
z
" style="fill:#808080;opacity:0.5;stroke:#000000;"/>
   </g>
   <g id="patch_78">
    <path clip-path="url(#pf7a3a472c0)" d="
M278.735 223.061
L284.206 223.061
Q285.289 223.061 285.289 219.812
L285.289 196.835
Q285.289 193.586 284.206 193.586
L278.735 193.586
Q277.652 193.586 277.652 196.835
L277.652 219.812
Q277.652 223.061 278.735 223.061
z
" style="fill:#008000;opacity:0.8;stroke:#000000;stroke-width:2;"/>
   </g>
   <g id="patch_79">
    <path clip-path="url(#pf7a3a472c0)" d="
M278.735 190.238
L284.206 190.238
Q285.289 190.238 285.289 186.988
L285.289 164.012
Q285.289 160.762 284.206 160.762
L278.735 160.762
Q277.652 160.762 277.652 164.012
L277.652 186.988
Q277.652 190.238 278.735 190.238
z
" style="fill:#808080;opacity:0.5;stroke:#000000;"/>
   </g>
   <g id="patch_80">
    <path clip-path="url(#pf7a3a472c0)" d="
M278.735 190.238
L284.206 190.238
Q285.289 190.238 285.289 186.988
L285.289 164.012
Q285.289 160.762 284.206 160.762
L278.735 160.762
Q277.652 160.762 277.652 164.012
L277.652 186.988
Q277.652 190.238 278.735 190.238
z
" style="fill:#008000;opacity:0.8;stroke:#000000;stroke-width:2;"/>
   </g>
   <g id="patch_81">
    <path clip-path="url(#pf7a3a472c0)" d="
M278.735 157.414
L284.206 157.414
Q285.289 157.414 285.289 154.165
L285.289 131.188
Q285.289 127.939 284.206 127.939
L278.735 127.939
Q277.652 127.939 277.652 131.188
L277.652 154.165
Q277.652 157.414 278.735 157.414
z
" style="fill:#808080;opacity:0.5;stroke:#000000;"/>
   </g>
   <g id="patch_82">
    <path clip-path="url(#pf7a3a472c0)" d="
M289.676 223.061
L295.147 223.061
Q296.23 223.061 296.23 219.812
L296.23 196.835
Q296.23 193.586 295.147 193.586
L289.676 193.586
Q288.593 193.586 288.593 196.835
L288.593 219.812
Q288.593 223.061 289.676 223.061
z
" style="fill:#808080;opacity:0.5;stroke:#000000;"/>
   </g>
   <g id="patch_83">
    <path clip-path="url(#pf7a3a472c0)" d="
M289.676 190.238
L295.147 190.238
Q296.23 190.238 296.23 186.988
L296.23 164.012
Q296.23 160.762 295.147 160.762
L289.676 160.762
Q288.593 160.762 288.593 164.012
L288.593 186.988
Q288.593 190.238 289.676 190.238
z
" style="fill:#808080;opacity:0.5;stroke:#000000;"/>
   </g>
   <g id="patch_84">
    <path clip-path="url(#pf7a3a472c0)" d="
M289.676 190.238
L295.147 190.238
Q296.23 190.238 296.23 186.988
L296.23 164.012
Q296.23 160.762 295.147 160.762
L289.676 160.762
Q288.593 160.762 288.593 164.012
L288.593 186.988
Q288.593 190.238 289.676 190.238
z
" style="fill:#008000;opacity:0.8;stroke:#000000;stroke-width:2;"/>
   </g>
   <g id="patch_85">
    <path clip-path="url(#pf7a3a472c0)" d="
M289.676 157.414
L295.147 157.414
Q296.23 157.414 296.23 154.165
L296.23 131.188
Q296.23 127.939 295.147 127.939
L289.676 127.939
Q288.593 127.939 288.593 131.188
L288.593 154.165
Q288.593 157.414 289.676 157.414
z
" style="fill:#808080;opacity:0.5;stroke:#000000;"/>
   </g>
   <g id="patch_86">
    <path clip-path="url(#pf7a3a472c0)" d="
M300.618 223.061
L306.088 223.061
Q307.171 223.061 307.171 219.812
L307.171 196.835
Q307.171 193.586 306.088 193.586
L300.618 193.586
Q299.534 193.586 299.534 196.835
L299.534 219.812
Q299.534 223.061 300.618 223.061
z
" style="fill:#808080;opacity:0.5;stroke:#000000;"/>
   </g>
   <g id="patch_87">
    <path clip-path="url(#pf7a3a472c0)" d="
M300.618 190.238
L306.088 190.238
Q307.171 190.238 307.171 186.988
L307.171 164.012
Q307.171 160.762 306.088 160.762
L300.618 160.762
Q299.534 160.762 299.534 164.012
L299.534 186.988
Q299.534 190.238 300.618 190.238
z
" style="fill:#808080;opacity:0.5;stroke:#000000;"/>
   </g>
   <g id="patch_88">
    <path clip-path="url(#pf7a3a472c0)" d="
M300.618 190.238
L306.088 190.238
Q307.171 190.238 307.171 186.988
L307.171 164.012
Q307.171 160.762 306.088 160.762
L300.618 160.762
Q299.534 160.762 299.534 164.012
L299.534 186.988
Q299.534 190.238 300.618 190.238
z
" style="fill:#008000;opacity:0.8;stroke:#000000;stroke-width:2;"/>
   </g>
   <g id="patch_89">
    <path clip-path="url(#pf7a3a472c0)" d="
M300.618 157.414
L306.088 157.414
Q307.171 157.414 307.171 154.165
L307.171 131.188
Q307.171 127.939 306.088 127.939
L300.618 127.939
Q299.534 127.939 299.534 131.188
L299.534 154.165
Q299.534 157.414 300.618 157.414
z
" style="fill:#808080;opacity:0.5;stroke:#000000;"/>
   </g>
   <g id="patch_90">
    <path clip-path="url(#pf7a3a472c0)" d="
M311.559 223.061
L317.029 223.061
Q318.113 223.061 318.113 219.812
L318.113 196.835
Q318.113 193.586 317.029 193.586
L311.559 193.586
Q310.476 193.586 310.476 196.835
L310.476 219.812
Q310.476 223.061 311.559 223.061
z
" style="fill:#808080;opacity:0.5;stroke:#000000;"/>
   </g>
   <g id="patch_91">
    <path clip-path="url(#pf7a3a472c0)" d="
M311.559 190.238
L317.029 190.238
Q318.113 190.238 318.113 186.988
L318.113 164.012
Q318.113 160.762 317.029 160.762
L311.559 160.762
Q310.476 160.762 310.476 164.012
L310.476 186.988
Q310.476 190.238 311.559 190.238
z
" style="fill:#808080;opacity:0.5;stroke:#000000;"/>
   </g>
   <g id="patch_92">
    <path clip-path="url(#pf7a3a472c0)" d="
M311.559 190.238
L317.029 190.238
Q318.113 190.238 318.113 186.988
L318.113 164.012
Q318.113 160.762 317.029 160.762
L311.559 160.762
Q310.476 160.762 310.476 164.012
L310.476 186.988
Q310.476 190.238 311.559 190.238
z
" style="fill:#008000;opacity:0.8;stroke:#000000;stroke-width:2;"/>
   </g>
   <g id="patch_93">
    <path clip-path="url(#pf7a3a472c0)" d="
M311.559 157.414
L317.029 157.414
Q318.113 157.414 318.113 154.165
L318.113 131.188
Q318.113 127.939 317.029 127.939
L311.559 127.939
Q310.476 127.939 310.476 131.188
L310.476 154.165
Q310.476 157.414 311.559 157.414
z
" style="fill:#808080;opacity:0.5;stroke:#000000;"/>
   </g>
   <g id="patch_94">
    <path clip-path="url(#pf7a3a472c0)" d="
M322.5 223.061
L327.971 223.061
Q329.054 223.061 329.054 219.812
L329.054 196.835
Q329.054 193.586 327.971 193.586
L322.5 193.586
Q321.417 193.586 321.417 196.835
L321.417 219.812
Q321.417 223.061 322.5 223.061
z
" style="fill:#808080;opacity:0.5;stroke:#000000;"/>
   </g>
   <g id="patch_95">
    <path clip-path="url(#pf7a3a472c0)" d="
M322.5 190.238
L327.971 190.238
Q329.054 190.238 329.054 186.988
L329.054 164.012
Q329.054 160.762 327.971 160.762
L322.5 160.762
Q321.417 160.762 321.417 164.012
L321.417 186.988
Q321.417 190.238 322.5 190.238
z
" style="fill:#808080;opacity:0.5;stroke:#000000;"/>
   </g>
   <g id="patch_96">
    <path clip-path="url(#pf7a3a472c0)" d="
M322.5 190.238
L327.971 190.238
Q329.054 190.238 329.054 186.988
L329.054 164.012
Q329.054 160.762 327.971 160.762
L322.5 160.762
Q321.417 160.762 321.417 164.012
L321.417 186.988
Q321.417 190.238 322.5 190.238
z
" style="fill:#008000;opacity:0.8;stroke:#000000;stroke-width:2;"/>
   </g>
   <g id="patch_97">
    <path clip-path="url(#pf7a3a472c0)" d="
M322.5 157.414
L327.971 157.414
Q329.054 157.414 329.054 154.165
L329.054 131.188
Q329.054 127.939 327.971 127.939
L322.5 127.939
Q321.417 127.939 321.417 131.188
L321.417 154.165
Q321.417 157.414 322.5 157.414
z
" style="fill:#808080;opacity:0.5;stroke:#000000;"/>
   </g>
   <g id="patch_98">
    <path clip-path="url(#pf7a3a472c0)" d="
M333.441 223.061
L338.912 223.061
Q339.995 223.061 339.995 219.812
L339.995 196.835
Q339.995 193.586 338.912 193.586
L333.441 193.586
Q332.358 193.586 332.358 196.835
L332.358 219.812
Q332.358 223.061 333.441 223.061
z
" style="fill:#808080;opacity:0.5;stroke:#000000;"/>
   </g>
   <g id="patch_99">
    <path clip-path="url(#pf7a3a472c0)" d="
M333.441 190.238
L338.912 190.238
Q339.995 190.238 339.995 186.988
L339.995 164.012
Q339.995 160.762 338.912 160.762
L333.441 160.762
Q332.358 160.762 332.358 164.012
L332.358 186.988
Q332.358 190.238 333.441 190.238
z
" style="fill:#808080;opacity:0.5;stroke:#000000;"/>
   </g>
   <g id="patch_100">
    <path clip-path="url(#pf7a3a472c0)" d="
M333.441 190.238
L338.912 190.238
Q339.995 190.238 339.995 186.988
L339.995 164.012
Q339.995 160.762 338.912 160.762
L333.441 160.762
Q332.358 160.762 332.358 164.012
L332.358 186.988
Q332.358 190.238 333.441 190.238
z
" style="fill:#008000;opacity:0.8;stroke:#000000;stroke-width:2;"/>
   </g>
   <g id="patch_101">
    <path clip-path="url(#pf7a3a472c0)" d="
M333.441 157.414
L338.912 157.414
Q339.995 157.414 339.995 154.165
L339.995 131.188
Q339.995 127.939 338.912 127.939
L333.441 127.939
Q332.358 127.939 332.358 131.188
L332.358 154.165
Q332.358 157.414 333.441 157.414
z
" style="fill:#808080;opacity:0.5;stroke:#000000;"/>
   </g>
   <g id="patch_102">
    <path clip-path="url(#pf7a3a472c0)" d="
M344.382 223.061
L349.853 223.061
Q350.936 223.061 350.936 219.812
L350.936 196.835
Q350.936 193.586 349.853 193.586
L344.382 193.586
Q343.299 193.586 343.299 196.835
L343.299 219.812
Q343.299 223.061 344.382 223.061
z
" style="fill:#808080;opacity:0.5;stroke:#000000;"/>
   </g>
   <g id="patch_103">
    <path clip-path="url(#pf7a3a472c0)" d="
M344.382 190.238
L349.853 190.238
Q350.936 190.238 350.936 186.988
L350.936 164.012
Q350.936 160.762 349.853 160.762
L344.382 160.762
Q343.299 160.762 343.299 164.012
L343.299 186.988
Q343.299 190.238 344.382 190.238
z
" style="fill:#808080;opacity:0.5;stroke:#000000;"/>
   </g>
   <g id="patch_104">
    <path clip-path="url(#pf7a3a472c0)" d="
M344.382 190.238
L349.853 190.238
Q350.936 190.238 350.936 186.988
L350.936 164.012
Q350.936 160.762 349.853 160.762
L344.382 160.762
Q343.299 160.762 343.299 164.012
L343.299 186.988
Q343.299 190.238 344.382 190.238
z
" style="fill:#008000;opacity:0.8;stroke:#000000;stroke-width:2;"/>
   </g>
   <g id="patch_105">
    <path clip-path="url(#pf7a3a472c0)" d="
M344.382 157.414
L349.853 157.414
Q350.936 157.414 350.936 154.165
L350.936 131.188
Q350.936 127.939 349.853 127.939
L344.382 127.939
Q343.299 127.939 343.299 131.188
L343.299 154.165
Q343.299 157.414 344.382 157.414
z
" style="fill:#808080;opacity:0.5;stroke:#000000;"/>
   </g>
   <g id="patch_106">
    <path clip-path="url(#pf7a3a472c0)" d="
M355.324 223.061
L360.794 223.061
Q361.877 223.061 361.877 219.812
L361.877 196.835
Q361.877 193.586 360.794 193.586
L355.324 193.586
Q354.24 193.586 354.24 196.835
L354.24 219.812
Q354.24 223.061 355.324 223.061
z
" style="fill:#808080;opacity:0.5;stroke:#000000;"/>
   </g>
   <g id="patch_107">
    <path clip-path="url(#pf7a3a472c0)" d="
M355.324 190.238
L360.794 190.238
Q361.877 190.238 361.877 186.988
L361.877 164.012
Q361.877 160.762 360.794 160.762
L355.324 160.762
Q354.24 160.762 354.24 164.012
L354.24 186.988
Q354.24 190.238 355.324 190.238
z
" style="fill:#808080;opacity:0.5;stroke:#000000;"/>
   </g>
   <g id="patch_108">
    <path clip-path="url(#pf7a3a472c0)" d="
M355.324 190.238
L360.794 190.238
Q361.877 190.238 361.877 186.988
L361.877 164.012
Q361.877 160.762 360.794 160.762
L355.324 160.762
Q354.24 160.762 354.24 164.012
L354.24 186.988
Q354.24 190.238 355.324 190.238
z
" style="fill:#008000;opacity:0.8;stroke:#000000;stroke-width:2;"/>
   </g>
   <g id="patch_109">
    <path clip-path="url(#pf7a3a472c0)" d="
M355.324 157.414
L360.794 157.414
Q361.877 157.414 361.877 154.165
L361.877 131.188
Q361.877 127.939 360.794 127.939
L355.324 127.939
Q354.24 127.939 354.24 131.188
L354.24 154.165
Q354.24 157.414 355.324 157.414
z
" style="fill:#808080;opacity:0.5;stroke:#000000;"/>
   </g>
   <g id="patch_110">
    <path clip-path="url(#pf7a3a472c0)" d="
M366.265 223.061
L371.735 223.061
Q372.818 223.061 372.818 219.812
L372.818 196.835
Q372.818 193.586 371.735 193.586
L366.265 193.586
Q365.182 193.586 365.182 196.835
L365.182 219.812
Q365.182 223.061 366.265 223.061
z
" style="fill:#808080;opacity:0.5;stroke:#000000;"/>
   </g>
   <g id="patch_111">
    <path clip-path="url(#pf7a3a472c0)" d="
M366.265 190.238
L371.735 190.238
Q372.818 190.238 372.818 186.988
L372.818 164.012
Q372.818 160.762 371.735 160.762
L366.265 160.762
Q365.182 160.762 365.182 164.012
L365.182 186.988
Q365.182 190.238 366.265 190.238
z
" style="fill:#808080;opacity:0.5;stroke:#000000;"/>
   </g>
   <g id="patch_112">
    <path clip-path="url(#pf7a3a472c0)" d="
M366.265 190.238
L371.735 190.238
Q372.818 190.238 372.818 186.988
L372.818 164.012
Q372.818 160.762 371.735 160.762
L366.265 160.762
Q365.182 160.762 365.182 164.012
L365.182 186.988
Q365.182 190.238 366.265 190.238
z
" style="fill:#008000;opacity:0.8;stroke:#000000;stroke-width:2;"/>
   </g>
   <g id="patch_113">
    <path clip-path="url(#pf7a3a472c0)" d="
M366.265 157.414
L371.735 157.414
Q372.818 157.414 372.818 154.165
L372.818 131.188
Q372.818 127.939 371.735 127.939
L366.265 127.939
Q365.182 127.939 365.182 131.188
L365.182 154.165
Q365.182 157.414 366.265 157.414
z
" style="fill:#808080;opacity:0.5;stroke:#000000;"/>
   </g>
   <g id="patch_114">
    <path clip-path="url(#pf7a3a472c0)" d="
M377.206 223.061
L382.676 223.061
Q383.76 223.061 383.76 219.812
L383.76 196.835
Q383.76 193.586 382.676 193.586
L377.206 193.586
Q376.123 193.586 376.123 196.835
L376.123 219.812
Q376.123 223.061 377.206 223.061
z
" style="fill:#808080;opacity:0.5;stroke:#000000;"/>
   </g>
   <g id="patch_115">
    <path clip-path="url(#pf7a3a472c0)" d="
M377.206 190.238
L382.676 190.238
Q383.76 190.238 383.76 186.988
L383.76 164.012
Q383.76 160.762 382.676 160.762
L377.206 160.762
Q376.123 160.762 376.123 164.012
L376.123 186.988
Q376.123 190.238 377.206 190.238
z
" style="fill:#808080;opacity:0.5;stroke:#000000;"/>
   </g>
   <g id="patch_116">
    <path clip-path="url(#pf7a3a472c0)" d="
M377.206 190.238
L382.676 190.238
Q383.76 190.238 383.76 186.988
L383.76 164.012
Q383.76 160.762 382.676 160.762
L377.206 160.762
Q376.123 160.762 376.123 164.012
L376.123 186.988
Q376.123 190.238 377.206 190.238
z
" style="fill:#008000;opacity:0.8;stroke:#000000;stroke-width:2;"/>
   </g>
   <g id="patch_117">
    <path clip-path="url(#pf7a3a472c0)" d="
M377.206 157.414
L382.676 157.414
Q383.76 157.414 383.76 154.165
L383.76 131.188
Q383.76 127.939 382.676 127.939
L377.206 127.939
Q376.123 127.939 376.123 131.188
L376.123 154.165
Q376.123 157.414 377.206 157.414
z
" style="fill:#808080;opacity:0.5;stroke:#000000;"/>
   </g>
   <g id="patch_118">
    <path clip-path="url(#pf7a3a472c0)" d="
M388.147 223.061
L393.618 223.061
Q394.701 223.061 394.701 219.812
L394.701 196.835
Q394.701 193.586 393.618 193.586
L388.147 193.586
Q387.064 193.586 387.064 196.835
L387.064 219.812
Q387.064 223.061 388.147 223.061
z
" style="fill:#808080;opacity:0.5;stroke:#000000;"/>
   </g>
   <g id="patch_119">
    <path clip-path="url(#pf7a3a472c0)" d="
M388.147 190.238
L393.618 190.238
Q394.701 190.238 394.701 186.988
L394.701 164.012
Q394.701 160.762 393.618 160.762
L388.147 160.762
Q387.064 160.762 387.064 164.012
L387.064 186.988
Q387.064 190.238 388.147 190.238
z
" style="fill:#808080;opacity:0.5;stroke:#000000;"/>
   </g>
   <g id="patch_120">
    <path clip-path="url(#pf7a3a472c0)" d="
M388.147 190.238
L393.618 190.238
Q394.701 190.238 394.701 186.988
L394.701 164.012
Q394.701 160.762 393.618 160.762
L388.147 160.762
Q387.064 160.762 387.064 164.012
L387.064 186.988
Q387.064 190.238 388.147 190.238
z
" style="fill:#008000;opacity:0.8;stroke:#000000;stroke-width:2;"/>
   </g>
   <g id="patch_121">
    <path clip-path="url(#pf7a3a472c0)" d="
M388.147 157.414
L393.618 157.414
Q394.701 157.414 394.701 154.165
L394.701 131.188
Q394.701 127.939 393.618 127.939
L388.147 127.939
Q387.064 127.939 387.064 131.188
L387.064 154.165
Q387.064 157.414 388.147 157.414
z
" style="fill:#808080;opacity:0.5;stroke:#000000;"/>
   </g>
   <g id="patch_122">
    <path clip-path="url(#pf7a3a472c0)" d="
M399.088 223.061
L404.559 223.061
Q405.642 223.061 405.642 219.812
L405.642 196.835
Q405.642 193.586 404.559 193.586
L399.088 193.586
Q398.005 193.586 398.005 196.835
L398.005 219.812
Q398.005 223.061 399.088 223.061
z
" style="fill:#808080;opacity:0.5;stroke:#000000;"/>
   </g>
   <g id="patch_123">
    <path clip-path="url(#pf7a3a472c0)" d="
M399.088 190.238
L404.559 190.238
Q405.642 190.238 405.642 186.988
L405.642 164.012
Q405.642 160.762 404.559 160.762
L399.088 160.762
Q398.005 160.762 398.005 164.012
L398.005 186.988
Q398.005 190.238 399.088 190.238
z
" style="fill:#808080;opacity:0.5;stroke:#000000;"/>
   </g>
   <g id="patch_124">
    <path clip-path="url(#pf7a3a472c0)" d="
M399.088 190.238
L404.559 190.238
Q405.642 190.238 405.642 186.988
L405.642 164.012
Q405.642 160.762 404.559 160.762
L399.088 160.762
Q398.005 160.762 398.005 164.012
L398.005 186.988
Q398.005 190.238 399.088 190.238
z
" style="fill:#008000;opacity:0.8;stroke:#000000;stroke-width:2;"/>
   </g>
   <g id="patch_125">
    <path clip-path="url(#pf7a3a472c0)" d="
M399.088 157.414
L404.559 157.414
Q405.642 157.414 405.642 154.165
L405.642 131.188
Q405.642 127.939 404.559 127.939
L399.088 127.939
Q398.005 127.939 398.005 131.188
L398.005 154.165
Q398.005 157.414 399.088 157.414
z
" style="fill:#808080;opacity:0.5;stroke:#000000;"/>
   </g>
   <g id="patch_126">
    <path clip-path="url(#pf7a3a472c0)" d="
M410.029 223.061
L415.5 223.061
Q416.583 223.061 416.583 219.812
L416.583 196.835
Q416.583 193.586 415.5 193.586
L410.029 193.586
Q408.946 193.586 408.946 196.835
L408.946 219.812
Q408.946 223.061 410.029 223.061
z
" style="fill:#808080;opacity:0.5;stroke:#000000;"/>
   </g>
   <g id="patch_127">
    <path clip-path="url(#pf7a3a472c0)" d="
M410.029 190.238
L415.5 190.238
Q416.583 190.238 416.583 186.988
L416.583 164.012
Q416.583 160.762 415.5 160.762
L410.029 160.762
Q408.946 160.762 408.946 164.012
L408.946 186.988
Q408.946 190.238 410.029 190.238
z
" style="fill:#808080;opacity:0.5;stroke:#000000;"/>
   </g>
   <g id="patch_128">
    <path clip-path="url(#pf7a3a472c0)" d="
M410.029 190.238
L415.5 190.238
Q416.583 190.238 416.583 186.988
L416.583 164.012
Q416.583 160.762 415.5 160.762
L410.029 160.762
Q408.946 160.762 408.946 164.012
L408.946 186.988
Q408.946 190.238 410.029 190.238
z
" style="fill:#008000;opacity:0.8;stroke:#000000;stroke-width:2;"/>
   </g>
   <g id="patch_129">
    <path clip-path="url(#pf7a3a472c0)" d="
M410.029 157.414
L415.5 157.414
Q416.583 157.414 416.583 154.165
L416.583 131.188
Q416.583 127.939 415.5 127.939
L410.029 127.939
Q408.946 127.939 408.946 131.188
L408.946 154.165
Q408.946 157.414 410.029 157.414
z
" style="fill:#808080;opacity:0.5;stroke:#000000;"/>
   </g>
   <g id="patch_130">
    <path clip-path="url(#pf7a3a472c0)" d="
M420.971 223.061
L426.441 223.061
Q427.524 223.061 427.524 219.812
L427.524 196.835
Q427.524 193.586 426.441 193.586
L420.971 193.586
Q419.887 193.586 419.887 196.835
L419.887 219.812
Q419.887 223.061 420.971 223.061
z
" style="fill:#808080;opacity:0.5;stroke:#000000;"/>
   </g>
   <g id="patch_131">
    <path clip-path="url(#pf7a3a472c0)" d="
M420.971 190.238
L426.441 190.238
Q427.524 190.238 427.524 186.988
L427.524 164.012
Q427.524 160.762 426.441 160.762
L420.971 160.762
Q419.887 160.762 419.887 164.012
L419.887 186.988
Q419.887 190.238 420.971 190.238
z
" style="fill:#808080;opacity:0.5;stroke:#000000;"/>
   </g>
   <g id="patch_132">
    <path clip-path="url(#pf7a3a472c0)" d="
M420.971 190.238
L426.441 190.238
Q427.524 190.238 427.524 186.988
L427.524 164.012
Q427.524 160.762 426.441 160.762
L420.971 160.762
Q419.887 160.762 419.887 164.012
L419.887 186.988
Q419.887 190.238 420.971 190.238
z
" style="fill:#008000;opacity:0.8;stroke:#000000;stroke-width:2;"/>
   </g>
   <g id="patch_133">
    <path clip-path="url(#pf7a3a472c0)" d="
M420.971 157.414
L426.441 157.414
Q427.524 157.414 427.524 154.165
L427.524 131.188
Q427.524 127.939 426.441 127.939
L420.971 127.939
Q419.887 127.939 419.887 131.188
L419.887 154.165
Q419.887 157.414 420.971 157.414
z
" style="fill:#808080;opacity:0.5;stroke:#000000;"/>
   </g>
   <g id="patch_134">
    <path clip-path="url(#pf7a3a472c0)" d="
M431.912 223.061
L437.382 223.061
Q438.466 223.061 438.466 219.812
L438.466 196.835
Q438.466 193.586 437.382 193.586
L431.912 193.586
Q430.829 193.586 430.829 196.835
L430.829 219.812
Q430.829 223.061 431.912 223.061
z
" style="fill:#808080;opacity:0.5;stroke:#000000;"/>
   </g>
   <g id="patch_135">
    <path clip-path="url(#pf7a3a472c0)" d="
M431.912 190.238
L437.382 190.238
Q438.466 190.238 438.466 186.988
L438.466 164.012
Q438.466 160.762 437.382 160.762
L431.912 160.762
Q430.829 160.762 430.829 164.012
L430.829 186.988
Q430.829 190.238 431.912 190.238
z
" style="fill:#808080;opacity:0.5;stroke:#000000;"/>
   </g>
   <g id="patch_136">
    <path clip-path="url(#pf7a3a472c0)" d="
M431.912 190.238
L437.382 190.238
Q438.466 190.238 438.466 186.988
L438.466 164.012
Q438.466 160.762 437.382 160.762
L431.912 160.762
Q430.829 160.762 430.829 164.012
L430.829 186.988
Q430.829 190.238 431.912 190.238
z
" style="fill:#008000;opacity:0.8;stroke:#000000;stroke-width:2;"/>
   </g>
   <g id="patch_137">
    <path clip-path="url(#pf7a3a472c0)" d="
M431.912 157.414
L437.382 157.414
Q438.466 157.414 438.466 154.165
L438.466 131.188
Q438.466 127.939 437.382 127.939
L431.912 127.939
Q430.829 127.939 430.829 131.188
L430.829 154.165
Q430.829 157.414 431.912 157.414
z
" style="fill:#808080;opacity:0.5;stroke:#000000;"/>
   </g>
   <g id="patch_138">
    <path clip-path="url(#pf7a3a472c0)" d="
M442.853 223.061
L448.324 223.061
Q449.407 223.061 449.407 219.812
L449.407 196.835
Q449.407 193.586 448.324 193.586
L442.853 193.586
Q441.77 193.586 441.77 196.835
L441.77 219.812
Q441.77 223.061 442.853 223.061
z
" style="fill:#808080;opacity:0.5;stroke:#000000;"/>
   </g>
   <g id="patch_139">
    <path clip-path="url(#pf7a3a472c0)" d="
M442.853 223.061
L448.324 223.061
Q449.407 223.061 449.407 219.812
L449.407 196.835
Q449.407 193.586 448.324 193.586
L442.853 193.586
Q441.77 193.586 441.77 196.835
L441.77 219.812
Q441.77 223.061 442.853 223.061
z
" style="fill:#008000;opacity:0.8;stroke:#000000;stroke-width:2;"/>
   </g>
   <g id="patch_140">
    <path clip-path="url(#pf7a3a472c0)" d="
M442.853 190.238
L448.324 190.238
Q449.407 190.238 449.407 186.988
L449.407 164.012
Q449.407 160.762 448.324 160.762
L442.853 160.762
Q441.77 160.762 441.77 164.012
L441.77 186.988
Q441.77 190.238 442.853 190.238
z
" style="fill:#808080;opacity:0.5;stroke:#000000;"/>
   </g>
   <g id="patch_141">
    <path clip-path="url(#pf7a3a472c0)" d="
M442.853 157.414
L448.324 157.414
Q449.407 157.414 449.407 154.165
L449.407 131.188
Q449.407 127.939 448.324 127.939
L442.853 127.939
Q441.77 127.939 441.77 131.188
L441.77 154.165
Q441.77 157.414 442.853 157.414
z
" style="fill:#808080;opacity:0.5;stroke:#000000;"/>
   </g>
   <g id="patch_142">
    <path clip-path="url(#pf7a3a472c0)" d="
M453.794 223.061
L459.265 223.061
Q460.348 223.061 460.348 219.812
L460.348 196.835
Q460.348 193.586 459.265 193.586
L453.794 193.586
Q452.711 193.586 452.711 196.835
L452.711 219.812
Q452.711 223.061 453.794 223.061
z
" style="fill:#808080;opacity:0.5;stroke:#000000;"/>
   </g>
   <g id="patch_143">
    <path clip-path="url(#pf7a3a472c0)" d="
M453.794 223.061
L459.265 223.061
Q460.348 223.061 460.348 219.812
L460.348 196.835
Q460.348 193.586 459.265 193.586
L453.794 193.586
Q452.711 193.586 452.711 196.835
L452.711 219.812
Q452.711 223.061 453.794 223.061
z
" style="fill:#008000;opacity:0.8;stroke:#000000;stroke-width:2;"/>
   </g>
   <g id="patch_144">
    <path clip-path="url(#pf7a3a472c0)" d="
M453.794 190.238
L459.265 190.238
Q460.348 190.238 460.348 186.988
L460.348 164.012
Q460.348 160.762 459.265 160.762
L453.794 160.762
Q452.711 160.762 452.711 164.012
L452.711 186.988
Q452.711 190.238 453.794 190.238
z
" style="fill:#808080;opacity:0.5;stroke:#000000;"/>
   </g>
   <g id="patch_145">
    <path clip-path="url(#pf7a3a472c0)" d="
M453.794 157.414
L459.265 157.414
Q460.348 157.414 460.348 154.165
L460.348 131.188
Q460.348 127.939 459.265 127.939
L453.794 127.939
Q452.711 127.939 452.711 131.188
L452.711 154.165
Q452.711 157.414 453.794 157.414
z
" style="fill:#808080;opacity:0.5;stroke:#000000;"/>
   </g>
   <g id="patch_146">
    <path clip-path="url(#pf7a3a472c0)" d="
M464.735 223.061
L470.206 223.061
Q471.289 223.061 471.289 219.812
L471.289 196.835
Q471.289 193.586 470.206 193.586
L464.735 193.586
Q463.652 193.586 463.652 196.835
L463.652 219.812
Q463.652 223.061 464.735 223.061
z
" style="fill:#808080;opacity:0.5;stroke:#000000;"/>
   </g>
   <g id="patch_147">
    <path clip-path="url(#pf7a3a472c0)" d="
M464.735 223.061
L470.206 223.061
Q471.289 223.061 471.289 219.812
L471.289 196.835
Q471.289 193.586 470.206 193.586
L464.735 193.586
Q463.652 193.586 463.652 196.835
L463.652 219.812
Q463.652 223.061 464.735 223.061
z
" style="fill:#008000;opacity:0.8;stroke:#000000;stroke-width:2;"/>
   </g>
   <g id="patch_148">
    <path clip-path="url(#pf7a3a472c0)" d="
M464.735 190.238
L470.206 190.238
Q471.289 190.238 471.289 186.988
L471.289 164.012
Q471.289 160.762 470.206 160.762
L464.735 160.762
Q463.652 160.762 463.652 164.012
L463.652 186.988
Q463.652 190.238 464.735 190.238
z
" style="fill:#808080;opacity:0.5;stroke:#000000;"/>
   </g>
   <g id="patch_149">
    <path clip-path="url(#pf7a3a472c0)" d="
M464.735 157.414
L470.206 157.414
Q471.289 157.414 471.289 154.165
L471.289 131.188
Q471.289 127.939 470.206 127.939
L464.735 127.939
Q463.652 127.939 463.652 131.188
L463.652 154.165
Q463.652 157.414 464.735 157.414
z
" style="fill:#808080;opacity:0.5;stroke:#000000;"/>
   </g>
   <g id="patch_150">
    <path clip-path="url(#pf7a3a472c0)" d="
M475.676 223.061
L481.147 223.061
Q482.23 223.061 482.23 219.812
L482.23 196.835
Q482.23 193.586 481.147 193.586
L475.676 193.586
Q474.593 193.586 474.593 196.835
L474.593 219.812
Q474.593 223.061 475.676 223.061
z
" style="fill:#808080;opacity:0.5;stroke:#000000;"/>
   </g>
   <g id="patch_151">
    <path clip-path="url(#pf7a3a472c0)" d="
M475.676 223.061
L481.147 223.061
Q482.23 223.061 482.23 219.812
L482.23 196.835
Q482.23 193.586 481.147 193.586
L475.676 193.586
Q474.593 193.586 474.593 196.835
L474.593 219.812
Q474.593 223.061 475.676 223.061
z
" style="fill:#008000;opacity:0.8;stroke:#000000;stroke-width:2;"/>
   </g>
   <g id="patch_152">
    <path clip-path="url(#pf7a3a472c0)" d="
M475.676 190.238
L481.147 190.238
Q482.23 190.238 482.23 186.988
L482.23 164.012
Q482.23 160.762 481.147 160.762
L475.676 160.762
Q474.593 160.762 474.593 164.012
L474.593 186.988
Q474.593 190.238 475.676 190.238
z
" style="fill:#808080;opacity:0.5;stroke:#000000;"/>
   </g>
   <g id="patch_153">
    <path clip-path="url(#pf7a3a472c0)" d="
M475.676 157.414
L481.147 157.414
Q482.23 157.414 482.23 154.165
L482.23 131.188
Q482.23 127.939 481.147 127.939
L475.676 127.939
Q474.593 127.939 474.593 131.188
L474.593 154.165
Q474.593 157.414 475.676 157.414
z
" style="fill:#808080;opacity:0.5;stroke:#000000;"/>
   </g>
   <g id="patch_154">
    <path clip-path="url(#pf7a3a472c0)" d="
M486.618 223.061
L492.088 223.061
Q493.171 223.061 493.171 219.812
L493.171 196.835
Q493.171 193.586 492.088 193.586
L486.618 193.586
Q485.534 193.586 485.534 196.835
L485.534 219.812
Q485.534 223.061 486.618 223.061
z
" style="fill:#808080;opacity:0.5;stroke:#000000;"/>
   </g>
   <g id="patch_155">
    <path clip-path="url(#pf7a3a472c0)" d="
M486.618 223.061
L492.088 223.061
Q493.171 223.061 493.171 219.812
L493.171 196.835
Q493.171 193.586 492.088 193.586
L486.618 193.586
Q485.534 193.586 485.534 196.835
L485.534 219.812
Q485.534 223.061 486.618 223.061
z
" style="fill:#008000;opacity:0.8;stroke:#000000;stroke-width:2;"/>
   </g>
   <g id="patch_156">
    <path clip-path="url(#pf7a3a472c0)" d="
M486.618 190.238
L492.088 190.238
Q493.171 190.238 493.171 186.988
L493.171 164.012
Q493.171 160.762 492.088 160.762
L486.618 160.762
Q485.534 160.762 485.534 164.012
L485.534 186.988
Q485.534 190.238 486.618 190.238
z
" style="fill:#808080;opacity:0.5;stroke:#000000;"/>
   </g>
   <g id="patch_157">
    <path clip-path="url(#pf7a3a472c0)" d="
M486.618 157.414
L492.088 157.414
Q493.171 157.414 493.171 154.165
L493.171 131.188
Q493.171 127.939 492.088 127.939
L486.618 127.939
Q485.534 127.939 485.534 131.188
L485.534 154.165
Q485.534 157.414 486.618 157.414
z
" style="fill:#808080;opacity:0.5;stroke:#000000;"/>
   </g>
   <g id="patch_158">
    <path clip-path="url(#pf7a3a472c0)" d="
M497.559 223.061
L503.029 223.061
Q504.113 223.061 504.113 219.812
L504.113 196.835
Q504.113 193.586 503.029 193.586
L497.559 193.586
Q496.476 193.586 496.476 196.835
L496.476 219.812
Q496.476 223.061 497.559 223.061
z
" style="fill:#808080;opacity:0.5;stroke:#000000;"/>
   </g>
   <g id="patch_159">
    <path clip-path="url(#pf7a3a472c0)" d="
M497.559 223.061
L503.029 223.061
Q504.113 223.061 504.113 219.812
L504.113 196.835
Q504.113 193.586 503.029 193.586
L497.559 193.586
Q496.476 193.586 496.476 196.835
L496.476 219.812
Q496.476 223.061 497.559 223.061
z
" style="fill:#008000;opacity:0.8;stroke:#000000;stroke-width:2;"/>
   </g>
   <g id="patch_160">
    <path clip-path="url(#pf7a3a472c0)" d="
M497.559 190.238
L503.029 190.238
Q504.113 190.238 504.113 186.988
L504.113 164.012
Q504.113 160.762 503.029 160.762
L497.559 160.762
Q496.476 160.762 496.476 164.012
L496.476 186.988
Q496.476 190.238 497.559 190.238
z
" style="fill:#808080;opacity:0.5;stroke:#000000;"/>
   </g>
   <g id="patch_161">
    <path clip-path="url(#pf7a3a472c0)" d="
M497.559 157.414
L503.029 157.414
Q504.113 157.414 504.113 154.165
L504.113 131.188
Q504.113 127.939 503.029 127.939
L497.559 127.939
Q496.476 127.939 496.476 131.188
L496.476 154.165
Q496.476 157.414 497.559 157.414
z
" style="fill:#808080;opacity:0.5;stroke:#000000;"/>
   </g>
   <g id="patch_162">
    <path clip-path="url(#pf7a3a472c0)" d="
M508.5 223.061
L513.971 223.061
Q515.054 223.061 515.054 219.812
L515.054 196.835
Q515.054 193.586 513.971 193.586
L508.5 193.586
Q507.417 193.586 507.417 196.835
L507.417 219.812
Q507.417 223.061 508.5 223.061
z
" style="fill:#808080;opacity:0.5;stroke:#000000;"/>
   </g>
   <g id="patch_163">
    <path clip-path="url(#pf7a3a472c0)" d="
M508.5 223.061
L513.971 223.061
Q515.054 223.061 515.054 219.812
L515.054 196.835
Q515.054 193.586 513.971 193.586
L508.5 193.586
Q507.417 193.586 507.417 196.835
L507.417 219.812
Q507.417 223.061 508.5 223.061
z
" style="fill:#008000;opacity:0.8;stroke:#000000;stroke-width:2;"/>
   </g>
   <g id="patch_164">
    <path clip-path="url(#pf7a3a472c0)" d="
M508.5 190.238
L513.971 190.238
Q515.054 190.238 515.054 186.988
L515.054 164.012
Q515.054 160.762 513.971 160.762
L508.5 160.762
Q507.417 160.762 507.417 164.012
L507.417 186.988
Q507.417 190.238 508.5 190.238
z
" style="fill:#808080;opacity:0.5;stroke:#000000;"/>
   </g>
   <g id="patch_165">
    <path clip-path="url(#pf7a3a472c0)" d="
M508.5 157.414
L513.971 157.414
Q515.054 157.414 515.054 154.165
L515.054 131.188
Q515.054 127.939 513.971 127.939
L508.5 127.939
Q507.417 127.939 507.417 131.188
L507.417 154.165
Q507.417 157.414 508.5 157.414
z
" style="fill:#808080;opacity:0.5;stroke:#000000;"/>
   </g>
   <g id="patch_166">
    <path clip-path="url(#pf7a3a472c0)" d="
M519.441 223.061
L524.912 223.061
Q525.995 223.061 525.995 219.812
L525.995 196.835
Q525.995 193.586 524.912 193.586
L519.441 193.586
Q518.358 193.586 518.358 196.835
L518.358 219.812
Q518.358 223.061 519.441 223.061
z
" style="fill:#808080;opacity:0.5;stroke:#000000;"/>
   </g>
   <g id="patch_167">
    <path clip-path="url(#pf7a3a472c0)" d="
M519.441 223.061
L524.912 223.061
Q525.995 223.061 525.995 219.812
L525.995 196.835
Q525.995 193.586 524.912 193.586
L519.441 193.586
Q518.358 193.586 518.358 196.835
L518.358 219.812
Q518.358 223.061 519.441 223.061
z
" style="fill:#008000;opacity:0.8;stroke:#000000;stroke-width:2;"/>
   </g>
   <g id="patch_168">
    <path clip-path="url(#pf7a3a472c0)" d="
M519.441 190.238
L524.912 190.238
Q525.995 190.238 525.995 186.988
L525.995 164.012
Q525.995 160.762 524.912 160.762
L519.441 160.762
Q518.358 160.762 518.358 164.012
L518.358 186.988
Q518.358 190.238 519.441 190.238
z
" style="fill:#808080;opacity:0.5;stroke:#000000;"/>
   </g>
   <g id="patch_169">
    <path clip-path="url(#pf7a3a472c0)" d="
M519.441 157.414
L524.912 157.414
Q525.995 157.414 525.995 154.165
L525.995 131.188
Q525.995 127.939 524.912 127.939
L519.441 127.939
Q518.358 127.939 518.358 131.188
L518.358 154.165
Q518.358 157.414 519.441 157.414
z
" style="fill:#808080;opacity:0.5;stroke:#000000;"/>
   </g>
   <g id="patch_170">
    <path clip-path="url(#pf7a3a472c0)" d="
M530.382 223.061
L535.853 223.061
Q536.936 223.061 536.936 219.812
L536.936 196.835
Q536.936 193.586 535.853 193.586
L530.382 193.586
Q529.299 193.586 529.299 196.835
L529.299 219.812
Q529.299 223.061 530.382 223.061
z
" style="fill:#808080;opacity:0.5;stroke:#000000;"/>
   </g>
   <g id="patch_171">
    <path clip-path="url(#pf7a3a472c0)" d="
M530.382 223.061
L535.853 223.061
Q536.936 223.061 536.936 219.812
L536.936 196.835
Q536.936 193.586 535.853 193.586
L530.382 193.586
Q529.299 193.586 529.299 196.835
L529.299 219.812
Q529.299 223.061 530.382 223.061
z
" style="fill:#008000;opacity:0.8;stroke:#000000;stroke-width:2;"/>
   </g>
   <g id="patch_172">
    <path clip-path="url(#pf7a3a472c0)" d="
M530.382 190.238
L535.853 190.238
Q536.936 190.238 536.936 186.988
L536.936 164.012
Q536.936 160.762 535.853 160.762
L530.382 160.762
Q529.299 160.762 529.299 164.012
L529.299 186.988
Q529.299 190.238 530.382 190.238
z
" style="fill:#808080;opacity:0.5;stroke:#000000;"/>
   </g>
   <g id="patch_173">
    <path clip-path="url(#pf7a3a472c0)" d="
M530.382 157.414
L535.853 157.414
Q536.936 157.414 536.936 154.165
L536.936 131.188
Q536.936 127.939 535.853 127.939
L530.382 127.939
Q529.299 127.939 529.299 131.188
L529.299 154.165
Q529.299 157.414 530.382 157.414
z
" style="fill:#808080;opacity:0.5;stroke:#000000;"/>
   </g>
   <g id="patch_174">
    <path clip-path="url(#pf7a3a472c0)" d="
M541.324 223.061
L546.794 223.061
Q547.877 223.061 547.877 219.812
L547.877 196.835
Q547.877 193.586 546.794 193.586
L541.324 193.586
Q540.24 193.586 540.24 196.835
L540.24 219.812
Q540.24 223.061 541.324 223.061
z
" style="fill:#808080;opacity:0.5;stroke:#000000;"/>
   </g>
   <g id="patch_175">
    <path clip-path="url(#pf7a3a472c0)" d="
M541.324 223.061
L546.794 223.061
Q547.877 223.061 547.877 219.812
L547.877 196.835
Q547.877 193.586 546.794 193.586
L541.324 193.586
Q540.24 193.586 540.24 196.835
L540.24 219.812
Q540.24 223.061 541.324 223.061
z
" style="fill:#008000;opacity:0.8;stroke:#000000;stroke-width:2;"/>
   </g>
   <g id="patch_176">
    <path clip-path="url(#pf7a3a472c0)" d="
M541.324 190.238
L546.794 190.238
Q547.877 190.238 547.877 186.988
L547.877 164.012
Q547.877 160.762 546.794 160.762
L541.324 160.762
Q540.24 160.762 540.24 164.012
L540.24 186.988
Q540.24 190.238 541.324 190.238
z
" style="fill:#808080;opacity:0.5;stroke:#000000;"/>
   </g>
   <g id="patch_177">
    <path clip-path="url(#pf7a3a472c0)" d="
M541.324 157.414
L546.794 157.414
Q547.877 157.414 547.877 154.165
L547.877 131.188
Q547.877 127.939 546.794 127.939
L541.324 127.939
Q540.24 127.939 540.24 131.188
L540.24 154.165
Q540.24 157.414 541.324 157.414
z
" style="fill:#808080;opacity:0.5;stroke:#000000;"/>
   </g>
   <g id="patch_178">
    <path clip-path="url(#pf7a3a472c0)" d="
M552.265 223.061
L557.735 223.061
Q558.818 223.061 558.818 219.812
L558.818 196.835
Q558.818 193.586 557.735 193.586
L552.265 193.586
Q551.182 193.586 551.182 196.835
L551.182 219.812
Q551.182 223.061 552.265 223.061
z
" style="fill:#808080;opacity:0.5;stroke:#000000;"/>
   </g>
   <g id="patch_179">
    <path clip-path="url(#pf7a3a472c0)" d="
M552.265 223.061
L557.735 223.061
Q558.818 223.061 558.818 219.812
L558.818 196.835
Q558.818 193.586 557.735 193.586
L552.265 193.586
Q551.182 193.586 551.182 196.835
L551.182 219.812
Q551.182 223.061 552.265 223.061
z
" style="fill:#008000;opacity:0.8;stroke:#000000;stroke-width:2;"/>
   </g>
   <g id="patch_180">
    <path clip-path="url(#pf7a3a472c0)" d="
M552.265 190.238
L557.735 190.238
Q558.818 190.238 558.818 186.988
L558.818 164.012
Q558.818 160.762 557.735 160.762
L552.265 160.762
Q551.182 160.762 551.182 164.012
L551.182 186.988
Q551.182 190.238 552.265 190.238
z
" style="fill:#808080;opacity:0.5;stroke:#000000;"/>
   </g>
   <g id="patch_181">
    <path clip-path="url(#pf7a3a472c0)" d="
M552.265 157.414
L557.735 157.414
Q558.818 157.414 558.818 154.165
L558.818 131.188
Q558.818 127.939 557.735 127.939
L552.265 127.939
Q551.182 127.939 551.182 131.188
L551.182 154.165
Q551.182 157.414 552.265 157.414
z
" style="fill:#808080;opacity:0.5;stroke:#000000;"/>
   </g>
   <g id="patch_182">
    <path clip-path="url(#pf7a3a472c0)" d="
M563.206 223.061
L568.676 223.061
Q569.76 223.061 569.76 219.812
L569.76 196.835
Q569.76 193.586 568.676 193.586
L563.206 193.586
Q562.123 193.586 562.123 196.835
L562.123 219.812
Q562.123 223.061 563.206 223.061
z
" style="fill:#808080;opacity:0.5;stroke:#000000;"/>
   </g>
   <g id="patch_183">
    <path clip-path="url(#pf7a3a472c0)" d="
M563.206 223.061
L568.676 223.061
Q569.76 223.061 569.76 219.812
L569.76 196.835
Q569.76 193.586 568.676 193.586
L563.206 193.586
Q562.123 193.586 562.123 196.835
L562.123 219.812
Q562.123 223.061 563.206 223.061
z
" style="fill:#008000;opacity:0.8;stroke:#000000;stroke-width:2;"/>
   </g>
   <g id="patch_184">
    <path clip-path="url(#pf7a3a472c0)" d="
M563.206 190.238
L568.676 190.238
Q569.76 190.238 569.76 186.988
L569.76 164.012
Q569.76 160.762 568.676 160.762
L563.206 160.762
Q562.123 160.762 562.123 164.012
L562.123 186.988
Q562.123 190.238 563.206 190.238
z
" style="fill:#808080;opacity:0.5;stroke:#000000;"/>
   </g>
   <g id="patch_185">
    <path clip-path="url(#pf7a3a472c0)" d="
M563.206 157.414
L568.676 157.414
Q569.76 157.414 569.76 154.165
L569.76 131.188
Q569.76 127.939 568.676 127.939
L563.206 127.939
Q562.123 127.939 562.123 131.188
L562.123 154.165
Q562.123 157.414 563.206 157.414
z
" style="fill:#808080;opacity:0.5;stroke:#000000;"/>
   </g>
   <g id="patch_186">
    <path clip-path="url(#pf7a3a472c0)" d="
M574.147 223.061
L579.618 223.061
Q580.701 223.061 580.701 219.812
L580.701 196.835
Q580.701 193.586 579.618 193.586
L574.147 193.586
Q573.064 193.586 573.064 196.835
L573.064 219.812
Q573.064 223.061 574.147 223.061
z
" style="fill:#808080;opacity:0.5;stroke:#000000;"/>
   </g>
   <g id="patch_187">
    <path clip-path="url(#pf7a3a472c0)" d="
M574.147 223.061
L579.618 223.061
Q580.701 223.061 580.701 219.812
L580.701 196.835
Q580.701 193.586 579.618 193.586
L574.147 193.586
Q573.064 193.586 573.064 196.835
L573.064 219.812
Q573.064 223.061 574.147 223.061
z
" style="fill:#008000;opacity:0.8;stroke:#000000;stroke-width:2;"/>
   </g>
   <g id="patch_188">
    <path clip-path="url(#pf7a3a472c0)" d="
M574.147 190.238
L579.618 190.238
Q580.701 190.238 580.701 186.988
L580.701 164.012
Q580.701 160.762 579.618 160.762
L574.147 160.762
Q573.064 160.762 573.064 164.012
L573.064 186.988
Q573.064 190.238 574.147 190.238
z
" style="fill:#808080;opacity:0.5;stroke:#000000;"/>
   </g>
   <g id="patch_189">
    <path clip-path="url(#pf7a3a472c0)" d="
M574.147 157.414
L579.618 157.414
Q580.701 157.414 580.701 154.165
L580.701 131.188
Q580.701 127.939 579.618 127.939
L574.147 127.939
Q573.064 127.939 573.064 131.188
L573.064 154.165
Q573.064 157.414 574.147 157.414
z
" style="fill:#808080;opacity:0.5;stroke:#000000;"/>
   </g>
   <g id="patch_190">
    <path clip-path="url(#pf7a3a472c0)" d="
M585.088 223.061
L590.559 223.061
Q591.642 223.061 591.642 219.812
L591.642 196.835
Q591.642 193.586 590.559 193.586
L585.088 193.586
Q584.005 193.586 584.005 196.835
L584.005 219.812
Q584.005 223.061 585.088 223.061
z
" style="fill:#808080;opacity:0.5;stroke:#000000;"/>
   </g>
   <g id="patch_191">
    <path clip-path="url(#pf7a3a472c0)" d="
M585.088 223.061
L590.559 223.061
Q591.642 223.061 591.642 219.812
L591.642 196.835
Q591.642 193.586 590.559 193.586
L585.088 193.586
Q584.005 193.586 584.005 196.835
L584.005 219.812
Q584.005 223.061 585.088 223.061
z
" style="fill:#008000;opacity:0.8;stroke:#000000;stroke-width:2;"/>
   </g>
   <g id="patch_192">
    <path clip-path="url(#pf7a3a472c0)" d="
M585.088 190.238
L590.559 190.238
Q591.642 190.238 591.642 186.988
L591.642 164.012
Q591.642 160.762 590.559 160.762
L585.088 160.762
Q584.005 160.762 584.005 164.012
L584.005 186.988
Q584.005 190.238 585.088 190.238
z
" style="fill:#808080;opacity:0.5;stroke:#000000;"/>
   </g>
   <g id="patch_193">
    <path clip-path="url(#pf7a3a472c0)" d="
M585.088 157.414
L590.559 157.414
Q591.642 157.414 591.642 154.165
L591.642 131.188
Q591.642 127.939 590.559 127.939
L585.088 127.939
Q584.005 127.939 584.005 131.188
L584.005 154.165
Q584.005 157.414 585.088 157.414
z
" style="fill:#808080;opacity:0.5;stroke:#000000;"/>
   </g>
   <g id="patch_194">
    <path clip-path="url(#pf7a3a472c0)" d="
M596.029 223.061
L601.5 223.061
Q602.583 223.061 602.583 219.812
L602.583 196.835
Q602.583 193.586 601.5 193.586
L596.029 193.586
Q594.946 193.586 594.946 196.835
L594.946 219.812
Q594.946 223.061 596.029 223.061
z
" style="fill:#808080;opacity:0.5;stroke:#000000;"/>
   </g>
   <g id="patch_195">
    <path clip-path="url(#pf7a3a472c0)" d="
M596.029 223.061
L601.5 223.061
Q602.583 223.061 602.583 219.812
L602.583 196.835
Q602.583 193.586 601.5 193.586
L596.029 193.586
Q594.946 193.586 594.946 196.835
L594.946 219.812
Q594.946 223.061 596.029 223.061
z
" style="fill:#008000;opacity:0.8;stroke:#000000;stroke-width:2;"/>
   </g>
   <g id="patch_196">
    <path clip-path="url(#pf7a3a472c0)" d="
M596.029 190.238
L601.5 190.238
Q602.583 190.238 602.583 186.988
L602.583 164.012
Q602.583 160.762 601.5 160.762
L596.029 160.762
Q594.946 160.762 594.946 164.012
L594.946 186.988
Q594.946 190.238 596.029 190.238
z
" style="fill:#808080;opacity:0.5;stroke:#000000;"/>
   </g>
   <g id="patch_197">
    <path clip-path="url(#pf7a3a472c0)" d="
M596.029 157.414
L601.5 157.414
Q602.583 157.414 602.583 154.165
L602.583 131.188
Q602.583 127.939 601.5 127.939
L596.029 127.939
Q594.946 127.939 594.946 131.188
L594.946 154.165
Q594.946 157.414 596.029 157.414
z
" style="fill:#808080;opacity:0.5;stroke:#000000;"/>
   </g>
   <g id="patch_198">
    <path clip-path="url(#pf7a3a472c0)" d="
M606.971 223.061
L612.441 223.061
Q613.524 223.061 613.524 219.812
L613.524 196.835
Q613.524 193.586 612.441 193.586
L606.971 193.586
Q605.887 193.586 605.887 196.835
L605.887 219.812
Q605.887 223.061 606.971 223.061
z
" style="fill:#808080;opacity:0.5;stroke:#000000;"/>
   </g>
   <g id="patch_199">
    <path clip-path="url(#pf7a3a472c0)" d="
M606.971 223.061
L612.441 223.061
Q613.524 223.061 613.524 219.812
L613.524 196.835
Q613.524 193.586 612.441 193.586
L606.971 193.586
Q605.887 193.586 605.887 196.835
L605.887 219.812
Q605.887 223.061 606.971 223.061
z
" style="fill:#008000;opacity:0.8;stroke:#000000;stroke-width:2;"/>
   </g>
   <g id="patch_200">
    <path clip-path="url(#pf7a3a472c0)" d="
M606.971 190.238
L612.441 190.238
Q613.524 190.238 613.524 186.988
L613.524 164.012
Q613.524 160.762 612.441 160.762
L606.971 160.762
Q605.887 160.762 605.887 164.012
L605.887 186.988
Q605.887 190.238 606.971 190.238
z
" style="fill:#808080;opacity:0.5;stroke:#000000;"/>
   </g>
   <g id="patch_201">
    <path clip-path="url(#pf7a3a472c0)" d="
M606.971 157.414
L612.441 157.414
Q613.524 157.414 613.524 154.165
L613.524 131.188
Q613.524 127.939 612.441 127.939
L606.971 127.939
Q605.887 127.939 605.887 131.188
L605.887 154.165
Q605.887 157.414 606.971 157.414
z
" style="fill:#808080;opacity:0.5;stroke:#000000;"/>
   </g>
   <g id="patch_202">
    <path clip-path="url(#pf7a3a472c0)" d="
M617.912 223.061
L623.382 223.061
Q624.466 223.061 624.466 219.812
L624.466 196.835
Q624.466 193.586 623.382 193.586
L617.912 193.586
Q616.829 193.586 616.829 196.835
L616.829 219.812
Q616.829 223.061 617.912 223.061
z
" style="fill:#808080;opacity:0.5;stroke:#000000;"/>
   </g>
   <g id="patch_203">
    <path clip-path="url(#pf7a3a472c0)" d="
M617.912 223.061
L623.382 223.061
Q624.466 223.061 624.466 219.812
L624.466 196.835
Q624.466 193.586 623.382 193.586
L617.912 193.586
Q616.829 193.586 616.829 196.835
L616.829 219.812
Q616.829 223.061 617.912 223.061
z
" style="fill:#008000;opacity:0.8;stroke:#000000;stroke-width:2;"/>
   </g>
   <g id="patch_204">
    <path clip-path="url(#pf7a3a472c0)" d="
M617.912 190.238
L623.382 190.238
Q624.466 190.238 624.466 186.988
L624.466 164.012
Q624.466 160.762 623.382 160.762
L617.912 160.762
Q616.829 160.762 616.829 164.012
L616.829 186.988
Q616.829 190.238 617.912 190.238
z
" style="fill:#808080;opacity:0.5;stroke:#000000;"/>
   </g>
   <g id="patch_205">
    <path clip-path="url(#pf7a3a472c0)" d="
M617.912 157.414
L623.382 157.414
Q624.466 157.414 624.466 154.165
L624.466 131.188
Q624.466 127.939 623.382 127.939
L617.912 127.939
Q616.829 127.939 616.829 131.188
L616.829 154.165
Q616.829 157.414 617.912 157.414
z
" style="fill:#808080;opacity:0.5;stroke:#000000;"/>
   </g>
   <g id="patch_206">
    <path clip-path="url(#pf7a3a472c0)" d="
M628.853 223.061
L634.324 223.061
Q635.407 223.061 635.407 219.812
L635.407 196.835
Q635.407 193.586 634.324 193.586
L628.853 193.586
Q627.77 193.586 627.77 196.835
L627.77 219.812
Q627.77 223.061 628.853 223.061
z
" style="fill:#808080;opacity:0.5;stroke:#000000;"/>
   </g>
   <g id="patch_207">
    <path clip-path="url(#pf7a3a472c0)" d="
M628.853 223.061
L634.324 223.061
Q635.407 223.061 635.407 219.812
L635.407 196.835
Q635.407 193.586 634.324 193.586
L628.853 193.586
Q627.77 193.586 627.77 196.835
L627.77 219.812
Q627.77 223.061 628.853 223.061
z
" style="fill:#008000;opacity:0.8;stroke:#000000;stroke-width:2;"/>
   </g>
   <g id="patch_208">
    <path clip-path="url(#pf7a3a472c0)" d="
M628.853 190.238
L634.324 190.238
Q635.407 190.238 635.407 186.988
L635.407 164.012
Q635.407 160.762 634.324 160.762
L628.853 160.762
Q627.77 160.762 627.77 164.012
L627.77 186.988
Q627.77 190.238 628.853 190.238
z
" style="fill:#808080;opacity:0.5;stroke:#000000;"/>
   </g>
   <g id="patch_209">
    <path clip-path="url(#pf7a3a472c0)" d="
M628.853 157.414
L634.324 157.414
Q635.407 157.414 635.407 154.165
L635.407 131.188
Q635.407 127.939 634.324 127.939
L628.853 127.939
Q627.77 127.939 627.77 131.188
L627.77 154.165
Q627.77 157.414 628.853 157.414
z
" style="fill:#808080;opacity:0.5;stroke:#000000;"/>
   </g>
   <g id="patch_210">
    <path clip-path="url(#pf7a3a472c0)" d="
M639.794 223.061
L645.265 223.061
Q646.348 223.061 646.348 219.812
L646.348 196.835
Q646.348 193.586 645.265 193.586
L639.794 193.586
Q638.711 193.586 638.711 196.835
L638.711 219.812
Q638.711 223.061 639.794 223.061
z
" style="fill:#808080;opacity:0.5;stroke:#000000;"/>
   </g>
   <g id="patch_211">
    <path clip-path="url(#pf7a3a472c0)" d="
M639.794 223.061
L645.265 223.061
Q646.348 223.061 646.348 219.812
L646.348 196.835
Q646.348 193.586 645.265 193.586
L639.794 193.586
Q638.711 193.586 638.711 196.835
L638.711 219.812
Q638.711 223.061 639.794 223.061
z
" style="fill:#008000;opacity:0.8;stroke:#000000;stroke-width:2;"/>
   </g>
   <g id="patch_212">
    <path clip-path="url(#pf7a3a472c0)" d="
M639.794 190.238
L645.265 190.238
Q646.348 190.238 646.348 186.988
L646.348 164.012
Q646.348 160.762 645.265 160.762
L639.794 160.762
Q638.711 160.762 638.711 164.012
L638.711 186.988
Q638.711 190.238 639.794 190.238
z
" style="fill:#808080;opacity:0.5;stroke:#000000;"/>
   </g>
   <g id="patch_213">
    <path clip-path="url(#pf7a3a472c0)" d="
M639.794 157.414
L645.265 157.414
Q646.348 157.414 646.348 154.165
L646.348 131.188
Q646.348 127.939 645.265 127.939
L639.794 127.939
Q638.711 127.939 638.711 131.188
L638.711 154.165
Q638.711 157.414 639.794 157.414
z
" style="fill:#808080;opacity:0.5;stroke:#000000;"/>
   </g>
   <g id="matplotlib.axis_1"/>
   <g id="matplotlib.axis_2">
    <g id="ytick_1">
     <g id="line2d_1">
      <defs>
       <path d="
M0 0
L4 0" id="m9a6227a564"/>
      </defs>
      <g>
       <use style="stroke:#000000;stroke-linecap:butt;stroke-width:0.5;" x="90.0" xlink:href="#m9a6227a564" y="208.323529412"/>
      </g>
     </g>
     <g id="line2d_2">
      <defs>
       <path d="
M0 0
L-4 0" id="m796ed49098"/>
      </defs>
      <g>
       <use style="stroke:#000000;stroke-linecap:butt;stroke-width:0.5;" x="648.0" xlink:href="#m796ed49098" y="208.323529412"/>
      </g>
     </g>
     <g id="text_1">
      <!-- BIOCARTA_TGFB_PATHWAY -->
      <defs>
       <path d="
M39.4062 66.2188
Q28.6562 66.2188 22.3281 58.2031
Q16.0156 50.2031 16.0156 36.375
Q16.0156 22.6094 22.3281 14.5938
Q28.6562 6.59375 39.4062 6.59375
Q50.1406 6.59375 56.4219 14.5938
Q62.7031 22.6094 62.7031 36.375
Q62.7031 50.2031 56.4219 58.2031
Q50.1406 66.2188 39.4062 66.2188
M39.4062 74.2188
Q54.7344 74.2188 63.9062 63.9375
Q73.0938 53.6562 73.0938 36.375
Q73.0938 19.1406 63.9062 8.85938
Q54.7344 -1.42188 39.4062 -1.42188
Q24.0312 -1.42188 14.8125 8.82812
Q5.60938 19.0938 5.60938 36.375
Q5.60938 53.6562 14.8125 63.9375
Q24.0312 74.2188 39.4062 74.2188" id="BitstreamVeraSans-Roman-4f"/>
       <path d="
M19.6719 64.7969
L19.6719 37.4062
L32.0781 37.4062
Q38.9688 37.4062 42.7188 40.9688
Q46.4844 44.5312 46.4844 51.125
Q46.4844 57.6719 42.7188 61.2344
Q38.9688 64.7969 32.0781 64.7969
z

M9.8125 72.9062
L32.0781 72.9062
Q44.3438 72.9062 50.6094 67.3594
Q56.8906 61.8125 56.8906 51.125
Q56.8906 40.3281 50.6094 34.8125
Q44.3438 29.2969 32.0781 29.2969
L19.6719 29.2969
L19.6719 0
L9.8125 0
z
" id="BitstreamVeraSans-Roman-50"/>
       <path d="
M50.9844 -16.6094
L50.9844 -23.5781
L-0.984375 -23.5781
L-0.984375 -16.6094
z
" id="BitstreamVeraSans-Roman-5f"/>
       <path d="
M-0.203125 72.9062
L10.4062 72.9062
L30.6094 42.9219
L50.6875 72.9062
L61.2812 72.9062
L35.5 34.7188
L35.5 0
L25.5938 0
L25.5938 34.7188
z
" id="BitstreamVeraSans-Roman-59"/>
       <path d="
M59.5156 10.4062
L59.5156 29.9844
L43.4062 29.9844
L43.4062 38.0938
L69.2812 38.0938
L69.2812 6.78125
Q63.5781 2.73438 56.6875 0.65625
Q49.8125 -1.42188 42 -1.42188
Q24.9062 -1.42188 15.25 8.5625
Q5.60938 18.5625 5.60938 36.375
Q5.60938 54.25 15.25 64.2344
Q24.9062 74.2188 42 74.2188
Q49.125 74.2188 55.5469 72.4531
Q61.9688 70.7031 67.3906 67.2812
L67.3906 56.7812
Q61.9219 61.4219 55.7656 63.7656
Q49.6094 66.1094 42.8281 66.1094
Q29.4375 66.1094 22.7188 58.6406
Q16.0156 51.1719 16.0156 36.375
Q16.0156 21.625 22.7188 14.1562
Q29.4375 6.6875 42.8281 6.6875
Q48.0469 6.6875 52.1406 7.59375
Q56.25 8.5 59.5156 10.4062" id="BitstreamVeraSans-Roman-47"/>
       <path d="
M9.8125 72.9062
L51.7031 72.9062
L51.7031 64.5938
L19.6719 64.5938
L19.6719 43.1094
L48.5781 43.1094
L48.5781 34.8125
L19.6719 34.8125
L19.6719 0
L9.8125 0
z
" id="BitstreamVeraSans-Roman-46"/>
       <path d="
M44.3906 34.1875
Q47.5625 33.1094 50.5625 29.5938
Q53.5625 26.0781 56.5938 19.9219
L66.6094 0
L56 0
L46.6875 18.7031
Q43.0625 26.0312 39.6719 28.4219
Q36.2812 30.8125 30.4219 30.8125
L19.6719 30.8125
L19.6719 0
L9.8125 0
L9.8125 72.9062
L32.0781 72.9062
Q44.5781 72.9062 50.7344 67.6719
Q56.8906 62.4531 56.8906 51.9062
Q56.8906 45.0156 53.6875 40.4688
Q50.4844 35.9375 44.3906 34.1875
M19.6719 64.7969
L19.6719 38.9219
L32.0781 38.9219
Q39.2031 38.9219 42.8438 42.2188
Q46.4844 45.5156 46.4844 51.9062
Q46.4844 58.2969 42.8438 61.5469
Q39.2031 64.7969 32.0781 64.7969
z
" id="BitstreamVeraSans-Roman-52"/>
       <path d="
M64.4062 67.2812
L64.4062 56.8906
Q59.4219 61.5312 53.7812 63.8125
Q48.1406 66.1094 41.7969 66.1094
Q29.2969 66.1094 22.6562 58.4688
Q16.0156 50.8281 16.0156 36.375
Q16.0156 21.9688 22.6562 14.3281
Q29.2969 6.6875 41.7969 6.6875
Q48.1406 6.6875 53.7812 8.98438
Q59.4219 11.2812 64.4062 15.9219
L64.4062 5.60938
Q59.2344 2.09375 53.4375 0.328125
Q47.6562 -1.42188 41.2188 -1.42188
Q24.6562 -1.42188 15.125 8.70312
Q5.60938 18.8438 5.60938 36.375
Q5.60938 53.9531 15.125 64.0781
Q24.6562 74.2188 41.2188 74.2188
Q47.75 74.2188 53.5312 72.4844
Q59.3281 70.75 64.4062 67.2812" id="BitstreamVeraSans-Roman-43"/>
       <path d="
M19.6719 34.8125
L19.6719 8.10938
L35.5 8.10938
Q43.4531 8.10938 47.2812 11.4062
Q51.125 14.7031 51.125 21.4844
Q51.125 28.3281 47.2812 31.5625
Q43.4531 34.8125 35.5 34.8125
z

M19.6719 64.7969
L19.6719 42.8281
L34.2812 42.8281
Q41.5 42.8281 45.0312 45.5312
Q48.5781 48.25 48.5781 53.8125
Q48.5781 59.3281 45.0312 62.0625
Q41.5 64.7969 34.2812 64.7969
z

M9.8125 72.9062
L35.0156 72.9062
Q46.2969 72.9062 52.3906 68.2188
Q58.5 63.5312 58.5 54.8906
Q58.5 48.1875 55.375 44.2344
Q52.25 40.2812 46.1875 39.3125
Q53.4688 37.75 57.5 32.7812
Q61.5312 27.8281 61.5312 20.4062
Q61.5312 10.6406 54.8906 5.3125
Q48.25 0 35.9844 0
L9.8125 0
z
" id="BitstreamVeraSans-Roman-42"/>
       <path d="
M34.1875 63.1875
L20.7969 26.9062
L47.6094 26.9062
z

M28.6094 72.9062
L39.7969 72.9062
L67.5781 0
L57.3281 0
L50.6875 18.7031
L17.8281 18.7031
L11.1875 0
L0.78125 0
z
" id="BitstreamVeraSans-Roman-41"/>
       <path d="
M3.32812 72.9062
L13.2812 72.9062
L28.6094 11.2812
L43.8906 72.9062
L54.9844 72.9062
L70.3125 11.2812
L85.5938 72.9062
L95.6094 72.9062
L77.2969 0
L64.8906 0
L49.5156 63.2812
L33.9844 0
L21.5781 0
z
" id="BitstreamVeraSans-Roman-57"/>
       <path d="
M-0.296875 72.9062
L61.375 72.9062
L61.375 64.5938
L35.5 64.5938
L35.5 0
L25.5938 0
L25.5938 64.5938
L-0.296875 64.5938
z
" id="BitstreamVeraSans-Roman-54"/>
       <path d="
M9.8125 72.9062
L19.6719 72.9062
L19.6719 0
L9.8125 0
z
" id="BitstreamVeraSans-Roman-49"/>
       <path d="
M9.8125 72.9062
L19.6719 72.9062
L19.6719 43.0156
L55.5156 43.0156
L55.5156 72.9062
L65.375 72.9062
L65.375 0
L55.5156 0
L55.5156 34.7188
L19.6719 34.7188
L19.6719 0
L9.8125 0
z
" id="BitstreamVeraSans-Roman-48"/>
      </defs>
      <g transform="translate(-46.0078125 210.855560662)scale(0.1 -0.1)">
       <use xlink:href="#BitstreamVeraSans-Roman-42"/>
       <use x="68.603515625" xlink:href="#BitstreamVeraSans-Roman-49"/>
       <use x="98.095703125" xlink:href="#BitstreamVeraSans-Roman-4f"/>
       <use x="176.806640625" xlink:href="#BitstreamVeraSans-Roman-43"/>
       <use x="246.630859375" xlink:href="#BitstreamVeraSans-Roman-41"/>
       <use x="315.0390625" xlink:href="#BitstreamVeraSans-Roman-52"/>
       <use x="377.271484375" xlink:href="#BitstreamVeraSans-Roman-54"/>
       <use x="430.60546875" xlink:href="#BitstreamVeraSans-Roman-41"/>
       <use x="499.013671875" xlink:href="#BitstreamVeraSans-Roman-5f"/>
       <use x="549.013671875" xlink:href="#BitstreamVeraSans-Roman-54"/>
       <use x="610.09765625" xlink:href="#BitstreamVeraSans-Roman-47"/>
       <use x="687.587890625" xlink:href="#BitstreamVeraSans-Roman-46"/>
       <use x="745.107421875" xlink:href="#BitstreamVeraSans-Roman-42"/>
       <use x="813.7109375" xlink:href="#BitstreamVeraSans-Roman-5f"/>
       <use x="863.7109375" xlink:href="#BitstreamVeraSans-Roman-50"/>
       <use x="917.638671875" xlink:href="#BitstreamVeraSans-Roman-41"/>
       <use x="978.296875" xlink:href="#BitstreamVeraSans-Roman-54"/>
       <use x="1039.38085938" xlink:href="#BitstreamVeraSans-Roman-48"/>
       <use x="1114.57617188" xlink:href="#BitstreamVeraSans-Roman-57"/>
       <use x="1207.953125" xlink:href="#BitstreamVeraSans-Roman-41"/>
       <use x="1268.61132812" xlink:href="#BitstreamVeraSans-Roman-59"/>
      </g>
     </g>
    </g>
    <g id="ytick_2">
     <g id="line2d_3">
      <defs>
       <path d="
M0 0
L4 0" id="m9a6227a564"/>
      </defs>
      <g>
       <use style="stroke:#000000;stroke-linecap:butt;stroke-width:0.5;" x="90.0" xlink:href="#m9a6227a564" y="175.5"/>
      </g>
     </g>
     <g id="line2d_4">
      <defs>
       <path d="
M0 0
L-4 0" id="m796ed49098"/>
      </defs>
      <g>
       <use style="stroke:#000000;stroke-linecap:butt;stroke-width:0.5;" x="648.0" xlink:href="#m796ed49098" y="175.5"/>
      </g>
     </g>
     <g id="text_2">
      <!-- REACTOME_NA_CL_DEPENDENT_NEUROTRANSMITTER_TRANSPORTERS -->
      <defs>
       <path d="
M9.8125 72.9062
L23.0938 72.9062
L55.4219 11.9219
L55.4219 72.9062
L64.9844 72.9062
L64.9844 0
L51.7031 0
L19.3906 60.9844
L19.3906 0
L9.8125 0
z
" id="BitstreamVeraSans-Roman-4e"/>
       <path d="
M9.8125 72.9062
L24.5156 72.9062
L43.1094 23.2969
L61.8125 72.9062
L76.5156 72.9062
L76.5156 0
L66.8906 0
L66.8906 64.0156
L48.0938 14.0156
L38.1875 14.0156
L19.3906 64.0156
L19.3906 0
L9.8125 0
z
" id="BitstreamVeraSans-Roman-4d"/>
       <path d="
M9.8125 72.9062
L19.6719 72.9062
L19.6719 8.29688
L55.1719 8.29688
L55.1719 0
L9.8125 0
z
" id="BitstreamVeraSans-Roman-4c"/>
       <path d="
M9.8125 72.9062
L55.9062 72.9062
L55.9062 64.5938
L19.6719 64.5938
L19.6719 43.0156
L54.3906 43.0156
L54.3906 34.7188
L19.6719 34.7188
L19.6719 8.29688
L56.7812 8.29688
L56.7812 0
L9.8125 0
z
" id="BitstreamVeraSans-Roman-45"/>
       <path d="
M19.6719 64.7969
L19.6719 8.10938
L31.5938 8.10938
Q46.6875 8.10938 53.6875 14.9375
Q60.6875 21.7812 60.6875 36.5312
Q60.6875 51.1719 53.6875 57.9844
Q46.6875 64.7969 31.5938 64.7969
z

M9.8125 72.9062
L30.0781 72.9062
Q51.2656 72.9062 61.1719 64.0938
Q71.0938 55.2812 71.0938 36.5312
Q71.0938 17.6719 61.125 8.82812
Q51.1719 0 30.0781 0
L9.8125 0
z
" id="BitstreamVeraSans-Roman-44"/>
       <path d="
M8.6875 72.9062
L18.6094 72.9062
L18.6094 28.6094
Q18.6094 16.8906 22.8438 11.7344
Q27.0938 6.59375 36.625 6.59375
Q46.0938 6.59375 50.3438 11.7344
Q54.5938 16.8906 54.5938 28.6094
L54.5938 72.9062
L64.5 72.9062
L64.5 27.3906
Q64.5 13.1406 57.4375 5.85938
Q50.3906 -1.42188 36.625 -1.42188
Q22.7969 -1.42188 15.7344 5.85938
Q8.6875 13.1406 8.6875 27.3906
z
" id="BitstreamVeraSans-Roman-55"/>
       <path d="
M53.5156 70.5156
L53.5156 60.8906
Q47.9062 63.5781 42.9219 64.8906
Q37.9375 66.2188 33.2969 66.2188
Q25.25 66.2188 20.875 63.0938
Q16.5 59.9688 16.5 54.2031
Q16.5 49.3594 19.4062 46.8906
Q22.3125 44.4375 30.4219 42.9219
L36.375 41.7031
Q47.4062 39.5938 52.6562 34.2969
Q57.9062 29 57.9062 20.125
Q57.9062 9.51562 50.7969 4.04688
Q43.7031 -1.42188 29.9844 -1.42188
Q24.8125 -1.42188 18.9688 -0.25
Q13.1406 0.921875 6.89062 3.21875
L6.89062 13.375
Q12.8906 10.0156 18.6562 8.29688
Q24.4219 6.59375 29.9844 6.59375
Q38.4219 6.59375 43.0156 9.90625
Q47.6094 13.2344 47.6094 19.3906
Q47.6094 24.75 44.3125 27.7812
Q41.0156 30.8125 33.5 32.3281
L27.4844 33.5
Q16.4531 35.6875 11.5156 40.375
Q6.59375 45.0625 6.59375 53.4219
Q6.59375 63.0938 13.4062 68.6562
Q20.2188 74.2188 32.1719 74.2188
Q37.3125 74.2188 42.625 73.2812
Q47.9531 72.3594 53.5156 70.5156" id="BitstreamVeraSans-Roman-53"/>
      </defs>
      <g transform="translate(-266.9625 178.03203125)scale(0.1 -0.1)">
       <use xlink:href="#BitstreamVeraSans-Roman-52"/>
       <use x="69.482421875" xlink:href="#BitstreamVeraSans-Roman-45"/>
       <use x="132.666015625" xlink:href="#BitstreamVeraSans-Roman-41"/>
       <use x="199.32421875" xlink:href="#BitstreamVeraSans-Roman-43"/>
       <use x="269.1484375" xlink:href="#BitstreamVeraSans-Roman-54"/>
       <use x="330.232421875" xlink:href="#BitstreamVeraSans-Roman-4f"/>
       <use x="408.943359375" xlink:href="#BitstreamVeraSans-Roman-4d"/>
       <use x="495.22265625" xlink:href="#BitstreamVeraSans-Roman-45"/>
       <use x="558.40625" xlink:href="#BitstreamVeraSans-Roman-5f"/>
       <use x="608.40625" xlink:href="#BitstreamVeraSans-Roman-4e"/>
       <use x="683.2109375" xlink:href="#BitstreamVeraSans-Roman-41"/>
       <use x="751.619140625" xlink:href="#BitstreamVeraSans-Roman-5f"/>
       <use x="801.619140625" xlink:href="#BitstreamVeraSans-Roman-43"/>
       <use x="871.443359375" xlink:href="#BitstreamVeraSans-Roman-4c"/>
       <use x="927.15625" xlink:href="#BitstreamVeraSans-Roman-5f"/>
       <use x="977.15625" xlink:href="#BitstreamVeraSans-Roman-44"/>
       <use x="1054.15820312" xlink:href="#BitstreamVeraSans-Roman-45"/>
       <use x="1117.34179688" xlink:href="#BitstreamVeraSans-Roman-50"/>
       <use x="1177.64453125" xlink:href="#BitstreamVeraSans-Roman-45"/>
       <use x="1240.828125" xlink:href="#BitstreamVeraSans-Roman-4e"/>
       <use x="1315.6328125" xlink:href="#BitstreamVeraSans-Roman-44"/>
       <use x="1392.63476562" xlink:href="#BitstreamVeraSans-Roman-45"/>
       <use x="1455.81835938" xlink:href="#BitstreamVeraSans-Roman-4e"/>
       <use x="1530.62304688" xlink:href="#BitstreamVeraSans-Roman-54"/>
       <use x="1591.70703125" xlink:href="#BitstreamVeraSans-Roman-5f"/>
       <use x="1641.70703125" xlink:href="#BitstreamVeraSans-Roman-4e"/>
       <use x="1716.51171875" xlink:href="#BitstreamVeraSans-Roman-45"/>
       <use x="1779.6953125" xlink:href="#BitstreamVeraSans-Roman-55"/>
       <use x="1852.88867188" xlink:href="#BitstreamVeraSans-Roman-52"/>
       <use x="1922.37109375" xlink:href="#BitstreamVeraSans-Roman-4f"/>
       <use x="2001.08203125" xlink:href="#BitstreamVeraSans-Roman-54"/>
       <use x="2062.16601562" xlink:href="#BitstreamVeraSans-Roman-52"/>
       <use x="2127.6484375" xlink:href="#BitstreamVeraSans-Roman-41"/>
       <use x="2196.05664062" xlink:href="#BitstreamVeraSans-Roman-4e"/>
       <use x="2270.86132812" xlink:href="#BitstreamVeraSans-Roman-53"/>
       <use x="2334.33789062" xlink:href="#BitstreamVeraSans-Roman-4d"/>
       <use x="2420.6171875" xlink:href="#BitstreamVeraSans-Roman-49"/>
       <use x="2450.109375" xlink:href="#BitstreamVeraSans-Roman-54"/>
       <use x="2509.44335938" xlink:href="#BitstreamVeraSans-Roman-54"/>
       <use x="2570.52734375" xlink:href="#BitstreamVeraSans-Roman-45"/>
       <use x="2633.7109375" xlink:href="#BitstreamVeraSans-Roman-52"/>
       <use x="2703.19335938" xlink:href="#BitstreamVeraSans-Roman-5f"/>
       <use x="2753.19335938" xlink:href="#BitstreamVeraSans-Roman-54"/>
       <use x="2814.27734375" xlink:href="#BitstreamVeraSans-Roman-52"/>
       <use x="2879.75976562" xlink:href="#BitstreamVeraSans-Roman-41"/>
       <use x="2948.16796875" xlink:href="#BitstreamVeraSans-Roman-4e"/>
       <use x="3022.97265625" xlink:href="#BitstreamVeraSans-Roman-53"/>
       <use x="3086.44921875" xlink:href="#BitstreamVeraSans-Roman-50"/>
       <use x="3146.75195312" xlink:href="#BitstreamVeraSans-Roman-4f"/>
       <use x="3225.46289062" xlink:href="#BitstreamVeraSans-Roman-52"/>
       <use x="3287.6953125" xlink:href="#BitstreamVeraSans-Roman-54"/>
       <use x="3348.77929688" xlink:href="#BitstreamVeraSans-Roman-45"/>
       <use x="3411.96289062" xlink:href="#BitstreamVeraSans-Roman-52"/>
       <use x="3481.4453125" xlink:href="#BitstreamVeraSans-Roman-53"/>
      </g>
     </g>
    </g>
    <g id="ytick_3">
     <g id="line2d_5">
      <defs>
       <path d="
M0 0
L4 0" id="m9a6227a564"/>
      </defs>
      <g>
       <use style="stroke:#000000;stroke-linecap:butt;stroke-width:0.5;" x="90.0" xlink:href="#m9a6227a564" y="142.676470588"/>
      </g>
     </g>
     <g id="line2d_6">
      <defs>
       <path d="
M0 0
L-4 0" id="m796ed49098"/>
      </defs>
      <g>
       <use style="stroke:#000000;stroke-linecap:butt;stroke-width:0.5;" x="648.0" xlink:href="#m796ed49098" y="142.676470588"/>
      </g>
     </g>
     <g id="text_3">
      <!-- REACTOME_P53_INDEPENDENT_DNA_DAMAGE_RESPONSE -->
      <defs>
       <path d="
M40.5781 39.3125
Q47.6562 37.7969 51.625 33
Q55.6094 28.2188 55.6094 21.1875
Q55.6094 10.4062 48.1875 4.48438
Q40.7656 -1.42188 27.0938 -1.42188
Q22.5156 -1.42188 17.6562 -0.515625
Q12.7969 0.390625 7.625 2.20312
L7.625 11.7188
Q11.7188 9.32812 16.5938 8.10938
Q21.4844 6.89062 26.8125 6.89062
Q36.0781 6.89062 40.9375 10.5469
Q45.7969 14.2031 45.7969 21.1875
Q45.7969 27.6406 41.2812 31.2656
Q36.7656 34.9062 28.7188 34.9062
L20.2188 34.9062
L20.2188 43.0156
L29.1094 43.0156
Q36.375 43.0156 40.2344 45.9219
Q44.0938 48.8281 44.0938 54.2969
Q44.0938 59.9062 40.1094 62.9062
Q36.1406 65.9219 28.7188 65.9219
Q24.6562 65.9219 20.0156 65.0312
Q15.375 64.1562 9.8125 62.3125
L9.8125 71.0938
Q15.4375 72.6562 20.3438 73.4375
Q25.25 74.2188 29.5938 74.2188
Q40.8281 74.2188 47.3594 69.1094
Q53.9062 64.0156 53.9062 55.3281
Q53.9062 49.2656 50.4375 45.0938
Q46.9688 40.9219 40.5781 39.3125" id="BitstreamVeraSans-Roman-33"/>
       <path d="
M10.7969 72.9062
L49.5156 72.9062
L49.5156 64.5938
L19.8281 64.5938
L19.8281 46.7344
Q21.9688 47.4688 24.1094 47.8281
Q26.2656 48.1875 28.4219 48.1875
Q40.625 48.1875 47.75 41.5
Q54.8906 34.8125 54.8906 23.3906
Q54.8906 11.625 47.5625 5.09375
Q40.2344 -1.42188 26.9062 -1.42188
Q22.3125 -1.42188 17.5469 -0.640625
Q12.7969 0.140625 7.71875 1.70312
L7.71875 11.625
Q12.1094 9.23438 16.7969 8.0625
Q21.4844 6.89062 26.7031 6.89062
Q35.1562 6.89062 40.0781 11.3281
Q45.0156 15.7656 45.0156 23.3906
Q45.0156 31 40.0781 35.4375
Q35.1562 39.8906 26.7031 39.8906
Q22.75 39.8906 18.8125 39.0156
Q14.8906 38.1406 10.7969 36.2812
z
" id="BitstreamVeraSans-Roman-35"/>
      </defs>
      <g transform="translate(-203.2765625 145.208501838)scale(0.1 -0.1)">
       <use xlink:href="#BitstreamVeraSans-Roman-52"/>
       <use x="69.482421875" xlink:href="#BitstreamVeraSans-Roman-45"/>
       <use x="132.666015625" xlink:href="#BitstreamVeraSans-Roman-41"/>
       <use x="199.32421875" xlink:href="#BitstreamVeraSans-Roman-43"/>
       <use x="269.1484375" xlink:href="#BitstreamVeraSans-Roman-54"/>
       <use x="330.232421875" xlink:href="#BitstreamVeraSans-Roman-4f"/>
       <use x="408.943359375" xlink:href="#BitstreamVeraSans-Roman-4d"/>
       <use x="495.22265625" xlink:href="#BitstreamVeraSans-Roman-45"/>
       <use x="558.40625" xlink:href="#BitstreamVeraSans-Roman-5f"/>
       <use x="608.40625" xlink:href="#BitstreamVeraSans-Roman-50"/>
       <use x="668.708984375" xlink:href="#BitstreamVeraSans-Roman-35"/>
       <use x="732.33203125" xlink:href="#BitstreamVeraSans-Roman-33"/>
       <use x="795.955078125" xlink:href="#BitstreamVeraSans-Roman-5f"/>
       <use x="845.955078125" xlink:href="#BitstreamVeraSans-Roman-49"/>
       <use x="875.447265625" xlink:href="#BitstreamVeraSans-Roman-4e"/>
       <use x="950.251953125" xlink:href="#BitstreamVeraSans-Roman-44"/>
       <use x="1027.25390625" xlink:href="#BitstreamVeraSans-Roman-45"/>
       <use x="1090.4375" xlink:href="#BitstreamVeraSans-Roman-50"/>
       <use x="1150.74023438" xlink:href="#BitstreamVeraSans-Roman-45"/>
       <use x="1213.92382812" xlink:href="#BitstreamVeraSans-Roman-4e"/>
       <use x="1288.72851562" xlink:href="#BitstreamVeraSans-Roman-44"/>
       <use x="1365.73046875" xlink:href="#BitstreamVeraSans-Roman-45"/>
       <use x="1428.9140625" xlink:href="#BitstreamVeraSans-Roman-4e"/>
       <use x="1503.71875" xlink:href="#BitstreamVeraSans-Roman-54"/>
       <use x="1564.80273438" xlink:href="#BitstreamVeraSans-Roman-5f"/>
       <use x="1614.80273438" xlink:href="#BitstreamVeraSans-Roman-44"/>
       <use x="1691.8046875" xlink:href="#BitstreamVeraSans-Roman-4e"/>
       <use x="1766.609375" xlink:href="#BitstreamVeraSans-Roman-41"/>
       <use x="1835.01757812" xlink:href="#BitstreamVeraSans-Roman-5f"/>
       <use x="1885.01757812" xlink:href="#BitstreamVeraSans-Roman-44"/>
       <use x="1960.26953125" xlink:href="#BitstreamVeraSans-Roman-41"/>
       <use x="2028.67773438" xlink:href="#BitstreamVeraSans-Roman-4d"/>
       <use x="2114.95703125" xlink:href="#BitstreamVeraSans-Roman-41"/>
       <use x="2181.61523438" xlink:href="#BitstreamVeraSans-Roman-47"/>
       <use x="2259.10546875" xlink:href="#BitstreamVeraSans-Roman-45"/>
       <use x="2322.2890625" xlink:href="#BitstreamVeraSans-Roman-5f"/>
       <use x="2372.2890625" xlink:href="#BitstreamVeraSans-Roman-52"/>
       <use x="2441.77148438" xlink:href="#BitstreamVeraSans-Roman-45"/>
       <use x="2504.95507812" xlink:href="#BitstreamVeraSans-Roman-53"/>
       <use x="2568.43164062" xlink:href="#BitstreamVeraSans-Roman-50"/>
       <use x="2628.734375" xlink:href="#BitstreamVeraSans-Roman-4f"/>
       <use x="2707.4453125" xlink:href="#BitstreamVeraSans-Roman-4e"/>
       <use x="2782.25" xlink:href="#BitstreamVeraSans-Roman-53"/>
       <use x="2845.7265625" xlink:href="#BitstreamVeraSans-Roman-45"/>
      </g>
     </g>
    </g>
   </g>
   <g id="patch_214">
    <path d="
M90 126.265
L648 126.265" style="fill:none;stroke:#000000;"/>
   </g>
   <g id="patch_215">
    <path d="
M648 224.735
L648 126.265" style="fill:none;stroke:#000000;"/>
   </g>
   <g id="patch_216">
    <path d="
M90 224.735
L648 224.735" style="fill:none;stroke:#000000;"/>
   </g>
   <g id="patch_217">
    <path d="
M90 224.735
L90 126.265" style="fill:none;stroke:#000000;"/>
   </g>
  </g>
 </g>
 <defs>
  <clipPath id="pf7a3a472c0">
   <rect height="98.4705882353" width="558.0" x="90.0" y="126.264705882"/>
  </clipPath>
 </defs>
</svg>
