<?xml version="1.0" encoding="utf-8" standalone="no"?>
<!DOCTYPE svg PUBLIC "-//W3C//DTD SVG 1.1//EN"
  "http://www.w3.org/Graphics/SVG/1.1/DTD/svg11.dtd">
<!-- Created with matplotlib (http://matplotlib.sourceforge.net/) -->
<svg height="288pt" version="1.1" viewBox="0 0 432 288" width="432pt" xmlns="http://www.w3.org/2000/svg" xmlns:xlink="http://www.w3.org/1999/xlink">
 <defs>
  <style type="text/css">
*{stroke-linecap:square;stroke-linejoin:round;}
  </style>
 </defs>
 <g id="figure_1">
  <g id="patch_1">
   <path d="
M0 288
L432 288
L432 0
L0 0
z
" style="fill:#ffffff;"/>
  </g>
  <g id="axes_1">
   <g id="patch_2">
    <path d="
M54 252
L388.8 252
L388.8 28.8
L54 28.8
z
" style="fill:#ffffff;"/>
   </g>
   <g id="PathCollection_1">
    <defs>
     <path d="
M0 4.33013
C1.14836 4.33013 2.24985 3.87388 3.06186 3.06186
C3.87388 2.24985 4.33013 1.14836 4.33013 0
C4.33013 -1.14836 3.87388 -2.24985 3.06186 -3.06186
C2.24985 -3.87388 1.14836 -4.33013 0 -4.33013
C-1.14836 -4.33013 -2.24985 -3.87388 -3.06186 -3.06186
C-3.87388 -2.24985 -4.33013 -1.14836 -4.33013 0
C-4.33013 1.14836 -3.87388 2.24985 -3.06186 3.06186
C-2.24985 3.87388 -1.14836 4.33013 0 4.33013
z
" id="C0_0_c1029985b4"/>
    </defs>
    <g clip-path="url(#p124b8dd147)">
     <use style="fill:#0000ff;opacity:0.5;stroke:#000000;stroke-linecap:butt;" x="316.570739359" xlink:href="#C0_0_c1029985b4" y="95.377334591"/>
    </g>
    <g clip-path="url(#p124b8dd147)">
     <use style="fill:#0000ff;opacity:0.5;stroke:#000000;stroke-linecap:butt;" x="286.683579762" xlink:href="#C0_0_c1029985b4" y="88.6112445703"/>
    </g>
    <g clip-path="url(#p124b8dd147)">
     <use style="fill:#0000ff;opacity:0.5;stroke:#000000;stroke-linecap:butt;" x="281.061719338" xlink:href="#C0_0_c1029985b4" y="82.7743702412"/>
    </g>
    <g clip-path="url(#p124b8dd147)">
     <use style="fill:#0000ff;opacity:0.5;stroke:#000000;stroke-linecap:butt;" x="262.796967119" xlink:href="#C0_0_c1029985b4" y="105.525547446"/>
    </g>
    <g clip-path="url(#p124b8dd147)">
     <use style="fill:#0000ff;opacity:0.5;stroke:#000000;stroke-linecap:butt;" x="270.024998273" xlink:href="#C0_0_c1029985b4" y="92.8561295912"/>
    </g>
    <g clip-path="url(#p124b8dd147)">
     <use style="fill:#0000ff;opacity:0.5;stroke:#000000;stroke-linecap:butt;" x="86.2280105295" xlink:href="#C0_0_c1029985b4" y="227.874499673"/>
    </g>
    <g clip-path="url(#p124b8dd147)">
     <use style="fill:#0000ff;opacity:0.5;stroke:#000000;stroke-linecap:butt;" x="359.687529854" xlink:href="#C0_0_c1029985b4" y="92.9329014488"/>
    </g>
    <g clip-path="url(#p124b8dd147)">
     <use style="fill:#0000ff;opacity:0.5;stroke:#000000;stroke-linecap:butt;" x="313.153783751" xlink:href="#C0_0_c1029985b4" y="95.464402878"/>
    </g>
    <g clip-path="url(#p124b8dd147)">
     <use style="fill:#0000ff;opacity:0.5;stroke:#000000;stroke-linecap:butt;" x="300.885921705" xlink:href="#C0_0_c1029985b4" y="80.2884300224"/>
    </g>
    <g clip-path="url(#p124b8dd147)">
     <use style="fill:#0000ff;opacity:0.5;stroke:#000000;stroke-linecap:butt;" x="289.258436167" xlink:href="#C0_0_c1029985b4" y="82.8756603548"/>
    </g>
    <g clip-path="url(#p124b8dd147)">
     <use style="fill:#0000ff;opacity:0.5;stroke:#000000;stroke-linecap:butt;" x="282.09715207" xlink:href="#C0_0_c1029985b4" y="94.0554608731"/>
    </g>
    <g clip-path="url(#p124b8dd147)">
     <use style="fill:#0000ff;opacity:0.5;stroke:#000000;stroke-linecap:butt;" x="306.136602132" xlink:href="#C0_0_c1029985b4" y="93.4928168103"/>
    </g>
    <g clip-path="url(#p124b8dd147)">
     <use style="fill:#0000ff;opacity:0.5;stroke:#000000;stroke-linecap:butt;" x="282.653969125" xlink:href="#C0_0_c1029985b4" y="82.8890205202"/>
    </g>
    <g clip-path="url(#p124b8dd147)">
     <use style="fill:#0000ff;opacity:0.5;stroke:#000000;stroke-linecap:butt;" x="241.699528144" xlink:href="#C0_0_c1029985b4" y="101.301926676"/>
    </g>
    <g clip-path="url(#p124b8dd147)">
     <use style="fill:#0000ff;opacity:0.5;stroke:#000000;stroke-linecap:butt;" x="298.282765078" xlink:href="#C0_0_c1029985b4" y="89.4545623184"/>
    </g>
    <g clip-path="url(#p124b8dd147)">
     <use style="fill:#0000ff;opacity:0.5;stroke:#000000;stroke-linecap:butt;" x="271.240379069" xlink:href="#C0_0_c1029985b4" y="100.129315218"/>
    </g>
    <g clip-path="url(#p124b8dd147)">
     <use style="fill:#0000ff;opacity:0.5;stroke:#000000;stroke-linecap:butt;" x="279.967104932" xlink:href="#C0_0_c1029985b4" y="88.8677827551"/>
    </g>
    <g clip-path="url(#p124b8dd147)">
     <use style="fill:#0000ff;opacity:0.5;stroke:#000000;stroke-linecap:butt;" x="362.52547587" xlink:href="#C0_0_c1029985b4" y="86.8256461979"/>
    </g>
    <g clip-path="url(#p124b8dd147)">
     <use style="fill:#0000ff;opacity:0.5;stroke:#000000;stroke-linecap:butt;" x="353.702037019" xlink:href="#C0_0_c1029985b4" y="92.4734840184"/>
    </g>
    <g clip-path="url(#p124b8dd147)">
     <use style="fill:#0000ff;opacity:0.5;stroke:#000000;stroke-linecap:butt;" x="271.419637407" xlink:href="#C0_0_c1029985b4" y="90.1346101985"/>
    </g>
    <g clip-path="url(#p124b8dd147)">
     <use style="fill:#0000ff;opacity:0.5;stroke:#000000;stroke-linecap:butt;" x="332.504201227" xlink:href="#C0_0_c1029985b4" y="95.1331531094"/>
    </g>
    <g clip-path="url(#p124b8dd147)">
     <use style="fill:#0000ff;opacity:0.5;stroke:#000000;stroke-linecap:butt;" x="268.22661883" xlink:href="#C0_0_c1029985b4" y="90.7752758247"/>
    </g>
    <g clip-path="url(#p124b8dd147)">
     <use style="fill:#0000ff;opacity:0.5;stroke:#000000;stroke-linecap:butt;" x="288.689329844" xlink:href="#C0_0_c1029985b4" y="96.645095734"/>
    </g>
    <g clip-path="url(#p124b8dd147)">
     <use style="fill:#0000ff;opacity:0.5;stroke:#000000;stroke-linecap:butt;" x="255.977100572" xlink:href="#C0_0_c1029985b4" y="90.7756560807"/>
    </g>
    <g clip-path="url(#p124b8dd147)">
     <use style="fill:#0000ff;opacity:0.5;stroke:#000000;stroke-linecap:butt;" x="232.354821103" xlink:href="#C0_0_c1029985b4" y="75.371327244"/>
    </g>
    <g clip-path="url(#p124b8dd147)">
     <use style="fill:#0000ff;opacity:0.5;stroke:#000000;stroke-linecap:butt;" x="233.795728041" xlink:href="#C0_0_c1029985b4" y="99.0131349345"/>
    </g>
    <g clip-path="url(#p124b8dd147)">
     <use style="fill:#0000ff;opacity:0.5;stroke:#000000;stroke-linecap:butt;" x="315.164559285" xlink:href="#C0_0_c1029985b4" y="94.2033807859"/>
    </g>
    <g clip-path="url(#p124b8dd147)">
     <use style="fill:#0000ff;opacity:0.5;stroke:#000000;stroke-linecap:butt;" x="268.02355353" xlink:href="#C0_0_c1029985b4" y="95.3005380672"/>
    </g>
    <g clip-path="url(#p124b8dd147)">
     <use style="fill:#0000ff;opacity:0.5;stroke:#000000;stroke-linecap:butt;" x="303.554644985" xlink:href="#C0_0_c1029985b4" y="85.501456108"/>
    </g>
    <g clip-path="url(#p124b8dd147)">
     <use style="fill:#0000ff;opacity:0.5;stroke:#000000;stroke-linecap:butt;" x="274.06274529" xlink:href="#C0_0_c1029985b4" y="89.6775763424"/>
    </g>
    <g clip-path="url(#p124b8dd147)">
     <use style="fill:#0000ff;opacity:0.5;stroke:#000000;stroke-linecap:butt;" x="306.611135161" xlink:href="#C0_0_c1029985b4" y="98.2085787943"/>
    </g>
    <g clip-path="url(#p124b8dd147)">
     <use style="fill:#0000ff;opacity:0.5;stroke:#000000;stroke-linecap:butt;" x="276.97748531" xlink:href="#C0_0_c1029985b4" y="79.6237838351"/>
    </g>
    <g clip-path="url(#p124b8dd147)">
     <use style="fill:#0000ff;opacity:0.5;stroke:#000000;stroke-linecap:butt;" x="338.204232501" xlink:href="#C0_0_c1029985b4" y="96.3528982467"/>
    </g>
    <g clip-path="url(#p124b8dd147)">
     <use style="fill:#0000ff;opacity:0.5;stroke:#000000;stroke-linecap:butt;" x="256.843356757" xlink:href="#C0_0_c1029985b4" y="85.5653879095"/>
    </g>
    <g clip-path="url(#p124b8dd147)">
     <use style="fill:#0000ff;opacity:0.5;stroke:#000000;stroke-linecap:butt;" x="264.167175462" xlink:href="#C0_0_c1029985b4" y="89.6920513105"/>
    </g>
    <g clip-path="url(#p124b8dd147)">
     <use style="fill:#0000ff;opacity:0.5;stroke:#000000;stroke-linecap:butt;" x="370.983474458" xlink:href="#C0_0_c1029985b4" y="78.698137093"/>
    </g>
    <g clip-path="url(#p124b8dd147)">
     <use style="fill:#0000ff;opacity:0.5;stroke:#000000;stroke-linecap:butt;" x="273.894019915" xlink:href="#C0_0_c1029985b4" y="113.785348193"/>
    </g>
    <g clip-path="url(#p124b8dd147)">
     <use style="fill:#0000ff;opacity:0.5;stroke:#000000;stroke-linecap:butt;" x="349.871180025" xlink:href="#C0_0_c1029985b4" y="100.059975328"/>
    </g>
    <g clip-path="url(#p124b8dd147)">
     <use style="fill:#0000ff;opacity:0.5;stroke:#000000;stroke-linecap:butt;" x="242.09838578" xlink:href="#C0_0_c1029985b4" y="92.2322897898"/>
    </g>
    <g clip-path="url(#p124b8dd147)">
     <use style="fill:#0000ff;opacity:0.5;stroke:#000000;stroke-linecap:butt;" x="324.239325308" xlink:href="#C0_0_c1029985b4" y="93.3943923358"/>
    </g>
    <g clip-path="url(#p124b8dd147)">
     <use style="fill:#0000ff;opacity:0.5;stroke:#000000;stroke-linecap:butt;" x="283.867407691" xlink:href="#C0_0_c1029985b4" y="82.502801996"/>
    </g>
    <g clip-path="url(#p124b8dd147)">
     <use style="fill:#0000ff;opacity:0.5;stroke:#000000;stroke-linecap:butt;" x="293.37430597" xlink:href="#C0_0_c1029985b4" y="100.554604382"/>
    </g>
    <g clip-path="url(#p124b8dd147)">
     <use style="fill:#0000ff;opacity:0.5;stroke:#000000;stroke-linecap:butt;" x="289.677137109" xlink:href="#C0_0_c1029985b4" y="104.071393368"/>
    </g>
    <g clip-path="url(#p124b8dd147)">
     <use style="fill:#0000ff;opacity:0.5;stroke:#000000;stroke-linecap:butt;" x="282.503149375" xlink:href="#C0_0_c1029985b4" y="105.848374218"/>
    </g>
    <g clip-path="url(#p124b8dd147)">
     <use style="fill:#0000ff;opacity:0.5;stroke:#000000;stroke-linecap:butt;" x="307.094041776" xlink:href="#C0_0_c1029985b4" y="90.7212746258"/>
    </g>
    <g clip-path="url(#p124b8dd147)">
     <use style="fill:#0000ff;opacity:0.5;stroke:#000000;stroke-linecap:butt;" x="291.955638444" xlink:href="#C0_0_c1029985b4" y="94.9997800275"/>
    </g>
    <g clip-path="url(#p124b8dd147)">
     <use style="fill:#0000ff;opacity:0.5;stroke:#000000;stroke-linecap:butt;" x="293.603018882" xlink:href="#C0_0_c1029985b4" y="87.4970367707"/>
    </g>
    <g clip-path="url(#p124b8dd147)">
     <use style="fill:#0000ff;opacity:0.5;stroke:#000000;stroke-linecap:butt;" x="279.912613068" xlink:href="#C0_0_c1029985b4" y="95.1617234218"/>
    </g>
    <g clip-path="url(#p124b8dd147)">
     <use style="fill:#0000ff;opacity:0.5;stroke:#000000;stroke-linecap:butt;" x="279.380323553" xlink:href="#C0_0_c1029985b4" y="95.8035310187"/>
    </g>
    <g clip-path="url(#p124b8dd147)">
     <use style="fill:#0000ff;opacity:0.5;stroke:#000000;stroke-linecap:butt;" x="284.436841756" xlink:href="#C0_0_c1029985b4" y="94.7522657993"/>
    </g>
    <g clip-path="url(#p124b8dd147)">
     <use style="fill:#0000ff;opacity:0.5;stroke:#000000;stroke-linecap:butt;" x="240.727011393" xlink:href="#C0_0_c1029985b4" y="99.3447438068"/>
    </g>
    <g clip-path="url(#p124b8dd147)">
     <use style="fill:#0000ff;opacity:0.5;stroke:#000000;stroke-linecap:butt;" x="265.152935883" xlink:href="#C0_0_c1029985b4" y="102.347819535"/>
    </g>
    <g clip-path="url(#p124b8dd147)">
     <use style="fill:#0000ff;opacity:0.5;stroke:#000000;stroke-linecap:butt;" x="221.120728589" xlink:href="#C0_0_c1029985b4" y="76.4369609289"/>
    </g>
    <g clip-path="url(#p124b8dd147)">
     <use style="fill:#0000ff;opacity:0.5;stroke:#000000;stroke-linecap:butt;" x="251.434701723" xlink:href="#C0_0_c1029985b4" y="106.127361834"/>
    </g>
    <g clip-path="url(#p124b8dd147)">
     <use style="fill:#0000ff;opacity:0.5;stroke:#000000;stroke-linecap:butt;" x="314.799074715" xlink:href="#C0_0_c1029985b4" y="94.5058397107"/>
    </g>
    <g clip-path="url(#p124b8dd147)">
     <use style="fill:#0000ff;opacity:0.5;stroke:#000000;stroke-linecap:butt;" x="314.497480667" xlink:href="#C0_0_c1029985b4" y="90.1509007713"/>
    </g>
    <g clip-path="url(#p124b8dd147)">
     <use style="fill:#0000ff;opacity:0.5;stroke:#000000;stroke-linecap:butt;" x="241.390782082" xlink:href="#C0_0_c1029985b4" y="87.5528356717"/>
    </g>
    <g clip-path="url(#p124b8dd147)">
     <use style="fill:#0000ff;opacity:0.5;stroke:#000000;stroke-linecap:butt;" x="224.628916413" xlink:href="#C0_0_c1029985b4" y="46.1566496567"/>
    </g>
    <g clip-path="url(#p124b8dd147)">
     <use style="fill:#0000ff;opacity:0.5;stroke:#000000;stroke-linecap:butt;" x="280.578805827" xlink:href="#C0_0_c1029985b4" y="111.060552426"/>
    </g>
    <g clip-path="url(#p124b8dd147)">
     <use style="fill:#0000ff;opacity:0.5;stroke:#000000;stroke-linecap:butt;" x="293.663318514" xlink:href="#C0_0_c1029985b4" y="82.7812697739"/>
    </g>
    <g clip-path="url(#p124b8dd147)">
     <use style="fill:#0000ff;opacity:0.5;stroke:#000000;stroke-linecap:butt;" x="270.429692824" xlink:href="#C0_0_c1029985b4" y="140.23039218"/>
    </g>
   </g>
   <g id="matplotlib.axis_1">
    <g id="xtick_1">
     <g id="line2d_1">
      <defs>
       <path d="
M0 0
L0 -4" id="m1e69351473"/>
      </defs>
      <g>
       <use style="stroke:#000000;stroke-linecap:butt;stroke-width:0.5;" x="54.0" xlink:href="#m1e69351473" y="252.0"/>
      </g>
     </g>
     <g id="line2d_2">
      <defs>
       <path d="
M0 0
L0 4" id="m3dc4296b33"/>
      </defs>
      <g>
       <use style="stroke:#000000;stroke-linecap:butt;stroke-width:0.5;" x="54.0" xlink:href="#m3dc4296b33" y="28.8"/>
      </g>
     </g>
     <g id="text_1">
      <!-- −6 -->
      <defs>
       <path d="
M10.5938 35.5
L73.1875 35.5
L73.1875 27.2031
L10.5938 27.2031
z
" id="BitstreamVeraSans-Roman-2212"/>
       <path d="
M33.0156 40.375
Q26.375 40.375 22.4844 35.8281
Q18.6094 31.2969 18.6094 23.3906
Q18.6094 15.5312 22.4844 10.9531
Q26.375 6.39062 33.0156 6.39062
Q39.6562 6.39062 43.5312 10.9531
Q47.4062 15.5312 47.4062 23.3906
Q47.4062 31.2969 43.5312 35.8281
Q39.6562 40.375 33.0156 40.375
M52.5938 71.2969
L52.5938 62.3125
Q48.875 64.0625 45.0938 64.9844
Q41.3125 65.9219 37.5938 65.9219
Q27.8281 65.9219 22.6719 59.3281
Q17.5312 52.7344 16.7969 39.4062
Q19.6719 43.6562 24.0156 45.9219
Q28.375 48.1875 33.5938 48.1875
Q44.5781 48.1875 50.9531 41.5156
Q57.3281 34.8594 57.3281 23.3906
Q57.3281 12.1562 50.6875 5.35938
Q44.0469 -1.42188 33.0156 -1.42188
Q20.3594 -1.42188 13.6719 8.26562
Q6.98438 17.9688 6.98438 36.375
Q6.98438 53.6562 15.1875 63.9375
Q23.3906 74.2188 37.2031 74.2188
Q40.9219 74.2188 44.7031 73.4844
Q48.4844 72.75 52.5938 71.2969" id="BitstreamVeraSans-Roman-36"/>
      </defs>
      <g transform="translate(47.4734375 263.421875)scale(0.1 -0.1)">
       <use xlink:href="#BitstreamVeraSans-Roman-2212"/>
       <use x="83.7890625" xlink:href="#BitstreamVeraSans-Roman-36"/>
      </g>
     </g>
    </g>
    <g id="xtick_2">
     <g id="line2d_3">
      <defs>
       <path d="
M0 0
L0 -4" id="m1e69351473"/>
      </defs>
      <g>
       <use style="stroke:#000000;stroke-linecap:butt;stroke-width:0.5;" x="91.2" xlink:href="#m1e69351473" y="252.0"/>
      </g>
     </g>
     <g id="line2d_4">
      <defs>
       <path d="
M0 0
L0 4" id="m3dc4296b33"/>
      </defs>
      <g>
       <use style="stroke:#000000;stroke-linecap:butt;stroke-width:0.5;" x="91.2" xlink:href="#m3dc4296b33" y="28.8"/>
      </g>
     </g>
     <g id="text_2">
      <!-- −5 -->
      <defs>
       <path d="
M10.7969 72.9062
L49.5156 72.9062
L49.5156 64.5938
L19.8281 64.5938
L19.8281 46.7344
Q21.9688 47.4688 24.1094 47.8281
Q26.2656 48.1875 28.4219 48.1875
Q40.625 48.1875 47.75 41.5
Q54.8906 34.8125 54.8906 23.3906
Q54.8906 11.625 47.5625 5.09375
Q40.2344 -1.42188 26.9062 -1.42188
Q22.3125 -1.42188 17.5469 -0.640625
Q12.7969 0.140625 7.71875 1.70312
L7.71875 11.625
Q12.1094 9.23438 16.7969 8.0625
Q21.4844 6.89062 26.7031 6.89062
Q35.1562 6.89062 40.0781 11.3281
Q45.0156 15.7656 45.0156 23.3906
Q45.0156 31 40.0781 35.4375
Q35.1562 39.8906 26.7031 39.8906
Q22.75 39.8906 18.8125 39.0156
Q14.8906 38.1406 10.7969 36.2812
z
" id="BitstreamVeraSans-Roman-35"/>
      </defs>
      <g transform="translate(84.7953125 263.290625)scale(0.1 -0.1)">
       <use xlink:href="#BitstreamVeraSans-Roman-2212"/>
       <use x="83.7890625" xlink:href="#BitstreamVeraSans-Roman-35"/>
      </g>
     </g>
    </g>
    <g id="xtick_3">
     <g id="line2d_5">
      <defs>
       <path d="
M0 0
L0 -4" id="m1e69351473"/>
      </defs>
      <g>
       <use style="stroke:#000000;stroke-linecap:butt;stroke-width:0.5;" x="128.4" xlink:href="#m1e69351473" y="252.0"/>
      </g>
     </g>
     <g id="line2d_6">
      <defs>
       <path d="
M0 0
L0 4" id="m3dc4296b33"/>
      </defs>
      <g>
       <use style="stroke:#000000;stroke-linecap:butt;stroke-width:0.5;" x="128.4" xlink:href="#m3dc4296b33" y="28.8"/>
      </g>
     </g>
     <g id="text_3">
      <!-- −4 -->
      <defs>
       <path d="
M37.7969 64.3125
L12.8906 25.3906
L37.7969 25.3906
z

M35.2031 72.9062
L47.6094 72.9062
L47.6094 25.3906
L58.0156 25.3906
L58.0156 17.1875
L47.6094 17.1875
L47.6094 0
L37.7969 0
L37.7969 17.1875
L4.89062 17.1875
L4.89062 26.7031
z
" id="BitstreamVeraSans-Roman-34"/>
      </defs>
      <g transform="translate(121.8390625 263.290625)scale(0.1 -0.1)">
       <use xlink:href="#BitstreamVeraSans-Roman-2212"/>
       <use x="83.7890625" xlink:href="#BitstreamVeraSans-Roman-34"/>
      </g>
     </g>
    </g>
    <g id="xtick_4">
     <g id="line2d_7">
      <defs>
       <path d="
M0 0
L0 -4" id="m1e69351473"/>
      </defs>
      <g>
       <use style="stroke:#000000;stroke-linecap:butt;stroke-width:0.5;" x="165.6" xlink:href="#m1e69351473" y="252.0"/>
      </g>
     </g>
     <g id="line2d_8">
      <defs>
       <path d="
M0 0
L0 4" id="m3dc4296b33"/>
      </defs>
      <g>
       <use style="stroke:#000000;stroke-linecap:butt;stroke-width:0.5;" x="165.6" xlink:href="#m3dc4296b33" y="28.8"/>
      </g>
     </g>
     <g id="text_4">
      <!-- −3 -->
      <defs>
       <path d="
M40.5781 39.3125
Q47.6562 37.7969 51.625 33
Q55.6094 28.2188 55.6094 21.1875
Q55.6094 10.4062 48.1875 4.48438
Q40.7656 -1.42188 27.0938 -1.42188
Q22.5156 -1.42188 17.6562 -0.515625
Q12.7969 0.390625 7.625 2.20312
L7.625 11.7188
Q11.7188 9.32812 16.5938 8.10938
Q21.4844 6.89062 26.8125 6.89062
Q36.0781 6.89062 40.9375 10.5469
Q45.7969 14.2031 45.7969 21.1875
Q45.7969 27.6406 41.2812 31.2656
Q36.7656 34.9062 28.7188 34.9062
L20.2188 34.9062
L20.2188 43.0156
L29.1094 43.0156
Q36.375 43.0156 40.2344 45.9219
Q44.0938 48.8281 44.0938 54.2969
Q44.0938 59.9062 40.1094 62.9062
Q36.1406 65.9219 28.7188 65.9219
Q24.6562 65.9219 20.0156 65.0312
Q15.375 64.1562 9.8125 62.3125
L9.8125 71.0938
Q15.4375 72.6562 20.3438 73.4375
Q25.25 74.2188 29.5938 74.2188
Q40.8281 74.2188 47.3594 69.1094
Q53.9062 64.0156 53.9062 55.3281
Q53.9062 49.2656 50.4375 45.0938
Q46.9688 40.9219 40.5781 39.3125" id="BitstreamVeraSans-Roman-33"/>
      </defs>
      <g transform="translate(159.159375 263.421875)scale(0.1 -0.1)">
       <use xlink:href="#BitstreamVeraSans-Roman-2212"/>
       <use x="83.7890625" xlink:href="#BitstreamVeraSans-Roman-33"/>
      </g>
     </g>
    </g>
    <g id="xtick_5">
     <g id="line2d_9">
      <defs>
       <path d="
M0 0
L0 -4" id="m1e69351473"/>
      </defs>
      <g>
       <use style="stroke:#000000;stroke-linecap:butt;stroke-width:0.5;" x="202.8" xlink:href="#m1e69351473" y="252.0"/>
      </g>
     </g>
     <g id="line2d_10">
      <defs>
       <path d="
M0 0
L0 4" id="m3dc4296b33"/>
      </defs>
      <g>
       <use style="stroke:#000000;stroke-linecap:butt;stroke-width:0.5;" x="202.8" xlink:href="#m3dc4296b33" y="28.8"/>
      </g>
     </g>
     <g id="text_5">
      <!-- −2 -->
      <defs>
       <path d="
M19.1875 8.29688
L53.6094 8.29688
L53.6094 0
L7.32812 0
L7.32812 8.29688
Q12.9375 14.1094 22.625 23.8906
Q32.3281 33.6875 34.8125 36.5312
Q39.5469 41.8438 41.4219 45.5312
Q43.3125 49.2188 43.3125 52.7812
Q43.3125 58.5938 39.2344 62.25
Q35.1562 65.9219 28.6094 65.9219
Q23.9688 65.9219 18.8125 64.3125
Q13.6719 62.7031 7.8125 59.4219
L7.8125 69.3906
Q13.7656 71.7812 18.9375 73
Q24.125 74.2188 28.4219 74.2188
Q39.75 74.2188 46.4844 68.5469
Q53.2188 62.8906 53.2188 53.4219
Q53.2188 48.9219 51.5312 44.8906
Q49.8594 40.875 45.4062 35.4062
Q44.1875 33.9844 37.6406 27.2188
Q31.1094 20.4531 19.1875 8.29688" id="BitstreamVeraSans-Roman-32"/>
      </defs>
      <g transform="translate(196.459375 263.421875)scale(0.1 -0.1)">
       <use xlink:href="#BitstreamVeraSans-Roman-2212"/>
       <use x="83.7890625" xlink:href="#BitstreamVeraSans-Roman-32"/>
      </g>
     </g>
    </g>
    <g id="xtick_6">
     <g id="line2d_11">
      <defs>
       <path d="
M0 0
L0 -4" id="m1e69351473"/>
      </defs>
      <g>
       <use style="stroke:#000000;stroke-linecap:butt;stroke-width:0.5;" x="240.0" xlink:href="#m1e69351473" y="252.0"/>
      </g>
     </g>
     <g id="line2d_12">
      <defs>
       <path d="
M0 0
L0 4" id="m3dc4296b33"/>
      </defs>
      <g>
       <use style="stroke:#000000;stroke-linecap:butt;stroke-width:0.5;" x="240.0" xlink:href="#m3dc4296b33" y="28.8"/>
      </g>
     </g>
     <g id="text_6">
      <!-- −1 -->
      <defs>
       <path d="
M12.4062 8.29688
L28.5156 8.29688
L28.5156 63.9219
L10.9844 60.4062
L10.9844 69.3906
L28.4219 72.9062
L38.2812 72.9062
L38.2812 8.29688
L54.3906 8.29688
L54.3906 0
L12.4062 0
z
" id="BitstreamVeraSans-Roman-31"/>
      </defs>
      <g transform="translate(233.6203125 263.290625)scale(0.1 -0.1)">
       <use xlink:href="#BitstreamVeraSans-Roman-2212"/>
       <use x="83.7890625" xlink:href="#BitstreamVeraSans-Roman-31"/>
      </g>
     </g>
    </g>
    <g id="xtick_7">
     <g id="line2d_13">
      <defs>
       <path d="
M0 0
L0 -4" id="m1e69351473"/>
      </defs>
      <g>
       <use style="stroke:#000000;stroke-linecap:butt;stroke-width:0.5;" x="277.2" xlink:href="#m1e69351473" y="252.0"/>
      </g>
     </g>
     <g id="line2d_14">
      <defs>
       <path d="
M0 0
L0 4" id="m3dc4296b33"/>
      </defs>
      <g>
       <use style="stroke:#000000;stroke-linecap:butt;stroke-width:0.5;" x="277.2" xlink:href="#m3dc4296b33" y="28.8"/>
      </g>
     </g>
     <g id="text_7">
      <!-- 0 -->
      <defs>
       <path d="
M31.7812 66.4062
Q24.1719 66.4062 20.3281 58.9062
Q16.5 51.4219 16.5 36.375
Q16.5 21.3906 20.3281 13.8906
Q24.1719 6.39062 31.7812 6.39062
Q39.4531 6.39062 43.2812 13.8906
Q47.125 21.3906 47.125 36.375
Q47.125 51.4219 43.2812 58.9062
Q39.4531 66.4062 31.7812 66.4062
M31.7812 74.2188
Q44.0469 74.2188 50.5156 64.5156
Q56.9844 54.8281 56.9844 36.375
Q56.9844 17.9688 50.5156 8.26562
Q44.0469 -1.42188 31.7812 -1.42188
Q19.5312 -1.42188 13.0625 8.26562
Q6.59375 17.9688 6.59375 36.375
Q6.59375 54.8281 13.0625 64.5156
Q19.5312 74.2188 31.7812 74.2188" id="BitstreamVeraSans-Roman-30"/>
      </defs>
      <g transform="translate(274.68046875 263.421875)scale(0.1 -0.1)">
       <use xlink:href="#BitstreamVeraSans-Roman-30"/>
      </g>
     </g>
    </g>
    <g id="xtick_8">
     <g id="line2d_15">
      <defs>
       <path d="
M0 0
L0 -4" id="m1e69351473"/>
      </defs>
      <g>
       <use style="stroke:#000000;stroke-linecap:butt;stroke-width:0.5;" x="314.4" xlink:href="#m1e69351473" y="252.0"/>
      </g>
     </g>
     <g id="line2d_16">
      <defs>
       <path d="
M0 0
L0 4" id="m3dc4296b33"/>
      </defs>
      <g>
       <use style="stroke:#000000;stroke-linecap:butt;stroke-width:0.5;" x="314.4" xlink:href="#m3dc4296b33" y="28.8"/>
      </g>
     </g>
     <g id="text_8">
      <!-- 1 -->
      <g transform="translate(312.2296875 263.290625)scale(0.1 -0.1)">
       <use xlink:href="#BitstreamVeraSans-Roman-31"/>
      </g>
     </g>
    </g>
    <g id="xtick_9">
     <g id="line2d_17">
      <defs>
       <path d="
M0 0
L0 -4" id="m1e69351473"/>
      </defs>
      <g>
       <use style="stroke:#000000;stroke-linecap:butt;stroke-width:0.5;" x="351.6" xlink:href="#m1e69351473" y="252.0"/>
      </g>
     </g>
     <g id="line2d_18">
      <defs>
       <path d="
M0 0
L0 4" id="m3dc4296b33"/>
      </defs>
      <g>
       <use style="stroke:#000000;stroke-linecap:butt;stroke-width:0.5;" x="351.6" xlink:href="#m3dc4296b33" y="28.8"/>
      </g>
     </g>
     <g id="text_9">
      <!-- 2 -->
      <g transform="translate(349.2859375 263.421875)scale(0.1 -0.1)">
       <use xlink:href="#BitstreamVeraSans-Roman-32"/>
      </g>
     </g>
    </g>
    <g id="xtick_10">
     <g id="line2d_19">
      <defs>
       <path d="
M0 0
L0 -4" id="m1e69351473"/>
      </defs>
      <g>
       <use style="stroke:#000000;stroke-linecap:butt;stroke-width:0.5;" x="388.8" xlink:href="#m1e69351473" y="252.0"/>
      </g>
     </g>
     <g id="line2d_20">
      <defs>
       <path d="
M0 0
L0 4" id="m3dc4296b33"/>
      </defs>
      <g>
       <use style="stroke:#000000;stroke-linecap:butt;stroke-width:0.5;" x="388.8" xlink:href="#m3dc4296b33" y="28.8"/>
      </g>
     </g>
     <g id="text_10">
      <!-- 3 -->
      <g transform="translate(386.40078125 263.421875)scale(0.1 -0.1)">
       <use xlink:href="#BitstreamVeraSans-Roman-33"/>
      </g>
     </g>
    </g>
    <g id="text_11">
     <!-- BIOCARTA_CLASSIC_PATHWAY -->
     <defs>
      <path d="
M39.4062 66.2188
Q28.6562 66.2188 22.3281 58.2031
Q16.0156 50.2031 16.0156 36.375
Q16.0156 22.6094 22.3281 14.5938
Q28.6562 6.59375 39.4062 6.59375
Q50.1406 6.59375 56.4219 14.5938
Q62.7031 22.6094 62.7031 36.375
Q62.7031 50.2031 56.4219 58.2031
Q50.1406 66.2188 39.4062 66.2188
M39.4062 74.2188
Q54.7344 74.2188 63.9062 63.9375
Q73.0938 53.6562 73.0938 36.375
Q73.0938 19.1406 63.9062 8.85938
Q54.7344 -1.42188 39.4062 -1.42188
Q24.0312 -1.42188 14.8125 8.82812
Q5.60938 19.0938 5.60938 36.375
Q5.60938 53.6562 14.8125 63.9375
Q24.0312 74.2188 39.4062 74.2188" id="BitstreamVeraSans-Roman-4f"/>
      <path d="
M9.8125 72.9062
L19.6719 72.9062
L19.6719 8.29688
L55.1719 8.29688
L55.1719 0
L9.8125 0
z
" id="BitstreamVeraSans-Roman-4c"/>
      <path d="
M50.9844 -16.6094
L50.9844 -23.5781
L-0.984375 -23.5781
L-0.984375 -16.6094
z
" id="BitstreamVeraSans-Roman-5f"/>
      <path d="
M-0.203125 72.9062
L10.4062 72.9062
L30.6094 42.9219
L50.6875 72.9062
L61.2812 72.9062
L35.5 34.7188
L35.5 0
L25.5938 0
L25.5938 34.7188
z
" id="BitstreamVeraSans-Roman-59"/>
      <path d="
M19.6719 64.7969
L19.6719 37.4062
L32.0781 37.4062
Q38.9688 37.4062 42.7188 40.9688
Q46.4844 44.5312 46.4844 51.125
Q46.4844 57.6719 42.7188 61.2344
Q38.9688 64.7969 32.0781 64.7969
z

M9.8125 72.9062
L32.0781 72.9062
Q44.3438 72.9062 50.6094 67.3594
Q56.8906 61.8125 56.8906 51.125
Q56.8906 40.3281 50.6094 34.8125
Q44.3438 29.2969 32.0781 29.2969
L19.6719 29.2969
L19.6719 0
L9.8125 0
z
" id="BitstreamVeraSans-Roman-50"/>
      <path d="
M44.3906 34.1875
Q47.5625 33.1094 50.5625 29.5938
Q53.5625 26.0781 56.5938 19.9219
L66.6094 0
L56 0
L46.6875 18.7031
Q43.0625 26.0312 39.6719 28.4219
Q36.2812 30.8125 30.4219 30.8125
L19.6719 30.8125
L19.6719 0
L9.8125 0
L9.8125 72.9062
L32.0781 72.9062
Q44.5781 72.9062 50.7344 67.6719
Q56.8906 62.4531 56.8906 51.9062
Q56.8906 45.0156 53.6875 40.4688
Q50.4844 35.9375 44.3906 34.1875
M19.6719 64.7969
L19.6719 38.9219
L32.0781 38.9219
Q39.2031 38.9219 42.8438 42.2188
Q46.4844 45.5156 46.4844 51.9062
Q46.4844 58.2969 42.8438 61.5469
Q39.2031 64.7969 32.0781 64.7969
z
" id="BitstreamVeraSans-Roman-52"/>
      <path d="
M53.5156 70.5156
L53.5156 60.8906
Q47.9062 63.5781 42.9219 64.8906
Q37.9375 66.2188 33.2969 66.2188
Q25.25 66.2188 20.875 63.0938
Q16.5 59.9688 16.5 54.2031
Q16.5 49.3594 19.4062 46.8906
Q22.3125 44.4375 30.4219 42.9219
L36.375 41.7031
Q47.4062 39.5938 52.6562 34.2969
Q57.9062 29 57.9062 20.125
Q57.9062 9.51562 50.7969 4.04688
Q43.7031 -1.42188 29.9844 -1.42188
Q24.8125 -1.42188 18.9688 -0.25
Q13.1406 0.921875 6.89062 3.21875
L6.89062 13.375
Q12.8906 10.0156 18.6562 8.29688
Q24.4219 6.59375 29.9844 6.59375
Q38.4219 6.59375 43.0156 9.90625
Q47.6094 13.2344 47.6094 19.3906
Q47.6094 24.75 44.3125 27.7812
Q41.0156 30.8125 33.5 32.3281
L27.4844 33.5
Q16.4531 35.6875 11.5156 40.375
Q6.59375 45.0625 6.59375 53.4219
Q6.59375 63.0938 13.4062 68.6562
Q20.2188 74.2188 32.1719 74.2188
Q37.3125 74.2188 42.625 73.2812
Q47.9531 72.3594 53.5156 70.5156" id="BitstreamVeraSans-Roman-53"/>
      <path d="
M64.4062 67.2812
L64.4062 56.8906
Q59.4219 61.5312 53.7812 63.8125
Q48.1406 66.1094 41.7969 66.1094
Q29.2969 66.1094 22.6562 58.4688
Q16.0156 50.8281 16.0156 36.375
Q16.0156 21.9688 22.6562 14.3281
Q29.2969 6.6875 41.7969 6.6875
Q48.1406 6.6875 53.7812 8.98438
Q59.4219 11.2812 64.4062 15.9219
L64.4062 5.60938
Q59.2344 2.09375 53.4375 0.328125
Q47.6562 -1.42188 41.2188 -1.42188
Q24.6562 -1.42188 15.125 8.70312
Q5.60938 18.8438 5.60938 36.375
Q5.60938 53.9531 15.125 64.0781
Q24.6562 74.2188 41.2188 74.2188
Q47.75 74.2188 53.5312 72.4844
Q59.3281 70.75 64.4062 67.2812" id="BitstreamVeraSans-Roman-43"/>
      <path d="
M19.6719 34.8125
L19.6719 8.10938
L35.5 8.10938
Q43.4531 8.10938 47.2812 11.4062
Q51.125 14.7031 51.125 21.4844
Q51.125 28.3281 47.2812 31.5625
Q43.4531 34.8125 35.5 34.8125
z

M19.6719 64.7969
L19.6719 42.8281
L34.2812 42.8281
Q41.5 42.8281 45.0312 45.5312
Q48.5781 48.25 48.5781 53.8125
Q48.5781 59.3281 45.0312 62.0625
Q41.5 64.7969 34.2812 64.7969
z

M9.8125 72.9062
L35.0156 72.9062
Q46.2969 72.9062 52.3906 68.2188
Q58.5 63.5312 58.5 54.8906
Q58.5 48.1875 55.375 44.2344
Q52.25 40.2812 46.1875 39.3125
Q53.4688 37.75 57.5 32.7812
Q61.5312 27.8281 61.5312 20.4062
Q61.5312 10.6406 54.8906 5.3125
Q48.25 0 35.9844 0
L9.8125 0
z
" id="BitstreamVeraSans-Roman-42"/>
      <path d="
M34.1875 63.1875
L20.7969 26.9062
L47.6094 26.9062
z

M28.6094 72.9062
L39.7969 72.9062
L67.5781 0
L57.3281 0
L50.6875 18.7031
L17.8281 18.7031
L11.1875 0
L0.78125 0
z
" id="BitstreamVeraSans-Roman-41"/>
      <path d="
M3.32812 72.9062
L13.2812 72.9062
L28.6094 11.2812
L43.8906 72.9062
L54.9844 72.9062
L70.3125 11.2812
L85.5938 72.9062
L95.6094 72.9062
L77.2969 0
L64.8906 0
L49.5156 63.2812
L33.9844 0
L21.5781 0
z
" id="BitstreamVeraSans-Roman-57"/>
      <path d="
M-0.296875 72.9062
L61.375 72.9062
L61.375 64.5938
L35.5 64.5938
L35.5 0
L25.5938 0
L25.5938 64.5938
L-0.296875 64.5938
z
" id="BitstreamVeraSans-Roman-54"/>
      <path d="
M9.8125 72.9062
L19.6719 72.9062
L19.6719 0
L9.8125 0
z
" id="BitstreamVeraSans-Roman-49"/>
      <path d="
M9.8125 72.9062
L19.6719 72.9062
L19.6719 43.0156
L55.5156 43.0156
L55.5156 72.9062
L65.375 72.9062
L65.375 0
L55.5156 0
L55.5156 34.7188
L19.6719 34.7188
L19.6719 0
L9.8125 0
z
" id="BitstreamVeraSans-Roman-48"/>
     </defs>
     <g transform="translate(147.50546875 275.9859375)scale(0.1 -0.1)">
      <use xlink:href="#BitstreamVeraSans-Roman-42"/>
      <use x="68.603515625" xlink:href="#BitstreamVeraSans-Roman-49"/>
      <use x="98.095703125" xlink:href="#BitstreamVeraSans-Roman-4f"/>
      <use x="176.806640625" xlink:href="#BitstreamVeraSans-Roman-43"/>
      <use x="246.630859375" xlink:href="#BitstreamVeraSans-Roman-41"/>
      <use x="315.0390625" xlink:href="#BitstreamVeraSans-Roman-52"/>
      <use x="377.271484375" xlink:href="#BitstreamVeraSans-Roman-54"/>
      <use x="430.60546875" xlink:href="#BitstreamVeraSans-Roman-41"/>
      <use x="499.013671875" xlink:href="#BitstreamVeraSans-Roman-5f"/>
      <use x="549.013671875" xlink:href="#BitstreamVeraSans-Roman-43"/>
      <use x="618.837890625" xlink:href="#BitstreamVeraSans-Roman-4c"/>
      <use x="676.80078125" xlink:href="#BitstreamVeraSans-Roman-41"/>
      <use x="745.208984375" xlink:href="#BitstreamVeraSans-Roman-53"/>
      <use x="808.685546875" xlink:href="#BitstreamVeraSans-Roman-53"/>
      <use x="872.162109375" xlink:href="#BitstreamVeraSans-Roman-49"/>
      <use x="901.654296875" xlink:href="#BitstreamVeraSans-Roman-43"/>
      <use x="971.478515625" xlink:href="#BitstreamVeraSans-Roman-5f"/>
      <use x="1021.47851562" xlink:href="#BitstreamVeraSans-Roman-50"/>
      <use x="1075.40625" xlink:href="#BitstreamVeraSans-Roman-41"/>
      <use x="1136.06445312" xlink:href="#BitstreamVeraSans-Roman-54"/>
      <use x="1197.1484375" xlink:href="#BitstreamVeraSans-Roman-48"/>
      <use x="1272.34375" xlink:href="#BitstreamVeraSans-Roman-57"/>
      <use x="1365.72070312" xlink:href="#BitstreamVeraSans-Roman-41"/>
      <use x="1426.37890625" xlink:href="#BitstreamVeraSans-Roman-59"/>
     </g>
    </g>
   </g>
   <g id="matplotlib.axis_2">
    <g id="ytick_1">
     <g id="line2d_21">
      <defs>
       <path d="
M0 0
L4 0" id="mb741339eda"/>
      </defs>
      <g>
       <use style="stroke:#000000;stroke-linecap:butt;stroke-width:0.5;" x="54.0" xlink:href="#mb741339eda" y="252.0"/>
      </g>
     </g>
     <g id="line2d_22">
      <defs>
       <path d="
M0 0
L-4 0" id="m524261dece"/>
      </defs>
      <g>
       <use style="stroke:#000000;stroke-linecap:butt;stroke-width:0.5;" x="388.8" xlink:href="#m524261dece" y="252.0"/>
      </g>
     </g>
     <g id="text_12">
      <!-- 7 -->
      <defs>
       <path d="
M8.20312 72.9062
L55.0781 72.9062
L55.0781 68.7031
L28.6094 0
L18.3125 0
L43.2188 64.5938
L8.20312 64.5938
z
" id="BitstreamVeraSans-Roman-37"/>
      </defs>
      <g transform="translate(45.3125 255.6453125)scale(0.1 -0.1)">
       <use xlink:href="#BitstreamVeraSans-Roman-37"/>
      </g>
     </g>
    </g>
    <g id="ytick_2">
     <g id="line2d_23">
      <defs>
       <path d="
M0 0
L4 0" id="mb741339eda"/>
      </defs>
      <g>
       <use style="stroke:#000000;stroke-linecap:butt;stroke-width:0.5;" x="54.0" xlink:href="#mb741339eda" y="227.2"/>
      </g>
     </g>
     <g id="line2d_24">
      <defs>
       <path d="
M0 0
L-4 0" id="m524261dece"/>
      </defs>
      <g>
       <use style="stroke:#000000;stroke-linecap:butt;stroke-width:0.5;" x="388.8" xlink:href="#m524261dece" y="227.2"/>
      </g>
     </g>
     <g id="text_13">
      <!-- 8 -->
      <defs>
       <path d="
M31.7812 34.625
Q24.75 34.625 20.7188 30.8594
Q16.7031 27.0938 16.7031 20.5156
Q16.7031 13.9219 20.7188 10.1562
Q24.75 6.39062 31.7812 6.39062
Q38.8125 6.39062 42.8594 10.1719
Q46.9219 13.9688 46.9219 20.5156
Q46.9219 27.0938 42.8906 30.8594
Q38.875 34.625 31.7812 34.625
M21.9219 38.8125
Q15.5781 40.375 12.0312 44.7188
Q8.5 49.0781 8.5 55.3281
Q8.5 64.0625 14.7188 69.1406
Q20.9531 74.2188 31.7812 74.2188
Q42.6719 74.2188 48.875 69.1406
Q55.0781 64.0625 55.0781 55.3281
Q55.0781 49.0781 51.5312 44.7188
Q48 40.375 41.7031 38.8125
Q48.8281 37.1562 52.7969 32.3125
Q56.7812 27.4844 56.7812 20.5156
Q56.7812 9.90625 50.3125 4.23438
Q43.8438 -1.42188 31.7812 -1.42188
Q19.7344 -1.42188 13.25 4.23438
Q6.78125 9.90625 6.78125 20.5156
Q6.78125 27.4844 10.7812 32.3125
Q14.7969 37.1562 21.9219 38.8125
M18.3125 54.3906
Q18.3125 48.7344 21.8438 45.5625
Q25.3906 42.3906 31.7812 42.3906
Q38.1406 42.3906 41.7188 45.5625
Q45.3125 48.7344 45.3125 54.3906
Q45.3125 60.0625 41.7188 63.2344
Q38.1406 66.4062 31.7812 66.4062
Q25.3906 66.4062 21.8438 63.2344
Q18.3125 60.0625 18.3125 54.3906" id="BitstreamVeraSans-Roman-38"/>
      </defs>
      <g transform="translate(45.0 230.83984375)scale(0.1 -0.1)">
       <use xlink:href="#BitstreamVeraSans-Roman-38"/>
      </g>
     </g>
    </g>
    <g id="ytick_3">
     <g id="line2d_25">
      <defs>
       <path d="
M0 0
L4 0" id="mb741339eda"/>
      </defs>
      <g>
       <use style="stroke:#000000;stroke-linecap:butt;stroke-width:0.5;" x="54.0" xlink:href="#mb741339eda" y="202.4"/>
      </g>
     </g>
     <g id="line2d_26">
      <defs>
       <path d="
M0 0
L-4 0" id="m524261dece"/>
      </defs>
      <g>
       <use style="stroke:#000000;stroke-linecap:butt;stroke-width:0.5;" x="388.8" xlink:href="#m524261dece" y="202.4"/>
      </g>
     </g>
     <g id="text_14">
      <!-- 9 -->
      <defs>
       <path d="
M10.9844 1.51562
L10.9844 10.5
Q14.7031 8.73438 18.5 7.8125
Q22.3125 6.89062 25.9844 6.89062
Q35.75 6.89062 40.8906 13.4531
Q46.0469 20.0156 46.7812 33.4062
Q43.9531 29.2031 39.5938 26.9531
Q35.25 24.7031 29.9844 24.7031
Q19.0469 24.7031 12.6719 31.3125
Q6.29688 37.9375 6.29688 49.4219
Q6.29688 60.6406 12.9375 67.4219
Q19.5781 74.2188 30.6094 74.2188
Q43.2656 74.2188 49.9219 64.5156
Q56.5938 54.8281 56.5938 36.375
Q56.5938 19.1406 48.4062 8.85938
Q40.2344 -1.42188 26.4219 -1.42188
Q22.7031 -1.42188 18.8906 -0.6875
Q15.0938 0.046875 10.9844 1.51562
M30.6094 32.4219
Q37.25 32.4219 41.125 36.9531
Q45.0156 41.5 45.0156 49.4219
Q45.0156 57.2812 41.125 61.8438
Q37.25 66.4062 30.6094 66.4062
Q23.9688 66.4062 20.0938 61.8438
Q16.2188 57.2812 16.2188 49.4219
Q16.2188 41.5 20.0938 36.9531
Q23.9688 32.4219 30.6094 32.4219" id="BitstreamVeraSans-Roman-39"/>
      </defs>
      <g transform="translate(44.9703125 206.03984375)scale(0.1 -0.1)">
       <use xlink:href="#BitstreamVeraSans-Roman-39"/>
      </g>
     </g>
    </g>
    <g id="ytick_4">
     <g id="line2d_27">
      <defs>
       <path d="
M0 0
L4 0" id="mb741339eda"/>
      </defs>
      <g>
       <use style="stroke:#000000;stroke-linecap:butt;stroke-width:0.5;" x="54.0" xlink:href="#mb741339eda" y="177.6"/>
      </g>
     </g>
     <g id="line2d_28">
      <defs>
       <path d="
M0 0
L-4 0" id="m524261dece"/>
      </defs>
      <g>
       <use style="stroke:#000000;stroke-linecap:butt;stroke-width:0.5;" x="388.8" xlink:href="#m524261dece" y="177.6"/>
      </g>
     </g>
     <g id="text_15">
      <!-- 10 -->
      <g transform="translate(39.0375 181.23984375)scale(0.1 -0.1)">
       <use xlink:href="#BitstreamVeraSans-Roman-31"/>
       <use x="63.623046875" xlink:href="#BitstreamVeraSans-Roman-30"/>
      </g>
     </g>
    </g>
    <g id="ytick_5">
     <g id="line2d_29">
      <defs>
       <path d="
M0 0
L4 0" id="mb741339eda"/>
      </defs>
      <g>
       <use style="stroke:#000000;stroke-linecap:butt;stroke-width:0.5;" x="54.0" xlink:href="#mb741339eda" y="152.8"/>
      </g>
     </g>
     <g id="line2d_30">
      <defs>
       <path d="
M0 0
L-4 0" id="m524261dece"/>
      </defs>
      <g>
       <use style="stroke:#000000;stroke-linecap:butt;stroke-width:0.5;" x="388.8" xlink:href="#m524261dece" y="152.8"/>
      </g>
     </g>
     <g id="text_16">
      <!-- 11 -->
      <g transform="translate(39.296875 156.4453125)scale(0.1 -0.1)">
       <use xlink:href="#BitstreamVeraSans-Roman-31"/>
       <use x="63.623046875" xlink:href="#BitstreamVeraSans-Roman-31"/>
      </g>
     </g>
    </g>
    <g id="ytick_6">
     <g id="line2d_31">
      <defs>
       <path d="
M0 0
L4 0" id="mb741339eda"/>
      </defs>
      <g>
       <use style="stroke:#000000;stroke-linecap:butt;stroke-width:0.5;" x="54.0" xlink:href="#mb741339eda" y="128.0"/>
      </g>
     </g>
     <g id="line2d_32">
      <defs>
       <path d="
M0 0
L-4 0" id="m524261dece"/>
      </defs>
      <g>
       <use style="stroke:#000000;stroke-linecap:butt;stroke-width:0.5;" x="388.8" xlink:href="#m524261dece" y="128.0"/>
      </g>
     </g>
     <g id="text_17">
      <!-- 12 -->
      <g transform="translate(39.375 131.7109375)scale(0.1 -0.1)">
       <use xlink:href="#BitstreamVeraSans-Roman-31"/>
       <use x="63.623046875" xlink:href="#BitstreamVeraSans-Roman-32"/>
      </g>
     </g>
    </g>
    <g id="ytick_7">
     <g id="line2d_33">
      <defs>
       <path d="
M0 0
L4 0" id="mb741339eda"/>
      </defs>
      <g>
       <use style="stroke:#000000;stroke-linecap:butt;stroke-width:0.5;" x="54.0" xlink:href="#mb741339eda" y="103.2"/>
      </g>
     </g>
     <g id="line2d_34">
      <defs>
       <path d="
M0 0
L-4 0" id="m524261dece"/>
      </defs>
      <g>
       <use style="stroke:#000000;stroke-linecap:butt;stroke-width:0.5;" x="388.8" xlink:href="#m524261dece" y="103.2"/>
      </g>
     </g>
     <g id="text_18">
      <!-- 13 -->
      <g transform="translate(39.175 106.83984375)scale(0.1 -0.1)">
       <use xlink:href="#BitstreamVeraSans-Roman-31"/>
       <use x="63.623046875" xlink:href="#BitstreamVeraSans-Roman-33"/>
      </g>
     </g>
    </g>
    <g id="ytick_8">
     <g id="line2d_35">
      <defs>
       <path d="
M0 0
L4 0" id="mb741339eda"/>
      </defs>
      <g>
       <use style="stroke:#000000;stroke-linecap:butt;stroke-width:0.5;" x="54.0" xlink:href="#mb741339eda" y="78.4"/>
      </g>
     </g>
     <g id="line2d_36">
      <defs>
       <path d="
M0 0
L-4 0" id="m524261dece"/>
      </defs>
      <g>
       <use style="stroke:#000000;stroke-linecap:butt;stroke-width:0.5;" x="388.8" xlink:href="#m524261dece" y="78.4"/>
      </g>
     </g>
     <g id="text_19">
      <!-- 14 -->
      <g transform="translate(38.934375 82.0453125)scale(0.1 -0.1)">
       <use xlink:href="#BitstreamVeraSans-Roman-31"/>
       <use x="63.623046875" xlink:href="#BitstreamVeraSans-Roman-34"/>
      </g>
     </g>
    </g>
    <g id="ytick_9">
     <g id="line2d_37">
      <defs>
       <path d="
M0 0
L4 0" id="mb741339eda"/>
      </defs>
      <g>
       <use style="stroke:#000000;stroke-linecap:butt;stroke-width:0.5;" x="54.0" xlink:href="#mb741339eda" y="53.6"/>
      </g>
     </g>
     <g id="line2d_38">
      <defs>
       <path d="
M0 0
L-4 0" id="m524261dece"/>
      </defs>
      <g>
       <use style="stroke:#000000;stroke-linecap:butt;stroke-width:0.5;" x="388.8" xlink:href="#m524261dece" y="53.6"/>
      </g>
     </g>
     <g id="text_20">
      <!-- 15 -->
      <g transform="translate(39.246875 57.17421875)scale(0.1 -0.1)">
       <use xlink:href="#BitstreamVeraSans-Roman-31"/>
       <use x="63.623046875" xlink:href="#BitstreamVeraSans-Roman-35"/>
      </g>
     </g>
    </g>
    <g id="ytick_10">
     <g id="line2d_39">
      <defs>
       <path d="
M0 0
L4 0" id="mb741339eda"/>
      </defs>
      <g>
       <use style="stroke:#000000;stroke-linecap:butt;stroke-width:0.5;" x="54.0" xlink:href="#mb741339eda" y="28.8"/>
      </g>
     </g>
     <g id="line2d_40">
      <defs>
       <path d="
M0 0
L-4 0" id="m524261dece"/>
      </defs>
      <g>
       <use style="stroke:#000000;stroke-linecap:butt;stroke-width:0.5;" x="388.8" xlink:href="#m524261dece" y="28.8"/>
      </g>
     </g>
     <g id="text_21">
      <!-- 16 -->
      <g transform="translate(39.003125 32.43984375)scale(0.1 -0.1)">
       <use xlink:href="#BitstreamVeraSans-Roman-31"/>
       <use x="63.623046875" xlink:href="#BitstreamVeraSans-Roman-36"/>
      </g>
     </g>
    </g>
    <g id="text_22">
     <!-- rate_non -->
     <defs>
      <path d="
M54.8906 33.0156
L54.8906 0
L45.9062 0
L45.9062 32.7188
Q45.9062 40.4844 42.875 44.3281
Q39.8438 48.1875 33.7969 48.1875
Q26.5156 48.1875 22.3125 43.5469
Q18.1094 38.9219 18.1094 30.9062
L18.1094 0
L9.07812 0
L9.07812 54.6875
L18.1094 54.6875
L18.1094 46.1875
Q21.3438 51.125 25.7031 53.5625
Q30.0781 56 35.7969 56
Q45.2188 56 50.0469 50.1719
Q54.8906 44.3438 54.8906 33.0156" id="BitstreamVeraSans-Roman-6e"/>
      <path d="
M41.1094 46.2969
Q39.5938 47.1719 37.8125 47.5781
Q36.0312 48 33.8906 48
Q26.2656 48 22.1875 43.0469
Q18.1094 38.0938 18.1094 28.8125
L18.1094 0
L9.07812 0
L9.07812 54.6875
L18.1094 54.6875
L18.1094 46.1875
Q20.9531 51.1719 25.4844 53.5781
Q30.0312 56 36.5312 56
Q37.4531 56 38.5781 55.875
Q39.7031 55.7656 41.0625 55.5156
z
" id="BitstreamVeraSans-Roman-72"/>
      <path d="
M30.6094 48.3906
Q23.3906 48.3906 19.1875 42.75
Q14.9844 37.1094 14.9844 27.2969
Q14.9844 17.4844 19.1562 11.8438
Q23.3438 6.20312 30.6094 6.20312
Q37.7969 6.20312 41.9844 11.8594
Q46.1875 17.5312 46.1875 27.2969
Q46.1875 37.0156 41.9844 42.7031
Q37.7969 48.3906 30.6094 48.3906
M30.6094 56
Q42.3281 56 49.0156 48.375
Q55.7188 40.7656 55.7188 27.2969
Q55.7188 13.875 49.0156 6.21875
Q42.3281 -1.42188 30.6094 -1.42188
Q18.8438 -1.42188 12.1719 6.21875
Q5.51562 13.875 5.51562 27.2969
Q5.51562 40.7656 12.1719 48.375
Q18.8438 56 30.6094 56" id="BitstreamVeraSans-Roman-6f"/>
      <path d="
M56.2031 29.5938
L56.2031 25.2031
L14.8906 25.2031
Q15.4844 15.9219 20.4844 11.0625
Q25.4844 6.20312 34.4219 6.20312
Q39.5938 6.20312 44.4531 7.46875
Q49.3125 8.73438 54.1094 11.2812
L54.1094 2.78125
Q49.2656 0.734375 44.1875 -0.34375
Q39.1094 -1.42188 33.8906 -1.42188
Q20.7969 -1.42188 13.1562 6.1875
Q5.51562 13.8125 5.51562 26.8125
Q5.51562 40.2344 12.7656 48.1094
Q20.0156 56 32.3281 56
Q43.3594 56 49.7812 48.8906
Q56.2031 41.7969 56.2031 29.5938
M47.2188 32.2344
Q47.125 39.5938 43.0938 43.9844
Q39.0625 48.3906 32.4219 48.3906
Q24.9062 48.3906 20.3906 44.1406
Q15.875 39.8906 15.1875 32.1719
z
" id="BitstreamVeraSans-Roman-65"/>
      <path d="
M18.3125 70.2188
L18.3125 54.6875
L36.8125 54.6875
L36.8125 47.7031
L18.3125 47.7031
L18.3125 18.0156
Q18.3125 11.3281 20.1406 9.42188
Q21.9688 7.51562 27.5938 7.51562
L36.8125 7.51562
L36.8125 0
L27.5938 0
Q17.1875 0 13.2344 3.875
Q9.28125 7.76562 9.28125 18.0156
L9.28125 47.7031
L2.6875 47.7031
L2.6875 54.6875
L9.28125 54.6875
L9.28125 70.2188
z
" id="BitstreamVeraSans-Roman-74"/>
      <path d="
M34.2812 27.4844
Q23.3906 27.4844 19.1875 25
Q14.9844 22.5156 14.9844 16.5
Q14.9844 11.7188 18.1406 8.90625
Q21.2969 6.10938 26.7031 6.10938
Q34.1875 6.10938 38.7031 11.4062
Q43.2188 16.7031 43.2188 25.4844
L43.2188 27.4844
z

M52.2031 31.2031
L52.2031 0
L43.2188 0
L43.2188 8.29688
Q40.1406 3.32812 35.5469 0.953125
Q30.9531 -1.42188 24.3125 -1.42188
Q15.9219 -1.42188 10.9531 3.29688
Q6 8.01562 6 15.9219
Q6 25.1406 12.1719 29.8281
Q18.3594 34.5156 30.6094 34.5156
L43.2188 34.5156
L43.2188 35.4062
Q43.2188 41.6094 39.1406 45
Q35.0625 48.3906 27.6875 48.3906
Q23 48.3906 18.5469 47.2656
Q14.1094 46.1406 10.0156 43.8906
L10.0156 52.2031
Q14.9375 54.1094 19.5781 55.0469
Q24.2188 56 28.6094 56
Q40.4844 56 46.3438 49.8438
Q52.2031 43.7031 52.2031 31.2031" id="BitstreamVeraSans-Roman-61"/>
     </defs>
     <g transform="translate(33.934375 159.2171875)rotate(-90.0)scale(0.1 -0.1)">
      <use xlink:href="#BitstreamVeraSans-Roman-72"/>
      <use x="41.11328125" xlink:href="#BitstreamVeraSans-Roman-61"/>
      <use x="102.392578125" xlink:href="#BitstreamVeraSans-Roman-74"/>
      <use x="141.6015625" xlink:href="#BitstreamVeraSans-Roman-65"/>
      <use x="203.125" xlink:href="#BitstreamVeraSans-Roman-5f"/>
      <use x="253.125" xlink:href="#BitstreamVeraSans-Roman-6e"/>
      <use x="316.50390625" xlink:href="#BitstreamVeraSans-Roman-6f"/>
      <use x="377.685546875" xlink:href="#BitstreamVeraSans-Roman-6e"/>
     </g>
    </g>
   </g>
   <g id="patch_3">
    <path d="
M54 28.8
L388.8 28.8" style="fill:none;stroke:#000000;"/>
   </g>
   <g id="patch_4">
    <path d="
M388.8 252
L388.8 28.8" style="fill:none;stroke:#000000;"/>
   </g>
   <g id="patch_5">
    <path d="
M54 252
L388.8 252" style="fill:none;stroke:#000000;"/>
   </g>
   <g id="patch_6">
    <path d="
M54 252
L54 28.8" style="fill:none;stroke:#000000;"/>
   </g>
  </g>
 </g>
 <defs>
  <clipPath id="p124b8dd147">
   <rect height="223.2" width="334.8" x="54.0" y="28.8"/>
  </clipPath>
 </defs>
</svg>
