<?xml version="1.0" encoding="UTF-8" standalone="no"?>
<!DOCTYPE svg PUBLIC "-//W3C//DTD SVG 1.1//EN"
 "http://www.w3.org/Graphics/SVG/1.1/DTD/svg11.dtd">
<!-- Generated by graphviz version 2.26.3 (20100126.1600)
 -->
<!-- Title: test Pages: 1 -->
<svg width="720pt" height="200pt"
 viewBox="0.00 0.00 720.00 199.52" xmlns="http://www.w3.org/2000/svg" xmlns:xlink="http://www.w3.org/1999/xlink">
<g id="graph1" class="graph" transform="scale(0.86747 0.86747) rotate(0) translate(4 226)">
<title>test</title>
<polygon fill="white" stroke="white" points="-4,5 -4,-226 827,-226 827,5 -4,5"/>
<!-- GO:0000785 -->
<g id="node1" class="node"><title>GO:0000785</title>
<a xlink:title="chromatin">
<ellipse fill="none" stroke="black" cx="411" cy="-111" rx="75.1594" ry="18.3848"/>
<text text-anchor="middle" x="411" y="-107.4" font-family="Times Roman,serif" font-size="14.00">GO:0000785</text>
</a>
</g>
<!-- GO:0000790 -->
<g id="node2" class="node"><title>GO:0000790</title>
<a xlink:title="nuclear chromatin">
<ellipse fill="none" stroke="black" cx="75" cy="-19" rx="75.1594" ry="18.3848"/>
<text text-anchor="middle" x="75" y="-15.4" font-family="Times Roman,serif" font-size="14.00">GO:0000790</text>
</a>
</g>
<!-- GO:0000785&#45;&gt;GO:0000790 -->
<g id="edge2" class="edge"><title>GO:0000785&#45;&gt;GO:0000790</title>
<path fill="none" stroke="black" stroke-width="3.85398" d="M360.697,-97.2267C300.484,-80.7398 199.734,-53.1534 135.376,-35.5316"/>
<polygon fill="black" stroke="black" points="135.941,-32.0574 125.371,-32.7922 134.092,-38.8089 135.941,-32.0574"/>
<text text-anchor="middle" x="288" y="-61.4" font-family="Times Roman,serif" font-size="14.00">129</text>
</g>
<!-- GO:0035327 -->
<g id="node4" class="node"><title>GO:0035327</title>
<a xlink:title="transcriptionally active chromatin">
<ellipse fill="none" stroke="black" cx="243" cy="-19" rx="75.1594" ry="18.3848"/>
<text text-anchor="middle" x="243" y="-15.4" font-family="Times Roman,serif" font-size="14.00">GO:0035327</text>
</a>
</g>
<!-- GO:0000785&#45;&gt;GO:0035327 -->
<g id="edge4" class="edge"><title>GO:0000785&#45;&gt;GO:0035327</title>
<path fill="none" stroke="black" stroke-width="1.24336" d="M380.186,-94.1258C352.801,-79.1293 312.604,-57.1167 282.795,-40.7923"/>
<polygon fill="black" stroke="black" points="284.355,-37.6561 273.902,-35.9228 280.992,-43.7958 284.355,-37.6561"/>
<text text-anchor="middle" x="352.5" y="-61.4" font-family="Times Roman,serif" font-size="14.00">11</text>
</g>
<!-- GO:0000791 -->
<g id="node6" class="node"><title>GO:0000791</title>
<a xlink:title="euchromatin">
<ellipse fill="none" stroke="black" cx="411" cy="-19" rx="75.1594" ry="18.3848"/>
<text text-anchor="middle" x="411" y="-15.4" font-family="Times Roman,serif" font-size="14.00">GO:0000791</text>
</a>
</g>
<!-- GO:0000785&#45;&gt;GO:0000791 -->
<g id="edge6" class="edge"><title>GO:0000785&#45;&gt;GO:0000791</title>
<path fill="none" stroke="black" stroke-width="1.42035" d="M411,-92.3824C411,-79.5383 411,-62.2161 411,-47.6269"/>
<polygon fill="black" stroke="black" points="414.5,-47.5898 411,-37.5899 407.5,-47.5899 414.5,-47.5898"/>
<text text-anchor="middle" x="420.5" y="-61.4" font-family="Times Roman,serif" font-size="14.00">19</text>
</g>
<!-- GO:0000792 -->
<g id="node8" class="node"><title>GO:0000792</title>
<a xlink:title="heterochromatin">
<ellipse fill="none" stroke="black" cx="579" cy="-19" rx="75.1594" ry="18.3848"/>
<text text-anchor="middle" x="579" y="-15.4" font-family="Times Roman,serif" font-size="14.00">GO:0000792</text>
</a>
</g>
<!-- GO:0000785&#45;&gt;GO:0000792 -->
<g id="edge8" class="edge"><title>GO:0000785&#45;&gt;GO:0000792</title>
<path fill="none" stroke="black" stroke-width="2.30531" d="M441.814,-94.1258C469.199,-79.1293 509.396,-57.1167 539.205,-40.7923"/>
<polygon fill="black" stroke="black" points="541.008,-43.7958 548.098,-35.9228 537.645,-37.6561 541.008,-43.7958"/>
<text text-anchor="middle" x="519.5" y="-61.4" font-family="Times Roman,serif" font-size="14.00">59</text>
</g>
<!-- GO:0000789 -->
<g id="node10" class="node"><title>GO:0000789</title>
<a xlink:title="cytoplasmic chromatin">
<ellipse fill="none" stroke="black" cx="747" cy="-19" rx="75.1594" ry="18.3848"/>
<text text-anchor="middle" x="747" y="-15.4" font-family="Times Roman,serif" font-size="14.00">GO:0000789</text>
</a>
</g>
<!-- GO:0000785&#45;&gt;GO:0000789 -->
<g id="edge10" class="edge"><title>GO:0000785&#45;&gt;GO:0000789</title>
<path fill="none" stroke="black" stroke-width="1.02212" d="M461.303,-97.2267C521.516,-80.7398 622.266,-53.1534 686.624,-35.5316"/>
<polygon fill="black" stroke="black" points="687.908,-38.8089 696.629,-32.7922 686.059,-32.0574 687.908,-38.8089"/>
<text text-anchor="middle" x="614" y="-61.4" font-family="Times Roman,serif" font-size="14.00">1</text>
</g>
<!-- GO:0044427 -->
<g id="node12" class="node"><title>GO:0044427</title>
<a xlink:title="chromosomal part">
<ellipse fill="none" stroke="black" cx="411" cy="-203" rx="75.1594" ry="18.3848"/>
<text text-anchor="middle" x="411" y="-199.4" font-family="Times Roman,serif" font-size="14.00">GO:0044427</text>
</a>
</g>
<!-- GO:0044427&#45;&gt;GO:0000785 -->
<g id="edge12" class="edge"><title>GO:0044427&#45;&gt;GO:0000785</title>
<path fill="none" stroke="black" stroke-width="2.96181" d="M411,-184.382C411,-171.538 411,-154.216 411,-139.627"/>
<polygon fill="black" stroke="black" points="414.5,-139.59 411,-129.59 407.5,-139.59 414.5,-139.59"/>
<text text-anchor="middle" x="425" y="-153.4" font-family="Times Roman,serif" font-size="14.00">576</text>
</g>
</g>
</svg>
