<?xml version="1.0" encoding="UTF-8" standalone="no"?>
<!DOCTYPE svg PUBLIC "-//W3C//DTD SVG 1.1//EN"
 "http://www.w3.org/Graphics/SVG/1.1/DTD/svg11.dtd">
<!-- Generated by graphviz version 2.26.3 (20100126.1600)
 -->
<!-- Title: test Pages: 1 -->
<svg width="662pt" height="230pt"
 viewBox="0.00 0.00 662.00 230.00" xmlns="http://www.w3.org/2000/svg" xmlns:xlink="http://www.w3.org/1999/xlink">
<g id="graph1" class="graph" transform="scale(1 1) rotate(0) translate(4 226)">
<title>test</title>
<polygon fill="white" stroke="white" points="-4,5 -4,-226 659,-226 659,5 -4,5"/>
<!-- GO:0000785 -->
<g id="node1" class="node"><title>GO:0000785</title>
<a xlink:title="chromatin">
<ellipse fill="none" stroke="black" cx="327" cy="-111" rx="75.1594" ry="18.3848"/>
<text text-anchor="middle" x="327" y="-107.4" font-family="Times Roman,serif" font-size="14.00">GO:0000785</text>
</a>
</g>
<!-- GO:0000792 -->
<g id="node2" class="node"><title>GO:0000792</title>
<a xlink:title="heterochromatin">
<ellipse fill="none" stroke="black" cx="75" cy="-19" rx="75.1594" ry="18.3848"/>
<text text-anchor="middle" x="75" y="-15.4" font-family="Times Roman,serif" font-size="14.00">GO:0000792</text>
</a>
</g>
<!-- GO:0000785&#45;&gt;GO:0000792 -->
<g id="edge2" class="edge"><title>GO:0000785&#45;&gt;GO:0000792</title>
<path fill="none" stroke="black" stroke-width="2.32159" d="M284.821,-95.6013C241.392,-79.7463 173.649,-55.0149 126.947,-37.9647"/>
<polygon fill="black" stroke="black" points="127.911,-34.5907 117.317,-34.449 125.51,-41.1662 127.911,-34.5907"/>
<text text-anchor="middle" x="233.5" y="-61.4" font-family="Times Roman,serif" font-size="14.00">60</text>
</g>
<!-- GO:0000791 -->
<g id="node4" class="node"><title>GO:0000791</title>
<a xlink:title="euchromatin">
<ellipse fill="none" stroke="black" cx="243" cy="-19" rx="75.1594" ry="18.3848"/>
<text text-anchor="middle" x="243" y="-15.4" font-family="Times Roman,serif" font-size="14.00">GO:0000791</text>
</a>
</g>
<!-- GO:0000785&#45;&gt;GO:0000791 -->
<g id="edge4" class="edge"><title>GO:0000785&#45;&gt;GO:0000791</title>
<path fill="none" stroke="black" stroke-width="1.4185" d="M310.404,-92.8238C297.864,-79.089 280.483,-60.0533 266.513,-44.7519"/>
<polygon fill="black" stroke="black" points="268.889,-42.1634 259.561,-37.1385 263.719,-46.8833 268.889,-42.1634"/>
<text text-anchor="middle" x="302.5" y="-61.4" font-family="Times Roman,serif" font-size="14.00">19</text>
</g>
<!-- GO:0035327 -->
<g id="node6" class="node"><title>GO:0035327</title>
<a xlink:title="transcriptionally active chromatin">
<ellipse fill="none" stroke="black" cx="411" cy="-19" rx="75.1594" ry="18.3848"/>
<text text-anchor="middle" x="411" y="-15.4" font-family="Times Roman,serif" font-size="14.00">GO:0035327</text>
</a>
</g>
<!-- GO:0000785&#45;&gt;GO:0035327 -->
<g id="edge6" class="edge"><title>GO:0000785&#45;&gt;GO:0035327</title>
<path fill="none" stroke="black" stroke-width="1.24229" d="M343.596,-92.8238C356.136,-79.089 373.517,-60.0533 387.487,-44.7519"/>
<polygon fill="black" stroke="black" points="390.281,-46.8833 394.439,-37.1385 385.111,-42.1634 390.281,-46.8833"/>
<text text-anchor="middle" x="385.5" y="-61.4" font-family="Times Roman,serif" font-size="14.00">11</text>
</g>
<!-- GO:0000790 -->
<g id="node8" class="node"><title>GO:0000790</title>
<a xlink:title="nuclear chromatin">
<ellipse fill="none" stroke="black" cx="579" cy="-19" rx="75.1594" ry="18.3848"/>
<text text-anchor="middle" x="579" y="-15.4" font-family="Times Roman,serif" font-size="14.00">GO:0000790</text>
</a>
</g>
<!-- GO:0000785&#45;&gt;GO:0000790 -->
<g id="edge8" class="edge"><title>GO:0000785&#45;&gt;GO:0000790</title>
<path fill="none" stroke="black" stroke-width="3.86344" d="M369.179,-95.6013C412.608,-79.7463 480.351,-55.0149 527.053,-37.9647"/>
<polygon fill="black" stroke="black" points="528.49,-41.1662 536.683,-34.449 526.089,-34.5907 528.49,-41.1662"/>
<text text-anchor="middle" x="489" y="-61.4" font-family="Times Roman,serif" font-size="14.00">130</text>
</g>
<!-- GO:0044427 -->
<g id="node10" class="node"><title>GO:0044427</title>
<a xlink:title="chromosomal part">
<ellipse fill="none" stroke="black" cx="327" cy="-203" rx="75.1594" ry="18.3848"/>
<text text-anchor="middle" x="327" y="-199.4" font-family="Times Roman,serif" font-size="14.00">GO:0044427</text>
</a>
</g>
<!-- GO:0044427&#45;&gt;GO:0000785 -->
<g id="edge10" class="edge"><title>GO:0044427&#45;&gt;GO:0000785</title>
<path fill="none" stroke="black" stroke-width="3.23425" d="M327,-184.382C327,-171.538 327,-154.216 327,-139.627"/>
<polygon fill="black" stroke="black" points="330.5,-139.59 327,-129.59 323.5,-139.59 330.5,-139.59"/>
<text text-anchor="middle" x="341" y="-153.4" font-family="Times Roman,serif" font-size="14.00">508</text>
</g>
</g>
</svg>
